<svg width="869" height="141" viewBox="0 0 869 141" fill="none" xmlns="http://www.w3.org/2000/svg">
<g clip-path="url(#clip0_478_644)">
<path d="M773.329 125V16.5H820.294C830.007 16.5 838.378 18.1017 845.404 21.305C852.431 24.405 857.856 28.9 861.679 34.79C865.502 40.68 867.414 47.7067 867.414 55.87C867.414 63.93 865.502 70.905 861.679 76.795C857.856 82.5817 852.431 87.025 845.404 90.125C838.378 93.225 830.007 94.775 820.294 94.775H787.279L798.439 83.77V125H773.329ZM842.304 125L815.179 85.63H841.994L869.429 125H842.304ZM798.439 86.56L787.279 74.78H818.899C826.649 74.78 832.436 73.1267 836.259 69.82C840.082 66.41 841.994 61.76 841.994 55.87C841.994 49.8767 840.082 45.2267 836.259 41.92C832.436 38.6133 826.649 36.96 818.899 36.96H787.279L798.439 25.025V86.56Z" fill="white"/>
<path d="M687.785 60.21H740.02V79.74H687.785V60.21ZM689.645 104.85H748.7V125H664.69V16.5H746.685V36.65H689.645V104.85Z" fill="white"/>
<path d="M586.699 125V36.96H551.979V16.5H646.53V36.96H611.809V125H586.699Z" fill="white"/>
<path d="M484.72 125V36.96H450V16.5H544.55V36.96H509.83V125H484.72Z" fill="white"/>
<path d="M142.265 60.21H422.835V79.74H142.265V60.21ZM144.125 104.85H431.515V125H119.17V16.5H429.5V36.65H144.125V104.85Z" fill="white"/>
<path d="M0 125V16.5H53.01C66.65 16.5 76.88 19.0833 83.7 24.25C90.6233 29.4167 94.085 36.2367 94.085 44.71C94.085 50.3933 92.69 55.3533 89.9 59.59C87.11 63.7233 83.2867 66.9267 78.43 69.2C73.5733 71.4733 67.9933 72.61 61.69 72.61L64.635 66.255C71.455 66.255 77.5 67.3917 82.77 69.665C88.04 71.835 92.1217 75.09 95.015 79.43C98.0117 83.77 99.51 89.0917 99.51 95.395C99.51 104.695 95.8417 111.98 88.505 117.25C81.1683 122.417 70.37 125 56.11 125H0ZM24.955 106.09H54.25C60.76 106.09 65.6684 105.057 68.975 102.99C72.385 100.82 74.09 97.41 74.09 92.76C74.09 88.2133 72.385 84.855 68.975 82.685C65.6684 80.4117 60.76 79.275 54.25 79.275H23.095V60.985H49.91C56.0067 60.985 60.6567 59.9517 63.86 57.885C67.1666 55.715 68.82 52.46 68.82 48.12C68.82 43.8833 67.1666 40.7317 63.86 38.665C60.6567 36.495 56.0067 35.41 49.91 35.41H24.955V106.09Z" fill="white"/>
<rect x="109" y="6" width="333" height="130" stroke="white" stroke-width="2"/>
<rect x="437" y="129" width="12" height="12" fill="white"/>
<rect x="437" width="12" height="12" fill="white"/>
<rect x="103" y="129" width="12" height="12" fill="white"/>
<rect x="103" width="12" height="12" fill="white"/>
</g>
<defs>
<clipPath id="clip0_478_644">
<rect width="869" height="141" fill="white"/>
</clipPath>
</defs>
</svg>
