<svg width="639" height="141" viewBox="0 0 639 141" fill="none" xmlns="http://www.w3.org/2000/svg">
<g clip-path="url(#clip0_478_623)">
<path d="M542.894 125V16.5H589.859C599.572 16.5 607.942 18.1017 614.969 21.305C621.995 24.405 627.42 28.9 631.244 34.79C635.067 40.68 636.979 47.7067 636.979 55.87C636.979 63.93 635.067 70.905 631.244 76.795C627.42 82.5817 621.995 87.025 614.969 90.125C607.942 93.225 599.572 94.775 589.859 94.775H556.844L568.004 83.77V125H542.894ZM611.869 125L584.744 85.63H611.559L638.994 125H611.869ZM568.004 86.56L556.844 74.78H588.464C596.214 74.78 602 73.1267 605.824 69.82C609.647 66.41 611.559 61.76 611.559 55.87C611.559 49.8767 609.647 45.2267 605.824 41.92C602 38.6133 596.214 36.96 588.464 36.96H556.844L568.004 25.025V86.56Z" fill="white"/>
<path d="M457.349 60.21H509.584V79.74H457.349V60.21ZM459.209 104.85H518.264V125H434.254V16.5H516.249V36.65H459.209V104.85Z" fill="white"/>
<path d="M356.264 125V36.96H321.544V16.5H416.094V36.96H381.374V125H356.264Z" fill="white"/>
<path d="M254.284 125V36.96H219.564V16.5H314.115V36.96H279.394V125H254.284Z" fill="white"/>
<path d="M142.265 60.21H194.5V79.74H142.265V60.21ZM144.125 104.85H203.18V125H119.17V16.5H201.165V36.65H144.125V104.85Z" fill="white"/>
<path d="M0 125V16.5H53.01C66.65 16.5 76.88 19.0833 83.7 24.25C90.6233 29.4167 94.085 36.2367 94.085 44.71C94.085 50.3933 92.69 55.3533 89.9 59.59C87.11 63.7233 83.2867 66.9267 78.43 69.2C73.5733 71.4733 67.9933 72.61 61.69 72.61L64.635 66.255C71.455 66.255 77.5 67.3917 82.77 69.665C88.04 71.835 92.1217 75.09 95.015 79.43C98.0117 83.77 99.51 89.0917 99.51 95.395C99.51 104.695 95.8417 111.98 88.505 117.25C81.1683 122.417 70.37 125 56.11 125H0ZM24.955 106.09H54.25C60.76 106.09 65.6684 105.057 68.975 102.99C72.385 100.82 74.09 97.41 74.09 92.76C74.09 88.2133 72.385 84.855 68.975 82.685C65.6684 80.4117 60.76 79.275 54.25 79.275H23.095V60.985H49.91C56.0067 60.985 60.6567 59.9517 63.86 57.885C67.1666 55.715 68.82 52.46 68.82 48.12C68.82 43.8833 67.1666 40.7317 63.86 38.665C60.6567 36.495 56.0067 35.41 49.91 35.41H24.955V106.09Z" fill="white"/>
<rect x="109.18" y="6" width="103" height="130" stroke="white" stroke-width="2"/>
<rect x="206" y="129" width="12" height="12" fill="white"/>
<rect x="206" width="12" height="12" fill="white"/>
<rect x="103" y="129" width="12" height="12" fill="white"/>
<rect x="103" width="12" height="12" fill="white"/>
</g>
<defs>
<clipPath id="clip0_478_623">
<rect width="639" height="141" fill="white"/>
</clipPath>
</defs>
</svg>
