<svg width="38" height="37" viewBox="0 0 38 37" fill="none" xmlns="http://www.w3.org/2000/svg">
<path d="M36.9952 29.4522L36.8501 0.922411L8.3204 0.777359C8.02307 0.736375 7.72071 0.759711 7.43381 0.845787C7.14691 0.931863 6.88216 1.07867 6.65749 1.27627C6.43281 1.47387 6.25346 1.71765 6.13156 1.9911C6.00967 2.26455 5.94808 2.56129 5.95097 2.86124C5.95386 3.16118 6.02116 3.45733 6.14831 3.72962C6.27546 4.00191 6.45949 4.244 6.68796 4.43949C6.91642 4.63498 7.18397 4.77931 7.4725 4.86271C7.76104 4.94611 8.06381 4.96663 8.36033 4.92288L29.7392 5.06494L1.48744 33.3167C1.09576 33.7084 0.87649 34.2404 0.877872 34.7957C0.879255 35.351 1.10117 35.8841 1.49481 36.2777C1.88844 36.6714 2.42155 36.8933 2.97685 36.8947C3.53216 36.8961 4.06416 36.6768 4.45584 36.2851L32.7076 8.03334L32.8497 29.4122C32.853 29.9678 33.0769 30.5005 33.4722 30.8929C33.8674 31.2854 34.4016 31.5056 34.9572 31.505C35.5128 31.5044 36.0443 31.2831 36.4348 30.8898C36.8253 30.4966 37.0428 29.9635 37.0395 29.4079L36.9952 29.4522Z" fill="white"/>
</svg>
