<svg width="1046" height="125" viewBox="0 0 1046 125" fill="none" xmlns="http://www.w3.org/2000/svg">
<path d="M0.110001 122V2.99999H54.17C67.09 2.99999 78.48 5.49333 88.34 10.48C98.2 15.3533 105.907 22.21 111.46 31.05C117.013 39.89 119.79 50.3733 119.79 62.5C119.79 74.5133 117.013 84.9967 111.46 93.95C105.907 102.79 98.2 109.703 88.34 114.69C78.48 119.563 67.09 122 54.17 122H0.110001ZM27.65 99.39H52.81C60.7433 99.39 67.6 97.9167 73.38 94.97C79.2733 91.91 83.8067 87.6033 86.98 82.05C90.2667 76.4967 91.91 69.98 91.91 62.5C91.91 54.9067 90.2667 48.39 86.98 42.95C83.8067 37.3967 79.2733 33.1467 73.38 30.2C67.6 27.14 60.7433 25.61 52.81 25.61H27.65V99.39ZM160.789 50.94H218.079V72.36H160.789V50.94ZM162.829 99.9H227.599V122H135.459V2.99999H225.389V25.1H162.829V99.9ZM283.512 124.04C273.992 124.04 264.869 122.793 256.142 120.3C247.415 117.693 240.389 114.35 235.062 110.27L244.412 89.53C249.512 93.1567 255.519 96.16 262.432 98.54C269.459 100.807 276.542 101.94 283.682 101.94C289.122 101.94 293.485 101.43 296.772 100.41C300.172 99.2767 302.665 97.7467 304.252 95.82C305.839 93.8933 306.632 91.6833 306.632 89.19C306.632 86.0167 305.385 83.5233 302.892 81.71C300.399 79.7833 297.112 78.2533 293.032 77.12C288.952 75.8733 284.419 74.74 279.432 73.72C274.559 72.5867 269.629 71.2267 264.642 69.64C259.769 68.0533 255.292 66.0133 251.212 63.52C247.132 61.0267 243.789 57.74 241.182 53.66C238.689 49.58 237.442 44.3667 237.442 38.02C237.442 31.22 239.255 25.0433 242.882 19.49C246.622 13.8233 252.175 9.34666 259.542 6.05999C267.022 2.66 276.372 0.959998 287.592 0.959998C295.072 0.959998 302.439 1.86666 309.692 3.67999C316.945 5.37999 323.349 7.98666 328.902 11.5L320.402 32.41C314.849 29.2367 309.295 26.9133 303.742 25.44C298.189 23.8533 292.749 23.06 287.422 23.06C282.095 23.06 277.732 23.6833 274.332 24.93C270.932 26.1767 268.495 27.82 267.022 29.86C265.549 31.7867 264.812 34.0533 264.812 36.66C264.812 39.72 266.059 42.2133 268.552 44.14C271.045 45.9533 274.332 47.4267 278.412 48.56C282.492 49.6933 286.969 50.8267 291.842 51.96C296.829 53.0933 301.759 54.3967 306.632 55.87C311.619 57.3433 316.152 59.3267 320.232 61.82C324.312 64.3133 327.599 67.6 330.092 71.68C332.699 75.76 334.002 80.9167 334.002 87.15C334.002 93.8367 332.132 99.9567 328.392 105.51C324.652 111.063 319.042 115.54 311.562 118.94C304.195 122.34 294.845 124.04 283.512 124.04ZM347.72 122V2.99999H375.26V122H347.72ZM455.861 124.04C446.455 124.04 437.785 122.567 429.851 119.62C422.031 116.56 415.175 112.253 409.281 106.7C403.501 101.147 398.968 94.63 395.681 87.15C392.508 79.67 390.921 71.4533 390.921 62.5C390.921 53.5467 392.508 45.33 395.681 37.85C398.968 30.37 403.558 23.8533 409.451 18.3C415.345 12.7467 422.258 8.49666 430.191 5.54999C438.125 2.49 446.851 0.959998 456.371 0.959998C466.911 0.959998 476.375 2.71666 484.761 6.22999C493.261 9.74333 500.401 14.8433 506.181 21.53L488.501 37.85C484.195 33.3167 479.491 29.9733 474.391 27.82C469.291 25.5533 463.738 24.42 457.731 24.42C451.951 24.42 446.681 25.3267 441.921 27.14C437.161 28.9533 433.025 31.56 429.511 34.96C426.111 38.36 423.448 42.3833 421.521 47.03C419.708 51.6767 418.801 56.8333 418.801 62.5C418.801 68.0533 419.708 73.1533 421.521 77.8C423.448 82.4467 426.111 86.5267 429.511 90.04C433.025 93.44 437.105 96.0467 441.751 97.86C446.511 99.6733 451.725 100.58 457.391 100.58C462.831 100.58 468.101 99.73 473.201 98.03C478.415 96.2167 483.458 93.2133 488.331 89.02L503.971 108.91C497.511 113.783 489.975 117.523 481.361 120.13C472.861 122.737 464.361 124.04 455.861 124.04ZM478.811 105.34V60.63H503.971V108.91L478.811 105.34ZM524.454 122V2.99999H547.234L617.444 88.68H606.394V2.99999H633.594V122H610.984L540.604 36.32H551.654V122H524.454ZM725.193 56.55H782.313V78.65H725.193V56.55ZM727.233 122H699.693V2.99999H789.623V25.1H727.233V122ZM859.805 124.04C850.399 124.04 841.672 122.51 833.625 119.45C825.692 116.39 818.779 112.083 812.885 106.53C807.105 100.977 802.572 94.46 799.285 86.98C796.112 79.5 794.525 71.34 794.525 62.5C794.525 53.66 796.112 45.5 799.285 38.02C802.572 30.54 807.162 24.0233 813.055 18.47C818.949 12.9167 825.862 8.60999 833.795 5.54999C841.729 2.49 850.342 0.959998 859.635 0.959998C869.042 0.959998 877.655 2.49 885.475 5.54999C893.409 8.60999 900.265 12.9167 906.045 18.47C911.939 24.0233 916.529 30.54 919.815 38.02C923.102 45.3867 924.745 53.5467 924.745 62.5C924.745 71.34 923.102 79.5567 919.815 87.15C916.529 94.63 911.939 101.147 906.045 106.7C900.265 112.14 893.409 116.39 885.475 119.45C877.655 122.51 869.099 124.04 859.805 124.04ZM859.635 100.58C864.962 100.58 869.835 99.6733 874.255 97.86C878.789 96.0467 882.755 93.44 886.155 90.04C889.555 86.64 892.162 82.6167 893.975 77.97C895.902 73.3233 896.865 68.1667 896.865 62.5C896.865 56.8333 895.902 51.6767 893.975 47.03C892.162 42.3833 889.555 38.36 886.155 34.96C882.869 31.56 878.959 28.9533 874.425 27.14C869.892 25.3267 864.962 24.42 859.635 24.42C854.309 24.42 849.379 25.3267 844.845 27.14C840.425 28.9533 836.515 31.56 833.115 34.96C829.715 38.36 827.052 42.3833 825.125 47.03C823.312 51.6767 822.405 56.8333 822.405 62.5C822.405 68.0533 823.312 73.21 825.125 77.97C827.052 82.6167 829.659 86.64 832.945 90.04C836.345 93.44 840.312 96.0467 844.845 97.86C849.379 99.6733 854.309 100.58 859.635 100.58ZM940.343 122V2.99999H991.853C1002.51 2.99999 1011.69 4.75666 1019.39 8.26999C1027.1 11.67 1033.05 16.6 1037.24 23.06C1041.44 29.52 1043.53 37.2267 1043.53 46.18C1043.53 55.02 1041.44 62.67 1037.24 69.13C1033.05 75.4767 1027.1 80.35 1019.39 83.75C1011.69 87.15 1002.51 88.85 991.853 88.85H955.643L967.883 76.78V122H940.343ZM1015.99 122L986.243 78.82H1015.65L1045.74 122H1015.99ZM967.883 79.84L955.643 66.92H990.323C998.823 66.92 1005.17 65.1067 1009.36 61.48C1013.56 57.74 1015.65 52.64 1015.65 46.18C1015.65 39.6067 1013.56 34.5067 1009.36 30.88C1005.17 27.2533 998.823 25.44 990.323 25.44H955.643L967.883 12.35V79.84Z" fill="white"/>
</svg>
