<svg width="624" height="112" viewBox="0 0 624 112" fill="none" xmlns="http://www.w3.org/2000/svg">
<g clip-path="url(#clip0_478_603)">
<path d="M524.578 110.359V1.85938H545.348L609.363 79.9794H599.288V1.85938H624.088V110.359H603.473L539.303 32.2394H549.378V110.359H524.578Z" fill="white"/>
<path d="M452.738 112.22C444.162 112.22 436.257 110.877 429.023 108.19C421.893 105.4 415.642 101.473 410.268 96.41C404.998 91.3467 400.865 85.405 397.868 78.585C394.975 71.765 393.528 64.2733 393.528 56.11C393.528 47.9467 394.975 40.455 397.868 33.635C400.865 26.815 405.05 20.8733 410.423 15.81C415.797 10.7467 422.1 6.87166 429.333 4.18499C436.567 1.39499 444.523 0 453.203 0C462.813 0 471.442 1.60166 479.088 4.80499C486.838 8.00833 493.348 12.6583 498.618 18.755L482.498 33.635C478.572 29.5017 474.283 26.4533 469.633 24.49C464.983 22.4233 459.92 21.39 454.443 21.39C449.173 21.39 444.368 22.2167 440.028 23.87C435.688 25.5233 431.917 27.9 428.713 31C425.613 34.1 423.185 37.7683 421.428 42.005C419.775 46.2417 418.948 50.9433 418.948 56.11C418.948 61.1733 419.775 65.8233 421.428 70.06C423.185 74.2967 425.613 78.0167 428.713 81.22C431.917 84.32 435.637 86.6967 439.873 88.35C444.213 90.0033 448.967 90.83 454.133 90.83C459.093 90.83 463.898 90.055 468.548 88.505C473.302 86.8517 477.9 84.1133 482.343 80.29L496.603 98.425C490.713 102.868 483.842 106.278 475.988 108.655C468.238 111.032 460.488 112.22 452.738 112.22ZM473.663 95.17V54.405H496.603V98.425L473.663 95.17Z" fill="white"/>
<path d="M344.839 110.359V1.85938H369.949V110.359H344.839Z" fill="white"/>
<path d="M276.996 112.22C268.316 112.22 259.998 111.083 252.041 108.81C244.085 106.433 237.678 103.385 232.821 99.665L241.346 80.755C245.996 84.0617 251.473 86.8 257.776 88.97C264.183 91.0367 270.641 92.07 277.151 92.07C282.111 92.07 286.09 91.605 289.086 90.675C292.186 89.6417 294.46 88.2467 295.906 86.49C297.353 84.7333 298.076 82.7183 298.076 80.445C298.076 77.5517 296.94 75.2783 294.666 73.625C292.393 71.8683 289.396 70.4733 285.676 69.44C281.956 68.3033 277.823 67.27 273.276 66.34C268.833 65.3067 264.338 64.0667 259.791 62.62C255.348 61.1733 251.266 59.3133 247.546 57.04C243.826 54.7667 240.778 51.77 238.401 48.05C236.128 44.33 234.991 39.5767 234.991 33.79C234.991 27.59 236.645 21.9583 239.951 16.895C243.361 11.7283 248.425 7.64666 255.141 4.64999C261.961 1.55 270.486 0 280.716 0C287.536 0 294.253 0.826665 300.866 2.48C307.48 4.02999 313.318 6.40666 318.381 9.61L310.631 28.675C305.568 25.7817 300.505 23.6633 295.441 22.32C290.378 20.8733 285.418 20.15 280.561 20.15C275.705 20.15 271.726 20.7183 268.626 21.855C265.526 22.9917 263.305 24.49 261.961 26.35C260.618 28.1067 259.946 30.1733 259.946 32.55C259.946 35.34 261.083 37.6133 263.356 39.37C265.63 41.0233 268.626 42.3667 272.346 43.4C276.066 44.4333 280.148 45.4667 284.591 46.5C289.138 47.5333 293.633 48.7217 298.076 50.065C302.623 51.4083 306.756 53.2167 310.476 55.49C314.196 57.7633 317.193 60.76 319.466 64.48C321.843 68.2 323.031 72.9017 323.031 78.585C323.031 84.6817 321.326 90.2617 317.916 95.325C314.506 100.388 309.391 104.47 302.571 107.57C295.855 110.67 287.33 112.22 276.996 112.22Z" fill="white"/>
<path d="M155.802 45.5694H208.037V65.0994H155.802V45.5694ZM157.662 90.2094H216.717V110.359H132.707V1.85938H214.702V22.0094H157.662V90.2094Z" fill="white"/>
<path d="M0 110.359V1.85938H49.29C61.07 1.85938 71.455 4.13271 80.445 8.67938C89.435 13.1227 96.4617 19.3744 101.525 27.4344C106.588 35.4944 109.12 45.0527 109.12 56.1094C109.12 67.0627 106.588 76.621 101.525 84.7844C96.4617 92.8444 89.435 99.1477 80.445 103.694C71.455 108.138 61.07 110.359 49.29 110.359H0ZM25.11 89.7444H48.05C55.2833 89.7444 61.535 88.401 66.805 85.7144C72.1783 82.9244 76.3117 78.9977 79.205 73.9344C82.2017 68.871 83.7 62.9294 83.7 56.1094C83.7 49.186 82.2017 43.2444 79.205 38.2844C76.3117 33.221 72.1783 29.346 66.805 26.6594C61.535 23.8694 55.2833 22.4744 48.05 22.4744H25.11V89.7444Z" fill="white"/>
</g>
<defs>
<clipPath id="clip0_478_603">
<rect width="624" height="112" fill="white"/>
</clipPath>
</defs>
</svg>
