<svg width="1166" height="112" viewBox="0 0 1166 112" fill="none" xmlns="http://www.w3.org/2000/svg">
<g clip-path="url(#clip0_478_568)">
<path d="M1119.92 112.22C1111.24 112.22 1102.92 111.083 1094.97 108.81C1087.01 106.433 1080.6 103.385 1075.75 99.665L1084.27 80.755C1088.92 84.0617 1094.4 86.8 1100.7 88.97C1107.11 91.0367 1113.57 92.07 1120.08 92.07C1125.04 92.07 1129.02 91.605 1132.01 90.675C1135.11 89.6417 1137.39 88.2467 1138.83 86.49C1140.28 84.7333 1141 82.7183 1141 80.445C1141 77.5517 1139.87 75.2783 1137.59 73.625C1135.32 71.8683 1132.32 70.4733 1128.6 69.44C1124.88 68.3033 1120.75 67.27 1116.2 66.34C1111.76 65.3067 1107.26 64.0667 1102.72 62.62C1098.27 61.1733 1094.19 59.3133 1090.47 57.04C1086.75 54.7667 1083.7 51.77 1081.33 48.05C1079.05 44.33 1077.92 39.5767 1077.92 33.79C1077.92 27.59 1079.57 21.9583 1082.88 16.895C1086.29 11.7283 1091.35 7.64666 1098.07 4.64999C1104.89 1.55 1113.41 0 1123.64 0C1130.46 0 1137.18 0.826665 1143.79 2.48C1150.41 4.02999 1156.24 6.40667 1161.31 9.61L1153.56 28.675C1148.49 25.7817 1143.43 23.6633 1138.37 22.32C1133.3 20.8733 1128.34 20.15 1123.49 20.15C1118.63 20.15 1114.65 20.7183 1111.55 21.855C1108.45 22.9917 1106.23 24.49 1104.89 26.35C1103.54 28.1067 1102.87 30.1733 1102.87 32.55C1102.87 35.34 1104.01 37.6133 1106.28 39.37C1108.56 41.0233 1111.55 42.3667 1115.27 43.4C1118.99 44.4333 1123.07 45.4667 1127.52 46.5C1132.06 47.5333 1136.56 48.7217 1141 50.065C1145.55 51.4083 1149.68 53.2167 1153.4 55.49C1157.12 57.7633 1160.12 60.76 1162.39 64.48C1164.77 68.2 1165.96 72.9017 1165.96 78.585C1165.96 84.6817 1164.25 90.2617 1160.84 95.325C1157.43 100.388 1152.32 104.47 1145.5 107.57C1138.78 110.67 1130.26 112.22 1119.92 112.22Z" fill="white"/>
<path d="M998.729 45.5694H1050.96V65.0994H998.729V45.5694ZM1000.59 90.2094H1059.64V110.359H975.634V1.85938H1057.63V22.0094H1000.59V90.2094Z" fill="white"/>
<path d="M909.232 112.22C900.862 112.22 893.061 110.877 885.827 108.19C878.697 105.4 872.497 101.473 867.227 96.41C861.957 91.3467 857.824 85.405 854.827 78.585C851.934 71.765 850.487 64.2733 850.487 56.11C850.487 47.9467 851.934 40.455 854.827 33.635C857.824 26.815 861.957 20.8733 867.227 15.81C872.601 10.7467 878.852 6.87167 885.982 4.185C893.112 1.395 900.914 0 909.387 0C918.791 0 927.264 1.65334 934.807 4.96001C942.454 8.16334 948.861 12.9167 954.027 19.22L937.907 34.1C934.187 29.8633 930.054 26.7117 925.507 24.645C920.961 22.475 916.001 21.39 910.627 21.39C905.564 21.39 900.914 22.2167 896.677 23.87C892.441 25.5233 888.772 27.9 885.672 31C882.572 34.1 880.144 37.7683 878.387 42.005C876.734 46.2417 875.907 50.9433 875.907 56.11C875.907 61.2767 876.734 65.9783 878.387 70.215C880.144 74.4517 882.572 78.12 885.672 81.22C888.772 84.32 892.441 86.6967 896.677 88.35C900.914 90.0033 905.564 90.83 910.627 90.83C916.001 90.83 920.961 89.7967 925.507 87.73C930.054 85.56 934.187 82.305 937.907 77.965L954.027 92.845C948.861 99.1483 942.454 103.953 934.807 107.26C927.264 110.567 918.739 112.22 909.232 112.22Z" fill="white"/>
<path d="M727.477 110.359V1.85938H748.247L812.262 79.9794H802.187V1.85938H826.987V110.359H806.372L742.202 32.2394H752.277V110.359H727.477Z" fill="white"/>
<path d="M641.933 45.5694H694.168V65.0994H641.933V45.5694ZM643.793 90.2094H702.848V110.359H618.838V1.85938H700.833V22.0094H643.793V90.2094Z" fill="white"/>
<path d="M563.328 110.359V1.85938H588.438V110.359H563.328Z" fill="white"/>
<path d="M444.698 110.359V1.85938H491.663C501.377 1.85938 509.747 3.46103 516.773 6.66437C523.8 9.76436 529.225 14.2594 533.048 20.1494C536.872 26.0394 538.783 33.066 538.783 41.2294C538.783 49.2894 536.872 56.2644 533.048 62.1544C529.225 67.941 523.8 72.3844 516.773 75.4844C509.747 78.5844 501.377 80.1344 491.663 80.1344H458.648L469.808 69.1294V110.359H444.698ZM513.673 110.359L486.548 70.9894H513.363L540.798 110.359H513.673ZM469.808 71.9194L458.648 60.1394H490.268C498.018 60.1394 503.805 58.486 507.628 55.1794C511.452 51.7694 513.363 47.1194 513.363 41.2294C513.363 35.236 511.452 30.586 507.628 27.2794C503.805 23.9727 498.018 22.3194 490.268 22.3194H458.648L469.808 10.3844V71.9194Z" fill="white"/>
<path d="M359.155 45.5694H411.39V65.0994H359.155V45.5694ZM361.015 90.2094H420.07V110.359H336.06V1.85938H418.055V22.0094H361.015V90.2094Z" fill="white"/>
<path d="M219.397 110.359V1.85938H266.362C276.076 1.85938 284.446 3.46103 291.472 6.66437C298.499 9.76436 303.924 14.2594 307.747 20.1494C311.571 26.0394 313.482 33.066 313.482 41.2294C313.482 49.2894 311.571 56.2644 307.747 62.1544C303.924 68.0444 298.499 72.591 291.472 75.7944C284.446 78.8944 276.076 80.4444 266.362 80.4444H233.347L244.507 69.1294V110.359H219.397ZM244.507 71.9194L233.347 59.9844H264.967C272.717 59.9844 278.504 58.3311 282.327 55.0244C286.151 51.7177 288.062 47.1194 288.062 41.2294C288.062 35.236 286.151 30.586 282.327 27.2794C278.504 23.9727 272.717 22.3194 264.967 22.3194H233.347L244.507 10.3844V71.9194Z" fill="white"/>
<path d="M95.1797 110.359L141.835 46.0344V64.3244L97.1947 1.85938H125.715L156.56 45.4144L144.625 45.5694L175.005 1.85938H202.285L157.955 63.2394V45.2594L204.92 110.359H175.935L144.005 64.3244H155.475L124.01 110.359H95.1797Z" fill="white"/>
<path d="M23.095 45.5694H75.33V65.0994H23.095V45.5694ZM24.955 90.2094H84.01V110.359H0V1.85938H81.995V22.0094H24.955V90.2094Z" fill="white"/>
</g>
<defs>
<clipPath id="clip0_478_568">
<rect width="1166" height="112" fill="white"/>
</clipPath>
</defs>
</svg>
