<svg width="37" height="38" viewBox="0 0 37 38" fill="none" xmlns="http://www.w3.org/2000/svg">
<path d="M7.94397 37.0474L36.7488 37.0861L36.7101 8.28129C36.7495 7.98135 36.724 7.67592 36.6352 7.38568C36.5465 7.09545 36.3965 6.82718 36.1955 6.59905C35.9946 6.37092 35.7473 6.18824 35.4704 6.0634C35.1935 5.93855 34.8935 5.87444 34.5907 5.87541C34.2878 5.87638 33.9893 5.9424 33.7152 6.06902C33.4411 6.19563 33.1978 6.37988 33.0019 6.60928C32.806 6.83868 32.662 7.10789 32.5797 7.39867C32.4974 7.68945 32.4786 7.99503 32.5247 8.2947L32.5201 29.8795L3.81152 1.17099C3.41351 0.77298 2.87494 0.548138 2.31427 0.545928C1.75361 0.543721 1.21678 0.764324 0.821888 1.15921C0.426999 1.5541 0.206397 2.09093 0.208603 2.65159C0.210814 3.21226 0.435655 3.75084 0.833667 4.14885L29.5422 32.8574L7.95737 32.862C7.3964 32.8618 6.86007 33.0844 6.46637 33.481C6.07267 33.8775 5.85385 34.4154 5.85804 34.9764C5.86223 35.5374 6.0891 36.0755 6.48873 36.4723C6.88836 36.8691 7.42802 37.0922 7.98899 37.0924L7.94397 37.0474Z" fill="black"/>
</svg>
