<svg width="64" height="64" viewBox="0 0 64 64" fill="none" xmlns="http://www.w3.org/2000/svg">
<g clip-path="url(#clip0_559_145)">
<rect width="64" height="64" fill="white"/>
<circle cx="32" cy="32" r="32" fill="black"/>
<path d="M32.0585 51.6433C27.3103 51.6433 23.6036 50.3414 20.9385 47.7375C18.2734 45.1337 16.9408 41.4423 16.9408 36.6635V18.8348H26.039V36.3878C26.039 39.1448 26.5751 41.1207 27.6473 42.3154C28.7501 43.5101 30.2511 44.1074 32.1504 44.1074C34.0497 44.1074 35.5354 43.5101 36.6076 42.3154C37.6797 41.1207 38.2158 39.1448 38.2158 36.3878V18.8348H47.1762V36.6635C47.1762 41.4423 45.8436 45.1337 43.1785 47.7375C40.5134 50.3414 36.8067 51.6433 32.0585 51.6433Z" fill="white"/>
<circle cx="43" cy="22" r="7" fill="white" stroke="black" stroke-width="4"/>
</g>
<defs>
<clipPath id="clip0_559_145">
<rect width="64" height="64" fill="white"/>
</clipPath>
</defs>
</svg>
