<svg width="334" height="112" viewBox="0 0 334 112" fill="none" xmlns="http://www.w3.org/2000/svg">
<g clip-path="url(#clip0_479_801)">
<path d="M238.016 110.359V1.85938H284.981C294.694 1.85938 303.064 3.46103 310.091 6.66437C317.117 9.76436 322.542 14.2594 326.366 20.1494C330.189 26.0394 332.101 33.066 332.101 41.2294C332.101 49.2894 330.189 56.2644 326.366 62.1544C322.542 67.941 317.117 72.3844 310.091 75.4844C303.064 78.5844 294.694 80.1344 284.981 80.1344H251.966L263.126 69.1294V110.359H238.016ZM306.991 110.359L279.866 70.9894H306.681L334.116 110.359H306.991ZM263.126 71.9194L251.966 60.1394H283.586C291.336 60.1394 297.122 58.486 300.946 55.1794C304.769 51.7694 306.681 47.1194 306.681 41.2294C306.681 35.236 304.769 30.586 300.946 27.2794C297.122 23.9727 291.336 22.3194 283.586 22.3194H251.966L263.126 10.3844V71.9194Z" fill="white"/>
<path d="M155.285 112.22C146.708 112.22 138.751 110.825 131.415 108.035C124.181 105.245 117.878 101.318 112.505 96.255C107.235 91.1917 103.101 85.25 100.105 78.43C97.2113 71.61 95.7646 64.17 95.7646 56.11C95.7646 48.05 97.2113 40.61 100.105 33.79C103.101 26.97 107.286 21.0284 112.66 15.965C118.033 10.9017 124.336 6.975 131.57 4.185C138.803 1.395 146.656 0 155.13 0C163.706 0 171.56 1.395 178.69 4.185C185.923 6.975 192.175 10.9017 197.445 15.965C202.818 21.0284 207.003 26.97 210 33.79C212.996 40.5067 214.495 47.9467 214.495 56.11C214.495 64.17 212.996 71.6617 210 78.585C207.003 85.405 202.818 91.3467 197.445 96.41C192.175 101.37 185.923 105.245 178.69 108.035C171.56 110.825 163.758 112.22 155.285 112.22ZM155.13 90.83C159.986 90.83 164.43 90.0033 168.46 88.35C172.593 86.6967 176.21 84.32 179.31 81.22C182.41 78.12 184.786 74.4517 186.44 70.215C188.196 65.9784 189.075 61.2767 189.075 56.11C189.075 50.9434 188.196 46.2417 186.44 42.005C184.786 37.7683 182.41 34.1 179.31 31C176.313 27.9 172.748 25.5234 168.615 23.87C164.481 22.2167 159.986 21.39 155.13 21.39C150.273 21.39 145.778 22.2167 141.645 23.87C137.615 25.5234 134.05 27.9 130.95 31C127.85 34.1 125.421 37.7683 123.665 42.005C122.011 46.2417 121.185 50.9434 121.185 56.11C121.185 61.1733 122.011 65.875 123.665 70.215C125.421 74.4517 127.798 78.12 130.795 81.22C133.895 84.32 137.511 86.6967 141.645 88.35C145.778 90.0033 150.273 90.83 155.13 90.83Z" fill="white"/>
<path d="M23.25 50.6844H75.33V70.8344H23.25V50.6844ZM25.11 110.359H0V1.85938H81.995V22.0094H25.11V110.359Z" fill="white"/>
</g>
<defs>
<clipPath id="clip0_479_801">
<rect width="334" height="112" fill="white"/>
</clipPath>
</defs>
</svg>
