<svg width="103" height="69" viewBox="0 0 103 69" fill="none" xmlns="http://www.w3.org/2000/svg">
<rect x="5.07617" width="97.8711" height="50.8546" rx="25.4273" transform="rotate(4.81769 5.07617 0)" fill="#FF6200"/>
<path d="M61.1918 65.3928L62.4004 51.0508L75.7862 52.179L61.1918 65.3928Z" fill="#FF6200"/>
<path d="M19.3124 34.2328C18.0056 34.1227 16.82 33.8141 15.7553 33.3071C14.708 32.7855 13.8102 32.108 13.062 31.2746C12.3151 30.4253 11.7628 29.456 11.4053 28.3666C11.0477 27.2773 10.9213 26.1111 11.0261 24.8681C11.1309 23.6252 11.4507 22.4966 11.9855 21.4825C12.5203 20.4683 13.2263 19.6131 14.1035 18.9166C14.998 18.2056 16.0124 17.6893 17.1469 17.3677C18.2827 17.0301 19.504 16.9164 20.8107 17.0265C22.229 17.146 23.4843 17.4845 24.5768 18.042C25.6852 18.6009 26.5922 19.3594 27.2979 20.3176L25.1766 22.0646C24.5783 21.3562 23.9095 20.8184 23.1701 20.4511C22.448 20.0693 21.6328 19.8401 20.7245 19.7636C19.848 19.6897 19.0232 19.7646 18.2501 19.9883C17.4769 20.212 16.7973 20.564 16.2111 21.0442C15.625 21.5244 15.1503 22.1103 14.7871 22.8019C14.4399 23.4948 14.23 24.2715 14.1574 25.132C14.0862 25.9766 14.1638 26.7696 14.3902 27.5108C14.6326 28.2534 15.0018 28.9185 15.498 29.506C15.9954 30.0775 16.5986 30.5376 17.3075 30.8862C18.0163 31.2348 18.817 31.4467 19.7093 31.522C20.538 31.5918 21.3455 31.5315 22.1319 31.341C22.9356 31.1359 23.7142 30.7521 24.4677 30.1897L26.0412 32.6574C25.1056 33.2847 24.0407 33.7326 22.8466 34.0011C21.6697 34.255 20.4916 34.3322 19.3124 34.2328ZM23.1353 32.0033L23.6631 25.7406L26.6032 25.9884L26.0412 32.6574L23.1353 32.0033ZM35.4163 35.5179C34.1096 35.4078 32.9698 35.0308 31.997 34.3871C31.0254 33.7275 30.2865 32.8788 29.7802 31.8411C29.2738 30.8035 29.0737 29.6551 29.1798 28.3962C29.2873 27.1214 29.6767 26.0228 30.3483 25.1004C31.0212 24.1621 31.8911 23.4571 32.9579 22.9853C34.0248 22.5135 35.2116 22.3327 36.5183 22.4428C37.841 22.5543 38.9887 22.9319 39.9616 23.5756C40.9504 24.2206 41.6907 25.0534 42.1824 26.0738C42.6901 27.0955 42.8896 28.2518 42.7808 29.5426C42.6747 30.8015 42.2852 31.9001 41.6123 32.8384C40.9553 33.778 40.0848 34.4911 39.0006 34.9774C37.9337 35.4492 36.739 35.6294 35.4163 35.5179ZM35.6319 32.9602C36.3649 33.022 37.0317 32.9177 37.6322 32.6474C38.2328 32.377 38.7179 31.9525 39.0877 31.3738C39.4734 30.7965 39.7005 30.1014 39.769 29.2887C39.8388 28.4601 39.7312 27.7369 39.4463 27.119C39.1786 26.4866 38.7714 25.9869 38.2246 25.6198C37.6777 25.2528 37.0458 25.039 36.3287 24.9786C35.5956 24.9168 34.9289 25.0211 34.3283 25.2914C33.7437 25.5631 33.2586 25.9877 32.8729 26.565C32.4885 27.1264 32.2615 27.8214 32.1916 28.6501C32.1231 29.4628 32.2307 30.186 32.5143 30.8198C32.7979 31.4535 33.2051 31.9533 33.736 32.319C34.2828 32.6861 34.9148 32.8998 35.6319 32.9602ZM56.4966 37.2946C55.0943 37.1764 54.0409 36.7265 53.3364 35.945C52.6333 35.1475 52.3415 34.0396 52.461 32.6213L53.426 21.1717L56.4139 21.4235L55.455 32.8015C55.4039 33.407 55.5157 33.8899 55.7903 34.25C56.0808 34.6115 56.5049 34.8158 57.0626 34.8628C57.7319 34.9192 58.3044 34.7909 58.7802 34.4779L59.4375 36.6759C59.0627 36.9331 58.6144 37.112 58.0923 37.2125C57.5703 37.3129 57.0384 37.3403 56.4966 37.2946ZM50.8753 26.3009L51.0768 23.9106L59.5863 24.6278L59.3849 27.0181L50.8753 26.3009ZM67.1395 38.1916C65.8328 38.0815 64.693 37.7046 63.7201 37.0609C62.7486 36.4012 62.0097 35.5526 61.5034 34.5149C60.997 33.4772 60.7969 32.3289 60.903 31.07C61.0104 29.7951 61.3999 28.6965 62.0715 27.7742C62.7444 26.8359 63.6143 26.1308 64.6811 25.659C65.748 25.1872 66.9348 25.0064 68.2415 25.1165C69.5642 25.228 70.7119 25.6056 71.6848 26.2493C72.6736 26.8944 73.4139 27.7271 73.9056 28.7475C74.4133 29.7693 74.6128 30.9255 74.504 32.2163C74.3979 33.4752 74.0084 34.5738 73.3355 35.5121C72.6785 36.4518 71.808 37.1648 70.7238 37.6512C69.6569 38.123 68.4622 38.3031 67.1395 38.1916ZM67.3551 35.634C68.0881 35.6958 68.7549 35.5915 69.3554 35.3211C69.956 35.0508 70.4411 34.6262 70.8109 34.0476C71.1966 33.4702 71.4236 32.7752 71.4921 31.9625C71.562 31.1338 71.4544 30.4106 71.1695 29.7928C70.9018 29.1604 70.4946 28.6606 69.9477 28.2936C69.4009 27.9265 68.769 27.7127 68.0519 27.6523C67.3188 27.5905 66.6521 27.6948 66.0515 27.9652C65.4669 28.2369 64.9818 28.6614 64.5961 29.2387C64.2117 29.8001 63.9847 30.4952 63.9148 31.3238C63.8463 32.1365 63.9539 32.8598 64.2375 33.4935C64.5211 34.1273 64.9283 34.627 65.4592 34.9927C66.006 35.3598 66.638 35.5735 67.3551 35.634ZM83.8845 39.603C82.8487 39.5157 81.9207 39.1967 81.1005 38.6461C80.2962 38.0969 79.6793 37.3227 79.25 36.3236C78.8379 35.3099 78.6943 34.062 78.8192 32.58C78.9455 31.0821 79.2879 29.8752 79.8466 28.9594C80.4212 28.0449 81.1502 27.3921 82.0338 27.0012C82.9187 26.5943 83.9029 26.4365 84.9865 26.5279C86.2454 26.634 87.3301 26.9982 88.2406 27.6206C89.167 28.2444 89.8681 29.0658 90.3439 30.0848C90.8356 31.1053 91.0258 32.2768 90.9143 33.5994C90.8028 34.9221 90.4186 36.0532 89.7617 36.9929C89.122 37.9179 88.2933 38.6104 87.2756 39.0703C86.2738 39.5315 85.1434 39.7091 83.8845 39.603ZM76.4324 43.4765L77.8991 26.075L80.7435 26.3147L80.4897 29.3265L80.108 32.7127L80.061 36.1271L79.4203 43.7284L76.4324 43.4765ZM83.7654 37.0171C84.4825 37.0775 85.1334 36.9719 85.718 36.7002C86.3185 36.4299 86.8116 36.006 87.1973 35.4287C87.583 34.8513 87.8101 34.1563 87.8786 33.3436C87.9484 32.5149 87.8409 31.7917 87.5559 31.1739C87.2723 30.5401 86.8571 30.0397 86.3103 29.6726C85.7794 29.3069 85.1554 29.0938 84.4383 29.0334C83.7212 28.973 83.0624 29.0779 82.4619 29.3483C81.8613 29.6186 81.3682 30.0425 80.9825 30.6198C80.5982 31.1813 80.3711 31.8763 80.3012 32.7049C80.2328 33.5176 80.3403 34.2409 80.6239 34.8746C80.9075 35.5084 81.3227 36.0088 81.8696 36.3759C82.4164 36.7429 83.0483 36.9567 83.7654 37.0171Z" fill="#1A1A1A"/>
</svg>
