<svg width="69" height="38" viewBox="0 0 69 38" fill="none" xmlns="http://www.w3.org/2000/svg">
<rect x="0.47976" y="0.47976" width="67.1665" height="36.4618" rx="18.2309" stroke="#1A1A1A" stroke-width="0.959521"/>
<path d="M22.9506 26.2399C20.6478 26.2399 18.8407 25.5922 17.5293 24.2969C16.234 23.0015 15.5863 21.1304 15.5863 18.6837V9.20838H18.7047V18.5637C18.7047 20.2909 19.0725 21.5462 19.8082 22.3298C20.5598 23.1134 21.6153 23.5052 22.9746 23.5052C24.3339 23.5052 25.3814 23.1134 26.117 22.3298C26.8527 21.5462 27.2205 20.2909 27.2205 18.5637V9.20838H30.2909V18.6837C30.2909 21.1304 29.6353 23.0015 28.3239 24.2969C27.0286 25.5922 25.2375 26.2399 22.9506 26.2399ZM41.4709 26.1679C40.4314 26.1679 39.4799 25.928 38.6163 25.4483C37.7687 24.9685 37.0891 24.2489 36.5773 23.2894C36.0816 22.3138 35.8337 21.0825 35.8337 19.5952C35.8337 18.0919 36.0736 16.8606 36.5533 15.901C37.0491 14.9415 37.7207 14.2299 38.5683 13.7661C39.4159 13.2863 40.3834 13.0465 41.4709 13.0465C42.7342 13.0465 43.8457 13.3183 44.8052 13.8621C45.7807 14.4058 46.5483 15.1654 47.108 16.1409C47.6838 17.1164 47.9716 18.2679 47.9716 19.5952C47.9716 20.9225 47.6838 22.082 47.108 23.0735C46.5483 24.049 45.7807 24.8086 44.8052 25.3523C43.8457 25.8961 42.7342 26.1679 41.4709 26.1679ZM34.3704 30.6537V13.1904H37.225V16.2129L37.129 19.6192L37.3689 23.0255V30.6537H34.3704ZM41.135 23.6012C41.8547 23.6012 42.4944 23.4413 43.0541 23.1214C43.6298 22.8016 44.0856 22.3378 44.4214 21.7301C44.7572 21.1224 44.9251 20.4108 44.9251 19.5952C44.9251 18.7636 44.7572 18.052 44.4214 17.4603C44.0856 16.8526 43.6298 16.3888 43.0541 16.069C42.4944 15.7491 41.8547 15.5892 41.135 15.5892C40.4154 15.5892 39.7677 15.7491 39.192 16.069C38.6163 16.3888 38.1605 16.8526 37.8247 17.4603C37.4889 18.052 37.3209 18.7636 37.3209 19.5952C37.3209 20.4108 37.4889 21.1224 37.8247 21.7301C38.1605 22.3378 38.6163 22.8016 39.192 23.1214C39.7677 23.4413 40.4154 23.6012 41.135 23.6012ZM51.0072 20.4348L50.4315 9.20838H53.9817L53.382 20.4348H51.0072ZM52.2066 26.1679C51.6469 26.1679 51.1831 25.984 50.8153 25.6162C50.4475 25.2484 50.2636 24.8086 50.2636 24.2969C50.2636 23.7851 50.4475 23.3533 50.8153 23.0015C51.1831 22.6337 51.6469 22.4498 52.2066 22.4498C52.7663 22.4498 53.2221 22.6337 53.5739 23.0015C53.9258 23.3533 54.1017 23.7851 54.1017 24.2969C54.1017 24.8086 53.9258 25.2484 53.5739 25.6162C53.2221 25.984 52.7663 26.1679 52.2066 26.1679Z" fill="#1A1A1A"/>
</svg>
