<svg width="150" height="49" viewBox="0 0 150 49" fill="none" xmlns="http://www.w3.org/2000/svg">
<path d="M6.48 24.384H29.584V29.888H6.48V24.384ZM7.12 48H0.72V3.2H32.336V8.768H7.12V48ZM40.449 48V0.511997H46.593V48H40.449ZM72.852 48.384C69.4387 48.384 66.4093 47.6373 63.764 46.144C61.1187 44.6507 59.028 42.6027 57.492 40C55.956 37.3547 55.188 34.368 55.188 31.04C55.188 27.6693 55.956 24.6827 57.492 22.08C59.028 19.4773 61.1187 17.4507 63.764 16C66.4093 14.5067 69.4387 13.76 72.852 13.76C76.2227 13.76 79.2307 14.5067 81.876 16C84.564 17.4507 86.6547 19.4773 88.148 22.08C89.684 24.64 90.452 27.6267 90.452 31.04C90.452 34.4107 89.684 37.3973 88.148 40C86.6547 42.6027 84.564 44.6507 81.876 46.144C79.2307 47.6373 76.2227 48.384 72.852 48.384ZM72.852 43.008C75.028 43.008 76.9693 42.5173 78.676 41.536C80.4253 40.5547 81.7907 39.168 82.772 37.376C83.7533 35.5413 84.244 33.4293 84.244 31.04C84.244 28.608 83.7533 26.5173 82.772 24.768C81.7907 22.976 80.4253 21.5893 78.676 20.608C76.9693 19.6267 75.028 19.136 72.852 19.136C70.676 19.136 68.7347 19.6267 67.028 20.608C65.3213 21.5893 63.956 22.976 62.932 24.768C61.908 26.5173 61.396 28.608 61.396 31.04C61.396 33.4293 61.908 35.5413 62.932 37.376C63.956 39.168 65.3213 40.5547 67.028 41.536C68.7347 42.5173 70.676 43.008 72.852 43.008ZM105.18 48L92.5715 14.08H98.3955L109.596 44.8H106.844L118.492 14.08H123.676L135.068 44.8H132.38L143.836 14.08H149.34L136.668 48H130.78L120.092 19.968H121.884L111.068 48H105.18Z" fill="white"/>
</svg>
