<svg width="943" height="78" viewBox="0 0 943 78" fill="none" xmlns="http://www.w3.org/2000/svg">
<g clip-path="url(#clip0_363_102)">
<path d="M329.28 62.512C323.392 62.512 318.763 60.8267 315.392 57.456C312.021 54.0853 310.336 49.1573 310.336 42.672V17.2H316.736V42.416C316.736 47.408 317.824 51.056 320 53.36C322.219 55.664 325.333 56.816 329.344 56.816C333.397 56.816 336.512 55.664 338.688 53.36C340.907 51.056 342.016 47.408 342.016 42.416V17.2H348.224V42.672C348.224 49.1573 346.539 54.0853 343.168 57.456C339.84 60.8267 335.211 62.512 329.28 62.512ZM354.832 62L373.456 36.592V41.52L355.856 17.2H363.152L377.104 36.336L374.224 36.4L388.112 17.2H395.088L377.616 41.136V36.528L396.24 62H388.88L374.032 41.584H376.848L362.192 62H354.832ZM421.718 62.512C415.83 62.512 411.2 60.8267 407.83 57.456C404.459 54.0853 402.774 49.1573 402.774 42.672V17.2H409.174V42.416C409.174 47.408 410.262 51.056 412.438 53.36C414.656 55.664 417.771 56.816 421.782 56.816C425.835 56.816 428.95 55.664 431.126 53.36C433.344 51.056 434.454 47.408 434.454 42.416V17.2H440.662V42.672C440.662 49.1573 438.976 54.0853 435.606 57.456C432.278 60.8267 427.648 62.512 421.718 62.512ZM453.783 62V17.2H460.183V62H453.783Z" fill="white"/>
<path d="M648.344 14.064H652.696V24.432C652.696 27.632 652.291 30.768 651.48 33.84C650.712 36.912 649.603 39.792 648.152 42.48C646.701 45.168 644.995 47.5573 643.032 49.648C641.069 51.7387 638.936 53.4027 636.632 54.64L633.368 50.352C635.501 49.2853 637.464 47.856 639.256 46.064C641.091 44.2293 642.691 42.1387 644.056 39.792C645.421 37.4453 646.467 34.9707 647.192 32.368C647.96 29.7227 648.344 27.0773 648.344 24.432V14.064ZM649.304 14.064H653.592V24.432C653.592 26.992 653.955 29.5307 654.68 32.048C655.448 34.5653 656.515 36.9333 657.88 39.152C659.245 41.3707 660.803 43.3547 662.552 45.104C664.344 46.8533 666.264 48.24 668.312 49.264L665.048 53.488C662.787 52.336 660.696 50.7573 658.776 48.752C656.899 46.7467 655.235 44.464 653.784 41.904C652.376 39.3013 651.267 36.528 650.456 33.584C649.688 30.5973 649.304 27.5467 649.304 24.432V14.064ZM673.368 9.072H678.68V66.992H673.368V9.072ZM677.464 32.496H688.152V37.04H677.464V32.496ZM705.939 28.72H711.251V39.6H705.939V28.72ZM727.187 28.72H732.435V39.6H727.187V28.72ZM693.075 37.68H745.363V41.968H693.075V37.68ZM719.187 46.384C725.374 46.384 730.216 47.2587 733.715 49.008C737.214 50.7573 738.963 53.2747 738.963 56.56C738.963 59.888 737.214 62.4267 733.715 64.176C730.216 65.968 725.374 66.864 719.187 66.864C713 66.864 708.136 65.968 704.595 64.176C701.096 62.4267 699.347 59.888 699.347 56.56C699.347 53.2747 701.096 50.7573 704.595 49.008C708.136 47.2587 713 46.384 719.187 46.384ZM719.187 50.48C716.158 50.48 713.555 50.7147 711.379 51.184C709.246 51.6533 707.603 52.3573 706.451 53.296C705.299 54.192 704.723 55.28 704.723 56.56C704.723 57.9253 705.299 59.0773 706.451 60.016C707.603 60.912 709.246 61.5947 711.379 62.064C713.555 62.5333 716.158 62.768 719.187 62.768C722.216 62.768 724.798 62.5333 726.931 62.064C729.107 61.5947 730.771 60.912 731.923 60.016C733.075 59.0773 733.651 57.9253 733.651 56.56C733.651 55.28 733.075 54.192 731.923 53.296C730.771 52.3573 729.107 51.6533 726.931 51.184C724.798 50.7147 722.216 50.48 719.187 50.48ZM719.187 10.16C723.368 10.16 726.974 10.5867 730.003 11.44C733.075 12.2933 735.422 13.5307 737.043 15.152C738.707 16.7307 739.539 18.6507 739.539 20.912C739.539 23.1307 738.707 25.0507 737.043 26.672C735.422 28.2933 733.075 29.5307 730.003 30.384C726.974 31.1947 723.368 31.6 719.187 31.6C715.006 31.6 711.379 31.1947 708.307 30.384C705.278 29.5307 702.931 28.2933 701.267 26.672C699.646 25.0507 698.835 23.1307 698.835 20.912C698.835 18.6507 699.646 16.7307 701.267 15.152C702.931 13.5307 705.278 12.2933 708.307 11.44C711.379 10.5867 715.006 10.16 719.187 10.16ZM719.187 14.32C716.158 14.32 713.512 14.576 711.251 15.088C709.032 15.6 707.304 16.3467 706.067 17.328C704.872 18.3093 704.275 19.504 704.275 20.912C704.275 22.2773 704.872 23.472 706.067 24.496C707.304 25.4773 709.032 26.224 711.251 26.736C713.512 27.248 716.158 27.504 719.187 27.504C722.302 27.504 724.968 27.248 727.187 26.736C729.406 26.224 731.112 25.4773 732.307 24.496C733.502 23.472 734.099 22.2773 734.099 20.912C734.099 19.504 733.502 18.3093 732.307 17.328C731.112 16.3467 729.406 15.6 727.187 15.088C724.968 14.576 722.302 14.32 719.187 14.32ZM766.222 17.392H770.51V26.736C770.51 29.7653 770.083 32.7733 769.23 35.76C768.377 38.704 767.182 41.4987 765.646 44.144C764.153 46.7467 762.425 49.072 760.462 51.12C758.499 53.1253 756.387 54.704 754.126 55.856L750.99 51.632C753.081 50.608 755.022 49.2213 756.814 47.472C758.649 45.68 760.27 43.6533 761.678 41.392C763.086 39.088 764.195 36.6987 765.006 34.224C765.817 31.7067 766.222 29.2107 766.222 26.736V17.392ZM767.246 17.392H771.47V26.736C771.47 29.04 771.833 31.3653 772.558 33.712C773.326 36.0587 774.393 38.2987 775.758 40.432C777.123 42.5653 778.702 44.4853 780.494 46.192C782.329 47.856 784.27 49.2 786.318 50.224L783.31 54.448C781.049 53.296 778.937 51.76 776.974 49.84C775.011 47.8773 773.305 45.6587 771.854 43.184C770.403 40.7093 769.273 38.064 768.462 35.248C767.651 32.432 767.246 29.5947 767.246 26.736V17.392ZM753.038 15.024H784.27V19.44H753.038V15.024ZM791.118 9.072H796.43V66.992H791.118V9.072ZM795.214 32.432H805.902V36.912H795.214V32.432ZM855.725 19.76H871.213V24.048H855.725V19.76ZM855.213 31.792H870.829V36.144H855.213V31.792ZM870.317 9.136H875.629V43.76H870.317V9.136ZM852.205 13.424H857.837C857.837 18.3733 856.749 22.832 854.573 26.8C852.439 30.768 849.346 34.1813 845.293 37.04C841.282 39.856 836.503 42.096 830.957 43.76L828.781 39.536C833.687 38.0853 837.89 36.208 841.389 33.904C844.887 31.5573 847.554 28.8693 849.389 25.84C851.266 22.768 852.205 19.3973 852.205 15.728V13.424ZM831.725 13.424H855.789V17.776H831.725V13.424ZM856.812 44.4C860.738 44.4 864.109 44.848 866.925 45.744C869.783 46.64 872.002 47.92 873.581 49.584C875.159 51.248 875.949 53.232 875.949 55.536C875.949 57.8827 875.159 59.888 873.581 61.552C872.002 63.1733 869.783 64.432 866.925 65.328C864.109 66.2667 860.738 66.736 856.812 66.736C852.93 66.736 849.538 66.2667 846.637 65.328C843.778 64.432 841.559 63.1733 839.981 61.552C838.402 59.888 837.613 57.8827 837.613 55.536C837.613 53.232 838.402 51.248 839.981 49.584C841.559 47.92 843.778 46.64 846.637 45.744C849.538 44.848 852.93 44.4 856.812 44.4ZM856.812 48.624C853.997 48.624 851.543 48.9013 849.453 49.456C847.362 50.0107 845.741 50.8 844.589 51.824C843.437 52.848 842.861 54.0853 842.861 55.536C842.861 56.9867 843.437 58.224 844.589 59.248C845.741 60.272 847.362 61.0613 849.453 61.616C851.543 62.1707 853.997 62.448 856.812 62.448C859.671 62.448 862.125 62.1707 864.173 61.616C866.221 61.0613 867.821 60.272 868.973 59.248C870.125 58.224 870.701 56.9867 870.701 55.536C870.701 54.0853 870.125 52.848 868.973 51.824C867.821 50.8 866.221 50.0107 864.173 49.456C862.125 48.9013 859.671 48.624 856.812 48.624ZM929.192 9.072H934.504V44.144H929.192V9.072ZM919.592 26.672H931.56V31.088H919.592V26.672ZM896.936 47.216H934.504V66.224H896.936V47.216ZM929.32 51.504H902.184V61.872H929.32V51.504ZM886.952 15.088H920.424V19.44H886.952V15.088ZM903.72 22.384C906.322 22.384 908.626 22.8107 910.632 23.664C912.637 24.5173 914.194 25.7333 915.304 27.312C916.456 28.848 917.032 30.64 917.032 32.688C917.032 34.7787 916.456 36.592 915.304 38.128C914.194 39.664 912.637 40.8587 910.632 41.712C908.626 42.5653 906.322 42.992 903.72 42.992C901.117 42.992 898.792 42.5653 896.744 41.712C894.738 40.8587 893.16 39.664 892.008 38.128C890.898 36.592 890.344 34.7787 890.344 32.688C890.344 30.64 890.898 28.848 892.008 27.312C893.16 25.7333 894.738 24.5173 896.744 23.664C898.792 22.8107 901.117 22.384 903.72 22.384ZM903.72 26.48C902.098 26.48 900.648 26.736 899.368 27.248C898.13 27.76 897.149 28.4853 896.424 29.424C895.741 30.3627 895.4 31.4507 895.4 32.688C895.4 33.9253 895.741 35.0133 896.424 35.952C897.149 36.8907 898.13 37.6373 899.368 38.192C900.648 38.704 902.098 38.96 903.72 38.96C905.341 38.96 906.77 38.704 908.008 38.192C909.245 37.6373 910.205 36.8907 910.888 35.952C911.613 35.0133 911.976 33.9253 911.976 32.688C911.976 31.4507 911.613 30.3627 910.888 29.424C910.205 28.4853 909.245 27.76 908.008 27.248C906.77 26.736 905.341 26.48 903.72 26.48ZM901.096 8.56H906.344V18.224H901.096V8.56Z" fill="white"/>
<path d="M12.48 38.384H35.584V43.888H12.48V38.384ZM13.12 62H6.72V17.2H38.336V22.768H13.12V62ZM46.449 62V14.512H52.593V62H46.449ZM78.852 62.384C75.4387 62.384 72.4093 61.6373 69.764 60.144C67.1187 58.6507 65.028 56.6027 63.492 54C61.956 51.3547 61.188 48.368 61.188 45.04C61.188 41.6693 61.956 38.6827 63.492 36.08C65.028 33.4773 67.1187 31.4507 69.764 30C72.4093 28.5067 75.4387 27.76 78.852 27.76C82.2227 27.76 85.2307 28.5067 87.876 30C90.564 31.4507 92.6547 33.4773 94.148 36.08C95.684 38.64 96.452 41.6267 96.452 45.04C96.452 48.4107 95.684 51.3973 94.148 54C92.6547 56.6027 90.564 58.6507 87.876 60.144C85.2307 61.6373 82.2227 62.384 78.852 62.384ZM78.852 57.008C81.028 57.008 82.9693 56.5173 84.676 55.536C86.4253 54.5547 87.7907 53.168 88.772 51.376C89.7533 49.5413 90.244 47.4293 90.244 45.04C90.244 42.608 89.7533 40.5173 88.772 38.768C87.7907 36.976 86.4253 35.5893 84.676 34.608C82.9693 33.6267 81.028 33.136 78.852 33.136C76.676 33.136 74.7347 33.6267 73.028 34.608C71.3213 35.5893 69.956 36.976 68.932 38.768C67.908 40.5173 67.396 42.608 67.396 45.04C67.396 47.4293 67.908 49.5413 68.932 51.376C69.956 53.168 71.3213 54.5547 73.028 55.536C74.7347 56.5173 76.676 57.008 78.852 57.008ZM111.18 62L98.5715 28.08H104.396L115.596 58.8H112.844L124.492 28.08H129.676L141.068 58.8H138.38L149.836 28.08H155.34L142.668 62H136.78L126.092 33.968H127.884L117.068 62H111.18Z" fill="white"/>
<path d="M231.5 14C227.889 14 224.313 14.7157 220.976 16.1063C217.64 17.4968 214.608 19.535 212.055 22.1045C206.897 27.2936 204 34.3317 204 41.6703C204 53.9006 211.893 64.277 222.81 67.9571C224.185 68.1785 224.625 67.3207 224.625 66.5736V61.8973C217.008 63.5576 215.385 58.1895 215.385 58.1895C214.12 54.9798 212.333 54.122 212.333 54.122C209.83 52.4064 212.525 52.4618 212.525 52.4618C215.275 52.6554 216.733 55.3118 216.733 55.3118C219.125 59.5177 223.167 58.2725 224.735 57.6084C224.982 55.8099 225.698 54.5924 226.468 53.9006C220.363 53.2089 213.955 50.8292 213.955 40.2868C213.955 37.2154 215 34.7527 216.788 32.7882C216.513 32.0964 215.55 29.2187 217.062 25.4832C217.062 25.4832 219.373 24.7361 224.625 28.3056C226.798 27.6968 229.162 27.3924 231.5 27.3924C233.838 27.3924 236.202 27.6968 238.375 28.3056C243.627 24.7361 245.938 25.4832 245.938 25.4832C247.45 29.2187 246.488 32.0964 246.213 32.7882C248 34.7527 249.045 37.2154 249.045 40.2868C249.045 50.8569 242.61 53.1812 236.478 53.8729C237.468 54.7307 238.375 56.4186 238.375 58.992V66.5736C238.375 67.3207 238.815 68.2062 240.218 67.9571C251.135 64.2493 259 53.9006 259 41.6703C259 38.0366 258.289 34.4385 256.907 31.0814C255.525 27.7242 253.499 24.6739 250.945 22.1045C248.392 19.535 245.36 17.4968 242.024 16.1063C238.687 14.7157 235.111 14 231.5 14Z" fill="white"/>
<path d="M544.002 13H534.59C532.094 13 529.701 13.9834 527.936 15.7339C526.171 17.4845 525.18 19.8587 525.18 22.3343C525.18 24.8099 526.171 27.1841 527.936 28.9346C529.701 30.6851 532.094 31.6685 534.59 31.6685H544.002V13Z" fill="#CECECE"/>
<path d="M544.001 31.6687H534.589C532.093 31.6687 529.7 32.652 527.936 34.4022C526.171 36.1525 525.18 38.5263 525.18 41.0016C525.18 43.4768 526.171 45.8506 527.936 47.6009C529.7 49.3511 532.093 50.3344 534.589 50.3344H544.001V31.6687Z" fill="#DEDEDE"/>
<path d="M562.819 41.0012C562.819 43.4768 561.828 45.8511 560.063 47.6016C558.298 49.3521 555.905 50.3355 553.409 50.3355C550.913 50.3355 548.519 49.3521 546.754 47.6016C544.99 45.8511 543.998 43.4768 543.998 41.0012C543.998 38.5256 544.99 36.1514 546.754 34.4009C548.519 32.6504 550.913 31.667 553.409 31.667C555.905 31.667 558.298 32.6504 560.063 34.4009C561.828 36.1514 562.819 38.5256 562.819 41.0012Z" fill="#C9C9C9"/>
<path d="M534.59 50.3373H544.002V59.6701C544.002 61.5158 543.449 63.3198 542.415 64.8541C541.381 66.3885 539.911 67.5843 538.192 68.2903C536.473 68.9963 534.581 69.1809 532.756 68.8207C530.932 68.4605 529.255 67.5717 527.94 66.2667C526.624 64.9616 525.728 63.2989 525.365 61.4888C525.001 59.6786 525.187 57.8023 525.899 56.0971C526.611 54.3918 527.817 52.9342 529.364 51.9085C530.91 50.8828 532.729 50.3378 534.59 50.3373Z" fill="#EEEEEE"/>
<path d="M543.998 13H553.407C555.903 13 558.297 13.9834 560.062 15.7339C561.826 17.4845 562.818 19.8587 562.818 22.3343C562.818 24.8099 561.826 27.1841 560.062 28.9346C558.297 30.6851 555.903 31.6685 553.407 31.6685H543.998V13Z" fill="#BFBFBF"/>
</g>
<defs>
<clipPath id="clip0_363_102">
<rect width="943" height="78" fill="white"/>
</clipPath>
</defs>
</svg>
