<svg width="42" height="63" viewBox="0 0 42 63" fill="none" xmlns="http://www.w3.org/2000/svg">
<path d="M21.0034 0H10.5009C7.7159 0 5.04495 1.09736 3.07565 3.05068C1.10634 5.004 0 7.65327 0 10.4157C0 13.1781 1.10634 15.8274 3.07565 17.7807C5.04495 19.734 7.7159 20.8314 10.5009 20.8314H21.0034V0Z" fill="#BABABA"/>
<path d="M21.0018 20.8311H10.4993C7.71475 20.8311 5.0442 21.9283 3.07519 23.8813C1.10618 25.8343 0 28.4832 0 31.2452C0 34.0072 1.10618 36.656 3.07519 38.6091C5.0442 40.5621 7.71475 41.6593 10.4993 41.6593H21.0018V20.8311Z" fill="#D0D0D0"/>
<path d="M41.9999 31.2458C41.9999 34.0082 40.8935 36.6574 38.9242 38.6108C36.9549 40.5641 34.284 41.6614 31.499 41.6614C28.714 41.6614 26.043 40.5641 24.0737 38.6108C22.1044 36.6574 20.998 34.0082 20.998 31.2458C20.998 28.4833 22.1044 25.8341 24.0737 23.8808C26.043 21.9274 28.714 20.8301 31.499 20.8301C34.284 20.8301 36.9549 21.9274 38.9242 23.8808C40.8935 25.8341 41.9999 28.4833 41.9999 31.2458Z" fill="#B2B2B2"/>
<path d="M10.5001 41.6623H21.0026V52.0764C21.002 54.1359 20.3858 56.1489 19.2318 57.861C18.0779 59.5731 16.4381 60.9075 14.5197 61.6953C12.6014 62.4831 10.4905 62.6891 8.45416 62.2872C6.41778 61.8852 4.54727 60.8934 3.0791 59.4372C1.61093 57.9809 0.611027 56.1256 0.205807 54.1058C-0.199414 52.0859 0.00824364 49.9922 0.802524 48.0894C1.5968 46.1866 2.94204 44.5601 4.66817 43.4156C6.39429 42.271 8.4238 41.6629 10.5001 41.6623Z" fill="#E6E6E6"/>
<path d="M20.998 0H31.4974C34.2824 0 36.9534 1.09736 38.9227 3.05068C40.892 5.004 41.9983 7.65327 41.9983 10.4157C41.9983 13.1781 40.892 15.8274 38.9227 17.7807C36.9534 19.734 34.2824 20.8314 31.4974 20.8314H20.998V0Z" fill="#A5A5A5"/>
</svg>
