<svg width="59" height="49" viewBox="0 0 59 49" fill="none" xmlns="http://www.w3.org/2000/svg">
<path d="M35.3162 48.2762L59 24.6207L35.3162 0.96522C35.1023 0.686121 34.8306 0.455944 34.5194 0.290273C34.2082 0.124602 33.8648 0.0273054 33.5124 0.00496821C33.1601 -0.017369 32.807 0.0357764 32.4771 0.160805C32.1473 0.285833 31.8483 0.479826 31.6004 0.729651C31.3526 0.979476 31.1616 1.2793 31.0405 1.60883C30.9194 1.93835 30.871 2.28988 30.8985 2.63963C30.926 2.98937 31.0288 3.32916 31.2 3.63598C31.3711 3.94281 31.6066 4.20952 31.8906 4.41804L49.6103 22.1719L2.46449 22.1719C1.81087 22.1719 1.18402 22.4299 0.721837 22.8891C0.259654 23.3484 1.01249e-07 23.9713 7.286e-08 24.6207C4.4471e-08 25.2702 0.259654 25.8931 0.721837 26.3523C1.18402 26.8115 1.81087 27.0695 2.46449 27.0695L49.6103 27.0695L31.8906 44.8234C31.4298 45.2845 31.1722 45.9086 31.1745 46.5585C31.1768 47.2083 31.4388 47.8306 31.9029 48.2885C32.367 48.7463 32.9951 49.0023 33.6491 49C34.3031 48.9977 34.9293 48.7373 35.3901 48.2762L35.3162 48.2762Z" fill="white"/>
</svg>
