<svg width="103" height="129" viewBox="0 0 103 129" fill="none" xmlns="http://www.w3.org/2000/svg">
<path d="M39.14 127.54C31.58 127.54 24.86 126.28 18.98 123.76C13.1 121.12 8.48 117.52 5.12 112.96C1.76 108.4 0.0800003 103 0.0800003 96.76C0.0800003 92.08 1.16 87.64 3.32 83.44C5.48 79.24 9.02 74.98 13.94 70.66C18.98 66.22 25.82 61.42 34.46 56.26C42.5 51.46 48.8 47.32 53.36 43.84C57.92 40.36 61.16 37 63.08 33.76C65 30.52 65.96 26.92 65.96 22.96C65.96 17.2 64.04 12.58 60.2 9.09999C56.48 5.62 51.08 3.88 44 3.88C36.56 3.88 30.74 5.8 26.54 9.64C22.46 13.48 20.42 18.52 20.42 24.76C20.42 27.64 20.84 30.4 21.68 33.04C22.52 35.68 24.08 38.62 26.36 41.86C28.64 44.98 31.82 48.82 35.9 53.38L102.86 126.46L100.16 128.8L32.66 55C28.46 50.32 25.16 46.36 22.76 43.12C20.48 39.76 18.92 36.64 18.08 33.76C17.24 30.88 16.82 27.88 16.82 24.76C16.82 19.84 17.9 15.58 20.06 11.98C22.34 8.37999 25.52 5.55999 29.6 3.51999C33.68 1.48 38.48 0.459998 44 0.459998C49.16 0.459998 53.6 1.36 57.32 3.16C61.16 4.95999 64.1 7.53999 66.14 10.9C68.3 14.26 69.38 18.28 69.38 22.96C69.38 27.16 68.36 31.06 66.32 34.66C64.4 38.14 61.04 41.8 56.24 45.64C51.56 49.36 45.08 53.74 36.8 58.78C28.28 63.94 21.56 68.56 16.64 72.64C11.84 76.72 8.48 80.68 6.56 84.52C4.64 88.24 3.68 92.32 3.68 96.76C3.68 102.28 5.18 107.14 8.18 111.34C11.18 115.54 15.32 118.78 20.6 121.06C26 123.34 32.18 124.48 39.14 124.48C48.14 124.48 56.06 122.68 62.9 119.08C69.86 115.48 75.62 110.02 80.18 102.7C84.86 95.38 88.28 86.08 90.44 74.8L93.5 75.52C91.22 87.4 87.62 97.18 82.7 104.86C77.78 112.54 71.66 118.24 64.34 121.96C57.02 125.68 48.62 127.54 39.14 127.54Z" fill="white"/>
</svg>
