<svg width="53" height="52" viewBox="0 0 53 52" fill="none" xmlns="http://www.w3.org/2000/svg">
<path d="M43.6132 8.29355e-06H9.3868C8.15365 -0.00163711 6.93229 0.241564 5.7927 0.715678C4.6531 1.18979 3.61766 1.8855 2.74569 2.76296C1.87372 3.64041 1.18236 4.68237 0.711205 5.82913C0.240054 6.97589 -0.00162688 8.20493 8.24171e-06 9.44584V42.5542C-0.00162688 43.7951 0.240054 45.0241 0.711205 46.1709C1.18236 47.3176 1.87372 48.3596 2.74569 49.237C3.61766 50.1145 4.6531 50.8102 5.7927 51.2843C6.93229 51.7584 8.15365 52.0016 9.3868 52H43.6132C44.8463 52.0016 46.0677 51.7584 47.2073 51.2843C48.3469 50.8102 49.3823 50.1145 50.2543 49.237C51.1263 48.3596 51.8176 47.3176 52.2888 46.1709C52.7599 45.0241 53.0016 43.7951 53 42.5542V9.44584C53.0016 8.20493 52.7599 6.97589 52.2888 5.82913C51.8176 4.68237 51.1263 3.64041 50.2543 2.76296C49.3823 1.8855 48.3469 1.18979 47.2073 0.715678C46.0677 0.241564 44.8463 -0.00163711 43.6132 8.29355e-06ZM32.3962 36.6667H27.7795C27.7016 36.6726 27.6242 36.6514 27.5601 36.6067C27.496 36.5619 27.4492 36.4963 27.4275 36.4208L25.618 31.1125H17.3906L15.7344 36.3333C15.7163 36.4279 15.6638 36.5122 15.5873 36.57C15.5108 36.6278 15.4156 36.6548 15.3203 36.6458H11.1797C10.9395 36.6458 10.8733 36.5125 10.9395 36.2292L18.02 15.6458C18.0863 15.4208 18.1525 15.1792 18.2395 14.9125C18.33 14.436 18.3744 13.9518 18.372 13.4667C18.3657 13.4107 18.3805 13.3544 18.4134 13.3089C18.4464 13.2634 18.4951 13.232 18.55 13.2208H24.2682C24.4462 13.2208 24.5332 13.2875 24.558 13.4L32.6157 36.2875C32.6819 36.5333 32.6157 36.6458 32.3962 36.6458V36.6667ZM40.015 36.4167C40.015 36.6625 39.928 36.7708 39.7293 36.7708H35.3982C35.352 36.7744 35.3056 36.7675 35.2624 36.7506C35.2191 36.7337 35.1802 36.7074 35.1485 36.6734C35.1167 36.6394 35.0929 36.5988 35.0788 36.5543C35.0647 36.5099 35.0606 36.4629 35.067 36.4167V19.2875C35.067 19.0667 35.158 18.9792 35.3568 18.9792H39.75C39.9487 18.9792 40.0357 19.0875 40.0357 19.2875L40.015 36.4167ZM39.5512 16.3333C39.2909 16.5995 38.977 16.8067 38.6307 16.9411C38.2844 17.0754 37.9136 17.1339 37.543 17.1125C37.1802 17.1205 36.8194 17.0558 36.4818 16.922C36.1441 16.7882 35.8362 16.5881 35.5762 16.3333C35.068 15.7776 34.7986 15.0422 34.8268 14.2875C34.8113 13.9214 34.873 13.5561 35.0079 13.2157C35.1428 12.8753 35.3478 12.5675 35.6094 12.3125C36.1385 11.8066 36.8422 11.5273 37.572 11.5333C37.943 11.514 38.3138 11.5734 38.6605 11.7077C39.0072 11.8419 39.3219 12.048 39.5844 12.3125C40.0724 12.851 40.3337 13.559 40.3131 14.2875C40.3279 14.6624 40.2682 15.0365 40.1373 15.3878C40.0065 15.7391 39.8072 16.0606 39.5512 16.3333ZM24.293 26.6H18.6825C19.0138 25.6667 19.345 24.6208 19.6555 23.4875C19.9661 22.3542 20.3387 21.2667 20.67 20.2C20.9716 19.2589 21.2218 18.3019 21.4195 17.3333H21.465C21.6182 17.8667 21.7755 18.4458 21.9495 19.0667C22.1234 19.6875 22.3263 20.3542 22.5457 21.0458C22.7652 21.7375 22.9598 22.4 23.1875 23.0875C23.4152 23.775 23.6016 24.4 23.7837 25C23.9659 25.6 24.1605 26.1333 24.293 26.6Z" fill="white"/>
</svg>
