<svg width="399" height="62" viewBox="0 0 399 62" fill="none" xmlns="http://www.w3.org/2000/svg">
<path d="M19.28 49.512C13.392 49.512 8.76267 47.8267 5.392 44.456C2.02133 41.0853 0.336 36.1573 0.336 29.672V4.2H6.736V29.416C6.736 34.408 7.824 38.056 10 40.36C12.2187 42.664 15.3333 43.816 19.344 43.816C23.3973 43.816 26.512 42.664 28.688 40.36C30.9067 38.056 32.016 34.408 32.016 29.416V4.2H38.224V29.672C38.224 36.1573 36.5387 41.0853 33.168 44.456C29.84 47.8267 25.2107 49.512 19.28 49.512ZM44.832 49L63.456 23.592V28.52L45.856 4.2H53.152L67.104 23.336L64.224 23.4L78.112 4.2H85.088L67.616 28.136V23.528L86.24 49H78.88L64.032 28.584H66.848L52.192 49H44.832ZM111.718 49.512C105.83 49.512 101.2 47.8267 97.8295 44.456C94.4588 41.0853 92.7735 36.1573 92.7735 29.672V4.2H99.1735V29.416C99.1735 34.408 100.262 38.056 102.438 40.36C104.656 42.664 107.771 43.816 111.782 43.816C115.835 43.816 118.95 42.664 121.126 40.36C123.344 38.056 124.454 34.408 124.454 29.416V4.2H130.662V29.672C130.662 36.1573 128.976 41.0853 125.606 44.456C122.278 47.8267 117.648 49.512 111.718 49.512ZM143.783 49V4.2H150.183V49H143.783ZM180.783 49V4.2H199.663C204.441 4.2 208.644 5.13866 212.271 7.016C215.94 8.89333 218.777 11.5173 220.783 14.888C222.831 18.2587 223.855 22.1627 223.855 26.6C223.855 31.0373 222.831 34.9413 220.783 38.312C218.777 41.6827 215.94 44.3067 212.271 46.184C208.644 48.0613 204.441 49 199.663 49H180.783ZM187.183 43.432H199.279C202.991 43.432 206.191 42.728 208.879 41.32C211.609 39.912 213.721 37.9493 215.215 35.432C216.708 32.872 217.455 29.928 217.455 26.6C217.455 23.2293 216.708 20.2853 215.215 17.768C213.721 15.2507 211.609 13.288 208.879 11.88C206.191 10.472 202.991 9.768 199.279 9.768H187.183V43.432ZM247.866 49.384C244.239 49.384 241.039 48.6373 238.266 47.144C235.535 45.6507 233.402 43.6027 231.866 41C230.372 38.3973 229.626 35.4107 229.626 32.04C229.626 28.6693 230.351 25.6827 231.802 23.08C233.295 20.4773 235.322 18.4507 237.882 17C240.484 15.5067 243.407 14.76 246.65 14.76C249.935 14.76 252.836 15.4853 255.354 16.936C257.871 18.3867 259.834 20.4347 261.242 23.08C262.692 25.6827 263.418 28.7333 263.418 32.232C263.418 32.488 263.396 32.7867 263.354 33.128C263.354 33.4693 263.332 33.7893 263.29 34.088H234.426V29.672H260.09L257.594 31.208C257.636 29.032 257.188 27.0907 256.25 25.384C255.311 23.6773 254.01 22.3547 252.346 21.416C250.724 20.4347 248.826 19.944 246.65 19.944C244.516 19.944 242.618 20.4347 240.954 21.416C239.29 22.3547 237.988 23.6987 237.05 25.448C236.111 27.1547 235.642 29.1173 235.642 31.336V32.36C235.642 34.6213 236.154 36.648 237.178 38.44C238.244 40.1893 239.716 41.5547 241.594 42.536C243.471 43.5173 245.626 44.008 248.058 44.008C250.063 44.008 251.876 43.6667 253.498 42.984C255.162 42.3013 256.612 41.2773 257.85 39.912L261.242 43.88C259.706 45.672 257.786 47.0373 255.482 47.976C253.22 48.9147 250.682 49.384 247.866 49.384ZM281.677 49.384C278.861 49.384 276.173 49 273.613 48.232C271.096 47.464 269.112 46.5253 267.661 45.416L270.221 40.552C271.672 41.5333 273.464 42.3653 275.597 43.048C277.73 43.7307 279.906 44.072 282.125 44.072C284.984 44.072 287.032 43.6667 288.269 42.856C289.549 42.0453 290.189 40.9147 290.189 39.464C290.189 38.3973 289.805 37.5653 289.037 36.968C288.269 36.3707 287.245 35.9227 285.965 35.624C284.728 35.3253 283.341 35.0693 281.805 34.856C280.269 34.6 278.733 34.3013 277.197 33.96C275.661 33.576 274.253 33.064 272.973 32.424C271.693 31.7413 270.669 30.824 269.901 29.672C269.133 28.4773 268.749 26.8987 268.749 24.936C268.749 22.888 269.325 21.096 270.477 19.56C271.629 18.024 273.25 16.8507 275.341 16.04C277.474 15.1867 279.992 14.76 282.893 14.76C285.112 14.76 287.352 15.0373 289.613 15.592C291.917 16.104 293.794 16.8507 295.245 17.832L292.621 22.696C291.085 21.672 289.485 20.968 287.821 20.584C286.157 20.2 284.493 20.008 282.829 20.008C280.141 20.008 278.136 20.456 276.813 21.352C275.49 22.2053 274.829 23.3147 274.829 24.68C274.829 25.832 275.213 26.728 275.981 27.368C276.792 27.9653 277.816 28.4347 279.053 28.776C280.333 29.1173 281.741 29.416 283.277 29.672C284.813 29.8853 286.349 30.184 287.885 30.568C289.421 30.9093 290.808 31.4 292.045 32.04C293.325 32.68 294.349 33.576 295.117 34.728C295.928 35.88 296.333 37.416 296.333 39.336C296.333 41.384 295.736 43.1547 294.541 44.648C293.346 46.1413 291.661 47.3147 289.485 48.168C287.309 48.9787 284.706 49.384 281.677 49.384ZM304.012 49V15.08H310.156V49H304.012ZM307.084 8.552C305.889 8.552 304.886 8.168 304.076 7.4C303.308 6.632 302.924 5.69333 302.924 4.584C302.924 3.432 303.308 2.472 304.076 1.704C304.886 0.935998 305.889 0.551998 307.084 0.551998C308.278 0.551998 309.26 0.935998 310.028 1.704C310.838 2.42933 311.244 3.34666 311.244 4.456C311.244 5.608 310.86 6.58933 310.092 7.4C309.324 8.168 308.321 8.552 307.084 8.552ZM336.735 61.8C333.62 61.8 330.591 61.352 327.647 60.456C324.745 59.6027 322.377 58.3653 320.543 56.744L323.487 52.008C325.065 53.3733 327.007 54.44 329.311 55.208C331.615 56.0187 334.025 56.424 336.543 56.424C340.553 56.424 343.497 55.4853 345.375 53.608C347.252 51.7307 348.191 48.872 348.191 45.032V37.864L348.831 31.144L348.511 24.36V15.08H354.335V44.392C354.335 50.3653 352.841 54.76 349.854 57.576C346.868 60.392 342.495 61.8 336.735 61.8ZM335.967 47.592C332.681 47.592 329.737 46.9093 327.135 45.544C324.575 44.136 322.527 42.1947 320.991 39.72C319.497 37.2453 318.751 34.3867 318.751 31.144C318.751 27.8587 319.497 25 320.991 22.568C322.527 20.0933 324.575 18.1733 327.135 16.808C329.737 15.4427 332.681 14.76 335.967 14.76C338.868 14.76 341.513 15.3573 343.903 16.552C346.292 17.704 348.191 19.496 349.599 21.928C351.049 24.36 351.775 27.432 351.775 31.144C351.775 34.8133 351.049 37.864 349.599 40.296C348.191 42.728 346.292 44.5627 343.903 45.8C341.513 46.9947 338.868 47.592 335.967 47.592ZM336.671 42.216C338.932 42.216 340.937 41.7467 342.687 40.808C344.436 39.8693 345.801 38.568 346.783 36.904C347.807 35.24 348.319 33.32 348.319 31.144C348.319 28.968 347.807 27.048 346.783 25.384C345.801 23.72 344.436 22.44 342.687 21.544C340.937 20.6053 338.932 20.136 336.671 20.136C334.409 20.136 332.383 20.6053 330.591 21.544C328.841 22.44 327.455 23.72 326.431 25.384C325.449 27.048 324.959 28.968 324.959 31.144C324.959 33.32 325.449 35.24 326.431 36.904C327.455 38.568 328.841 39.8693 330.591 40.808C332.383 41.7467 334.409 42.216 336.671 42.216ZM384.186 14.76C386.959 14.76 389.391 15.2933 391.482 16.36C393.615 17.4267 395.279 19.048 396.474 21.224C397.669 23.4 398.266 26.152 398.266 29.48V49H392.122V30.184C392.122 26.8987 391.311 24.424 389.69 22.76C388.111 21.096 385.871 20.264 382.97 20.264C380.794 20.264 378.895 20.6907 377.274 21.544C375.653 22.3973 374.394 23.656 373.498 25.32C372.645 26.984 372.218 29.0533 372.218 31.528V49H366.074V15.08H371.962V24.232L371.002 21.8C372.111 19.5813 373.818 17.8533 376.122 16.616C378.426 15.3787 381.114 14.76 384.186 14.76Z" fill="white"/>
</svg>
