<svg width="943" height="78" viewBox="0 0 943 78" fill="none" xmlns="http://www.w3.org/2000/svg">
<g clip-path="url(#clip0_364_192)">
<path d="M26.752 62.512C23.3387 62.512 20.1813 61.9573 17.28 60.848C14.4213 59.696 11.9253 58.096 9.792 56.048C7.70133 53.9573 6.05867 51.5253 4.864 48.752C3.66933 45.9787 3.072 42.928 3.072 39.6C3.072 36.272 3.66933 33.2213 4.864 30.448C6.05867 27.6747 7.72267 25.264 9.856 23.216C11.9893 21.1253 14.4853 19.5253 17.344 18.416C20.2453 17.264 23.4027 16.688 26.816 16.688C30.272 16.688 33.4507 17.2853 36.352 18.48C39.296 19.632 41.792 21.36 43.84 23.664L39.68 27.696C37.9733 25.904 36.0533 24.5813 33.92 23.728C31.7867 22.832 29.504 22.384 27.072 22.384C24.5547 22.384 22.208 22.8107 20.032 23.664C17.8987 24.5173 16.0427 25.712 14.464 27.248C12.8853 28.784 11.648 30.6187 10.752 32.752C9.89867 34.8427 9.472 37.1253 9.472 39.6C9.472 42.0747 9.89867 44.3787 10.752 46.512C11.648 48.6027 12.8853 50.416 14.464 51.952C16.0427 53.488 17.8987 54.6827 20.032 55.536C22.208 56.3893 24.5547 56.816 27.072 56.816C29.504 56.816 31.7867 56.3893 33.92 55.536C36.0533 54.64 37.9733 53.2747 39.68 51.44L43.84 55.472C41.792 57.776 39.296 59.5253 36.352 60.72C33.4507 61.9147 30.2507 62.512 26.752 62.512ZM85.098 17.2H91.498V62H85.098V17.2ZM59.37 62H52.97V17.2H59.37V62ZM85.674 42.032H58.73V36.464H85.674V42.032ZM98.1235 62L118.412 17.2H124.748L145.1 62H138.38L120.268 20.784H122.828L104.716 62H98.1235ZM106.764 50.8L108.492 45.68H133.708L135.564 50.8H106.764ZM151.783 62V17.2H169.255C173.18 17.2 176.529 17.8187 179.303 19.056C182.076 20.2933 184.209 22.0853 185.703 24.432C187.196 26.7787 187.943 29.5733 187.943 32.816C187.943 36.0587 187.196 38.8533 185.703 41.2C184.209 43.504 182.076 45.2747 179.303 46.512C176.529 47.7493 173.18 48.368 169.255 48.368H155.303L158.183 45.424V62H151.783ZM181.735 62L170.343 45.744H177.191L188.711 62H181.735ZM158.183 46.064L155.303 42.928H169.063C173.159 42.928 176.252 42.0533 178.343 40.304C180.476 38.512 181.543 36.016 181.543 32.816C181.543 29.616 180.476 27.1413 178.343 25.392C176.252 23.6427 173.159 22.768 169.063 22.768H155.303L158.183 19.568V46.064ZM191.498 62L211.787 17.2H218.123L238.475 62H231.755L213.643 20.784H216.203L198.091 62H191.498ZM200.139 50.8L201.867 45.68H227.083L228.939 50.8H200.139ZM264.565 62.512C261.151 62.512 257.994 61.9573 255.093 60.848C252.234 59.696 249.738 58.096 247.605 56.048C245.514 53.9573 243.871 51.5253 242.677 48.752C241.482 45.9787 240.885 42.928 240.885 39.6C240.885 36.272 241.482 33.2213 242.677 30.448C243.871 27.6747 245.535 25.264 247.669 23.216C249.802 21.1253 252.298 19.5253 255.157 18.416C258.058 17.264 261.215 16.688 264.629 16.688C268.085 16.688 271.263 17.2853 274.165 18.48C277.109 19.632 279.605 21.36 281.653 23.664L277.493 27.696C275.786 25.904 273.866 24.5813 271.733 23.728C269.599 22.832 267.317 22.384 264.885 22.384C262.367 22.384 260.021 22.8107 257.845 23.664C255.711 24.5173 253.855 25.712 252.277 27.248C250.698 28.784 249.461 30.6187 248.565 32.752C247.711 34.8427 247.285 37.1253 247.285 39.6C247.285 42.0747 247.711 44.3787 248.565 46.512C249.461 48.6027 250.698 50.416 252.277 51.952C253.855 53.488 255.711 54.6827 257.845 55.536C260.021 56.3893 262.367 56.816 264.885 56.816C267.317 56.816 269.599 56.3893 271.733 55.536C273.866 54.64 275.786 53.2747 277.493 51.44L281.653 55.472C279.605 57.776 277.109 59.5253 274.165 60.72C271.263 61.9147 268.063 62.512 264.565 62.512ZM299.179 62V22.768H283.819V17.2H320.875V22.768H305.515V62H299.179ZM333.669 36.528H356.709V41.968H333.669V36.528ZM334.245 56.432H360.357V62H327.845V17.2H359.461V22.768H334.245V56.432ZM370.72 62V17.2H388.192C392.117 17.2 395.467 17.8187 398.24 19.056C401.013 20.2933 403.147 22.0853 404.64 24.432C406.133 26.7787 406.88 29.5733 406.88 32.816C406.88 36.0587 406.133 38.8533 404.64 41.2C403.147 43.504 401.013 45.2747 398.24 46.512C395.467 47.7493 392.117 48.368 388.192 48.368H374.24L377.12 45.424V62H370.72ZM400.672 62L389.28 45.744H396.128L407.648 62H400.672ZM377.12 46.064L374.24 42.928H388C392.096 42.928 395.189 42.0533 397.28 40.304C399.413 38.512 400.48 36.016 400.48 32.816C400.48 29.616 399.413 27.1413 397.28 25.392C395.189 23.6427 392.096 22.768 388 22.768H374.24L377.12 19.568V46.064Z" fill="white"/>
<path d="M563.024 62L548.048 17.2H554.64L568.4 58.544H565.072L579.344 17.2H585.232L599.184 58.544H595.984L609.936 17.2H616.016L601.04 62H594.32L581.264 23.664H582.992L569.872 62H563.024ZM629.669 36.528H652.709V41.968H629.669V36.528ZM630.245 56.432H656.357V62H623.845V17.2H655.461V22.768H630.245V56.432ZM666.72 62V17.2H686.816C691.979 17.2 695.947 18.2453 698.72 20.336C701.493 22.384 702.88 25.2 702.88 28.784C702.88 31.216 702.325 33.264 701.216 34.928C700.149 36.592 698.699 37.872 696.864 38.768C695.029 39.664 693.045 40.112 690.912 40.112L692.064 38.192C694.624 38.192 696.885 38.64 698.848 39.536C700.811 40.432 702.368 41.7547 703.52 43.504C704.672 45.2107 705.248 47.344 705.248 49.904C705.248 53.744 703.797 56.7307 700.896 58.864C698.037 60.9547 693.771 62 688.096 62H666.72ZM673.12 56.816H687.84C691.381 56.816 694.091 56.2187 695.968 55.024C697.845 53.8293 698.784 51.952 698.784 49.392C698.784 46.7893 697.845 44.8907 695.968 43.696C694.091 42.5013 691.381 41.904 687.84 41.904H672.544V36.72H686.24C689.483 36.72 692 36.1227 693.792 34.928C695.584 33.7333 696.48 31.9413 696.48 29.552C696.48 27.1627 695.584 25.3707 693.792 24.176C692 22.9813 689.483 22.384 686.24 22.384H673.12V56.816Z" fill="white"/>
<path d="M890.528 35.824H895.2C899.381 35.824 903.008 35.8027 906.08 35.76C909.195 35.6747 912.075 35.504 914.72 35.248C917.365 34.992 920.032 34.6507 922.72 34.224L923.296 38.448C920.48 38.9173 917.728 39.28 915.04 39.536C912.352 39.7493 909.429 39.8987 906.272 39.984C903.115 40.0693 899.424 40.112 895.2 40.112H890.528V35.824ZM890.528 12.592H918.048V16.944H895.84V38H890.528V12.592ZM894.112 24.048H916.448V28.272H894.112V24.048ZM929.312 9.136H934.624V43.632H929.312V9.136ZM897.248 46.512H934.624V66.224H897.248V46.512ZM929.44 50.736H902.432V61.872H929.44V50.736Z" fill="white"/>
<path d="M490.12 63.4424C490.008 63.4794 489.891 63.5 489.771 63.5C489.65 63.5 489.532 63.4795 489.42 63.4424L489.771 63.0928L490.12 63.4424ZM489.062 60.1025L488.275 60.8906L487.922 61.2441L489.063 62.3857L488.628 62.8203L484.447 58.6396C484.569 58.5876 484.691 58.537 484.812 58.4824L485.267 58.2754L485.061 57.8203L484.537 56.6641L485.081 56.1201L489.062 60.1025ZM496.891 55.2656L497.244 55.6191L498.386 54.4775L498.82 54.9121L490.912 62.8203L490.478 62.3857L491.619 61.2441L491.266 60.8906L490.477 60.1025L496.103 54.4766L496.891 55.2656ZM490.204 61.2441L489.771 61.6787L489.336 61.2441L489.77 60.8096L490.204 61.2441ZM483.341 56.4463L482.444 57.3438L482.091 57.6973L482.648 58.2549C480.939 58.8249 479.153 59.1401 477.347 59.1865V56.9551C479.296 56.8985 481.218 56.486 483.02 55.7383L483.341 56.4463ZM460.74 41.3467C460.867 45.4394 462.547 49.3379 465.451 52.2422C468.355 55.1464 472.254 56.8272 476.347 56.9541V59.1855C471.662 59.0579 467.197 57.1427 463.874 53.8203C460.551 50.4976 458.635 46.0313 458.508 41.3467H460.74ZM483.94 57.7705C483.855 57.8064 483.769 57.8404 483.683 57.875L483.505 57.6963L483.781 57.4199L483.94 57.7705ZM484.139 55.458C484.19 55.4674 484.241 55.4807 484.29 55.4971L484.097 55.6904L483.984 55.4414C484.036 55.4435 484.088 55.4487 484.139 55.458ZM497.679 53.7705L497.244 54.2041L496.81 53.7695L497.244 53.3359L497.679 53.7705ZM499.442 53.4199C499.48 53.532 499.5 53.6502 499.5 53.7705C499.5 53.8906 499.479 54.0082 499.442 54.1201L499.093 53.7705L499.442 53.4199ZM498.82 52.6279L498.386 53.0635L497.244 51.9219L496.891 52.2754L496.103 53.0625L492.12 49.0811L492.664 48.5371L493.82 49.0605L494.275 49.2666L494.482 48.8115C494.537 48.6913 494.589 48.5698 494.641 48.4482L498.82 52.6279ZM491.69 48.0967L491.497 48.29C491.481 48.2407 491.467 48.1902 491.458 48.1387C491.449 48.0876 491.444 48.0359 491.441 47.9844L491.69 48.0967ZM493.875 47.6826C493.84 47.7685 493.805 47.8542 493.77 47.9395L493.42 47.7812L493.696 47.5049L493.875 47.6826ZM495.187 41.3467C495.137 43.194 494.814 44.9747 494.256 46.6494L493.697 46.0908L493.344 46.4443L492.446 47.3408L491.738 47.0195C492.486 45.2184 492.898 43.2961 492.955 41.3467H495.187ZM477.347 22.5068C482.031 22.6344 486.498 24.5513 489.82 27.874C493.143 31.1966 495.058 35.6623 495.186 40.3467H492.954C492.827 36.2539 491.146 32.3554 488.242 29.4512C485.338 26.547 481.439 24.8661 477.347 24.7393V22.5068ZM459.115 24.1152V25.7305H460.73V40.3467H458.5V24.1152H459.115ZM476.347 22.5V24.7305H461.73V23.1152H460.115V22.5H476.347ZM460.73 24.1152V24.7305H460.115V24.1152H460.73ZM459.115 23.1152H458.62C458.673 23.0098 458.742 22.9122 458.827 22.8271C458.912 22.742 459.01 22.6722 459.115 22.6191V23.1152Z" fill="white" stroke="white"/>
<path d="M476.846 38.6927C475.657 38.6927 474.692 39.657 474.692 40.8466C474.692 42.0361 475.657 43.0005 476.846 43.0005C478.036 43.0005 479 42.0361 479 40.8466C479 39.657 478.036 38.6927 476.846 38.6927Z" fill="white" stroke="white" stroke-width="1.5"/>
<path d="M459.615 23.6155L474.693 38.6929Z" fill="white"/>
<path d="M459.615 23.6155L474.693 38.6929" stroke="white" stroke-width="1.5" stroke-linecap="round" stroke-linejoin="round"/>
<path d="M815.209 30.0875C814.055 27.3385 812.376 24.8397 810.265 22.7306C808.161 20.6179 805.661 18.9381 802.908 17.7867C800.088 16.6014 797.058 15.9938 793.998 16H793.895C790.782 16.0154 787.772 16.6315 784.938 17.8431C782.208 19.0064 779.732 20.6891 777.648 22.7974C775.557 24.9017 773.897 27.3917 772.76 30.1286C771.579 32.9747 770.981 36.0276 771 39.1078C771.016 42.6708 771.87 46.2081 773.465 49.3705V57.1741C773.465 58.4781 774.525 59.5357 775.826 59.5357H783.636C786.82 61.139 790.334 61.9826 793.9 62H794.008C797.084 62 800.063 61.4045 802.872 60.2391C805.611 59.1014 808.102 57.4412 810.204 55.3516C812.323 53.2518 813.99 50.7978 815.158 48.0614C816.367 45.2275 816.984 42.2139 817 39.1027C817.01 35.9761 816.403 32.942 815.209 30.0875ZM783.729 41.4643C782.37 41.4643 781.264 40.3605 781.264 39C781.264 37.6395 782.37 36.5357 783.729 36.5357C785.087 36.5357 786.193 37.6395 786.193 39C786.193 40.3605 785.092 41.4643 783.729 41.4643ZM793.998 41.4643C792.639 41.4643 791.533 40.3605 791.533 39C791.533 37.6395 792.639 36.5357 793.998 36.5357C795.356 36.5357 796.462 37.6395 796.462 39C796.462 40.3605 795.356 41.4643 793.998 41.4643ZM804.267 41.4643C802.908 41.4643 801.802 40.3605 801.802 39C801.802 37.6395 802.908 36.5357 804.267 36.5357C805.625 36.5357 806.731 37.6395 806.731 39C806.731 40.3605 805.625 41.4643 804.267 41.4643Z" fill="white"/>
</g>
<defs>
<clipPath id="clip0_364_192">
<rect width="943" height="78" fill="white"/>
</clipPath>
</defs>
</svg>
