<svg width="943" height="78" viewBox="0 0 943 78" fill="none" xmlns="http://www.w3.org/2000/svg">
<g clip-path="url(#clip0_364_222)">
<path d="M576.72 62V17.2H583.12V62H576.72ZM596.533 62V17.2H601.781L631.413 54H628.661V17.2H635.061V62H629.812L600.181 25.2H602.933V62H596.533ZM657.366 62V22.768H642.006V17.2H679.062V22.768H663.702V62H657.366ZM691.857 36.528H714.897V41.968H691.857V36.528ZM692.433 56.432H718.545V62H686.033V17.2H717.649V22.768H692.433V56.432ZM728.908 62V17.2H746.38C750.305 17.2 753.654 17.8187 756.428 19.056C759.201 20.2933 761.334 22.0853 762.828 24.432C764.321 26.7787 765.068 29.5733 765.068 32.816C765.068 36.0587 764.321 38.8533 762.828 41.2C761.334 43.504 759.201 45.2747 756.428 46.512C753.654 47.7493 750.305 48.368 746.38 48.368H732.428L735.308 45.424V62H728.908ZM758.86 62L747.468 45.744H754.316L765.836 62H758.86ZM735.308 46.064L732.428 42.928H746.188C750.284 42.928 753.377 42.0533 755.468 40.304C757.601 38.512 758.668 36.016 758.668 32.816C758.668 29.616 757.601 27.1413 755.468 25.392C753.377 23.6427 750.284 22.768 746.188 22.768H732.428L735.308 19.568V46.064ZM781.168 38.384H804.272V43.888H781.168V38.384ZM781.808 62H775.408V17.2H807.024V22.768H781.808V62ZM807.186 62L827.474 17.2H833.81L854.162 62H847.442L829.33 20.784H831.89L813.778 62H807.186ZM815.826 50.8L817.554 45.68H842.77L844.626 50.8H815.826ZM880.252 62.512C876.839 62.512 873.681 61.9573 870.78 60.848C867.921 59.696 865.425 58.096 863.292 56.048C861.201 53.9573 859.559 51.5253 858.364 48.752C857.169 45.9787 856.572 42.928 856.572 39.6C856.572 36.272 857.169 33.2213 858.364 30.448C859.559 27.6747 861.223 25.264 863.356 23.216C865.489 21.1253 867.985 19.5253 870.844 18.416C873.745 17.264 876.903 16.688 880.316 16.688C883.772 16.688 886.951 17.2853 889.852 18.48C892.796 19.632 895.292 21.36 897.34 23.664L893.18 27.696C891.473 25.904 889.553 24.5813 887.42 23.728C885.287 22.832 883.004 22.384 880.572 22.384C878.055 22.384 875.708 22.8107 873.532 23.664C871.399 24.5173 869.543 25.712 867.964 27.248C866.385 28.784 865.148 30.6187 864.252 32.752C863.399 34.8427 862.972 37.1253 862.972 39.6C862.972 42.0747 863.399 44.3787 864.252 46.512C865.148 48.6027 866.385 50.416 867.964 51.952C869.543 53.488 871.399 54.6827 873.532 55.536C875.708 56.3893 878.055 56.816 880.572 56.816C883.004 56.816 885.287 56.3893 887.42 55.536C889.553 54.64 891.473 53.2747 893.18 51.44L897.34 55.472C895.292 57.776 892.796 59.5253 889.852 60.72C886.951 61.9147 883.751 62.512 880.252 62.512ZM912.294 36.528H935.334V41.968H912.294V36.528ZM912.87 56.432H938.982V62H906.47V17.2H938.086V22.768H912.87V56.432Z" fill="white"/>
<path d="M12.544 36.528H35.584V41.968H12.544V36.528ZM13.12 56.432H39.232V62H6.72V17.2H38.336V22.768H13.12V56.432ZM43.207 62L61.831 36.592V41.52L44.231 17.2H51.527L65.479 36.336L62.599 36.4L76.487 17.2H83.463L65.991 41.136V36.528L84.615 62H77.255L62.407 41.584H65.223L50.567 62H43.207ZM90.6575 62V17.2H108.13C112.055 17.2 115.404 17.8187 118.178 19.056C120.951 20.2933 123.084 22.0853 124.578 24.432C126.071 26.7787 126.818 29.5733 126.818 32.816C126.818 36.0587 126.071 38.8533 124.578 41.2C123.084 43.504 120.951 45.296 118.178 46.576C115.404 47.8133 112.055 48.432 108.13 48.432H94.1775L97.0575 45.424V62H90.6575ZM97.0575 46.064L94.1775 42.864H107.938C112.034 42.864 115.127 41.9893 117.218 40.24C119.351 38.4907 120.418 36.016 120.418 32.816C120.418 29.616 119.351 27.1413 117.218 25.392C115.127 23.6427 112.034 22.768 107.938 22.768H94.1775L97.0575 19.568V46.064ZM142.044 36.528H165.084V41.968H142.044V36.528ZM142.62 56.432H168.732V62H136.22V17.2H167.836V22.768H142.62V56.432ZM179.095 62V17.2H196.567C200.492 17.2 203.842 17.8187 206.615 19.056C209.388 20.2933 211.522 22.0853 213.015 24.432C214.508 26.7787 215.255 29.5733 215.255 32.816C215.255 36.0587 214.508 38.8533 213.015 41.2C211.522 43.504 209.388 45.2747 206.615 46.512C203.842 47.7493 200.492 48.368 196.567 48.368H182.615L185.495 45.424V62H179.095ZM209.047 62L197.655 45.744H204.503L216.023 62H209.047ZM185.495 46.064L182.615 42.928H196.375C200.471 42.928 203.564 42.0533 205.655 40.304C207.788 38.512 208.855 36.016 208.855 32.816C208.855 29.616 207.788 27.1413 205.655 25.392C203.564 23.6427 200.471 22.768 196.375 22.768H182.615L185.495 19.568V46.064ZM225.595 62V17.2H231.995V62H225.595ZM251.232 36.528H274.272V41.968H251.232V36.528ZM251.808 56.432H277.92V62H245.408V17.2H277.024V22.768H251.808V56.432ZM288.283 62V17.2H293.531L323.163 54H320.411V17.2H326.811V62H321.562L291.931 25.2H294.683V62H288.283ZM360.252 62.512C356.839 62.512 353.681 61.9573 350.78 60.848C347.921 59.696 345.425 58.096 343.292 56.048C341.201 53.9573 339.559 51.5253 338.364 48.752C337.169 45.9787 336.572 42.928 336.572 39.6C336.572 36.272 337.169 33.2213 338.364 30.448C339.559 27.6747 341.223 25.264 343.356 23.216C345.489 21.1253 347.985 19.5253 350.844 18.416C353.745 17.264 356.903 16.688 360.316 16.688C363.772 16.688 366.951 17.2853 369.852 18.48C372.796 19.632 375.292 21.36 377.34 23.664L373.18 27.696C371.473 25.904 369.553 24.5813 367.42 23.728C365.287 22.832 363.004 22.384 360.572 22.384C358.055 22.384 355.708 22.8107 353.532 23.664C351.399 24.5173 349.543 25.712 347.964 27.248C346.385 28.784 345.148 30.6187 344.252 32.752C343.399 34.8427 342.972 37.1253 342.972 39.6C342.972 42.0747 343.399 44.3787 344.252 46.512C345.148 48.6027 346.385 50.416 347.964 51.952C349.543 53.488 351.399 54.6827 353.532 55.536C355.708 56.3893 358.055 56.816 360.572 56.816C363.004 56.816 365.287 56.3893 367.42 55.536C369.553 54.64 371.473 53.2747 373.18 51.44L377.34 55.472C375.292 57.776 372.796 59.5253 369.852 60.72C366.951 61.9147 363.751 62.512 360.252 62.512ZM392.294 36.528H415.334V41.968H392.294V36.528ZM392.87 56.432H418.982V62H386.47V17.2H418.086V22.768H392.87V56.432Z" fill="white"/>
<path d="M491.56 62.512C488.531 62.512 485.843 62.0213 483.496 61.04C481.149 60.0587 479.293 58.6933 477.928 56.944C476.563 55.1947 475.88 53.168 475.88 50.864C475.88 48.8587 476.328 47.024 477.224 45.36C478.12 43.696 479.549 42.096 481.512 40.56C483.475 38.9813 486.056 37.36 489.256 35.696C491.859 34.3307 493.885 33.136 495.336 32.112C496.829 31.088 497.875 30.128 498.472 29.232C499.112 28.2933 499.432 27.2907 499.432 26.224C499.432 24.7733 498.92 23.6 497.896 22.704C496.872 21.7653 495.4 21.296 493.48 21.296C491.475 21.296 489.896 21.808 488.744 22.832C487.635 23.8133 487.08 25.1147 487.08 26.736C487.08 27.5467 487.208 28.336 487.464 29.104C487.763 29.8293 488.275 30.6613 489 31.6C489.768 32.496 490.856 33.648 492.264 35.056L515.944 58.608L512.488 62.704L487.336 37.68C485.843 36.1867 484.669 34.864 483.816 33.712C482.963 32.5173 482.344 31.3653 481.96 30.256C481.576 29.1467 481.384 28.016 481.384 26.864C481.384 24.8587 481.875 23.1093 482.856 21.616C483.88 20.08 485.288 18.9067 487.08 18.096C488.915 17.2427 491.048 16.816 493.48 16.816C495.741 16.816 497.704 17.2 499.368 17.968C501.032 18.6933 502.312 19.76 503.208 21.168C504.147 22.5333 504.616 24.1973 504.616 26.16C504.616 27.8667 504.189 29.4453 503.336 30.896C502.525 32.3467 501.203 33.7547 499.368 35.12C497.533 36.4853 495.059 37.9573 491.944 39.536C489.384 40.8587 487.379 42.096 485.928 43.248C484.477 44.3573 483.432 45.4667 482.792 46.576C482.195 47.6853 481.896 48.9013 481.896 50.224C481.896 51.632 482.301 52.8907 483.112 54C483.965 55.0667 485.139 55.8987 486.632 56.496C488.168 57.0933 489.939 57.392 491.944 57.392C494.803 57.392 497.384 56.7733 499.688 55.536C501.992 54.2987 503.912 52.4427 505.448 49.968C507.027 47.4933 508.179 44.4213 508.904 40.752L513.832 42.352C512.979 46.6613 511.507 50.3093 509.416 53.296C507.368 56.2827 504.829 58.5653 501.8 60.144C498.771 61.7227 495.357 62.512 491.56 62.512Z" fill="white"/>
</g>
<defs>
<clipPath id="clip0_364_222">
<rect width="943" height="78" fill="white"/>
</clipPath>
</defs>
</svg>
