<svg width="107" height="59" viewBox="0 0 107 59" fill="none" xmlns="http://www.w3.org/2000/svg">
<path d="M32.712 14.576H44.552V18.928H32.712V14.576ZM32.648 25.84H44.424V30.192H32.648V25.84ZM0.264 6.896H32.712V11.184H0.264V6.896ZM16.648 14C19.2507 14 21.5333 14.448 23.496 15.344C25.4587 16.1973 26.9947 17.4133 28.104 18.992C29.2133 20.528 29.768 22.3413 29.768 24.432C29.768 26.5227 29.2133 28.3573 28.104 29.936C26.9947 31.472 25.4587 32.6667 23.496 33.52C21.5333 34.3733 19.2507 34.8 16.648 34.8C14.088 34.8 11.8267 34.3733 9.864 33.52C7.90133 32.6667 6.36533 31.472 5.256 29.936C4.14667 28.3573 3.592 26.5227 3.592 24.432C3.592 22.3413 4.14667 20.528 5.256 18.992C6.36533 17.4133 7.90133 16.1973 9.864 15.344C11.8267 14.448 14.088 14 16.648 14ZM16.648 18.096C14.216 18.096 12.2533 18.672 10.76 19.824C9.30933 20.976 8.584 22.512 8.584 24.432C8.584 26.352 9.30933 27.9093 10.76 29.104C12.2533 30.256 14.216 30.832 16.648 30.832C19.08 30.832 21.0427 30.256 22.536 29.104C24.072 27.9093 24.84 26.352 24.84 24.432C24.84 22.512 24.072 20.976 22.536 19.824C21.0427 18.672 19.08 18.096 16.648 18.096ZM14.088 0.559998H19.336V9.52H14.088V0.559998ZM42.504 1.072H47.816V35.312H42.504V1.072ZM10.376 37.808H15.624V43.76H42.568V37.808H47.816V58.224H10.376V37.808ZM15.624 47.856V54H42.568V47.856H15.624ZM88.131 14.896H103.683V19.248H88.131V14.896ZM74.883 3.76C77.7417 3.76 80.2803 4.336 82.499 5.488C84.7603 6.59733 86.531 8.15466 87.811 10.16C89.091 12.1653 89.731 14.4907 89.731 17.136C89.731 19.7813 89.091 22.128 87.811 24.176C86.531 26.1813 84.7603 27.76 82.499 28.912C80.2803 30.0213 77.7417 30.576 74.883 30.576C71.9817 30.576 69.4003 30.0213 67.139 28.912C64.9203 27.76 63.171 26.1813 61.891 24.176C60.611 22.128 59.971 19.7813 59.971 17.136C59.971 14.4907 60.611 12.1653 61.891 10.16C63.171 8.15466 64.9203 6.59733 67.139 5.488C69.4003 4.336 71.9817 3.76 74.883 3.76ZM74.883 8.24C72.963 8.24 71.2563 8.624 69.763 9.392C68.3123 10.1173 67.1603 11.1627 66.307 12.528C65.4537 13.8507 65.027 15.3867 65.027 17.136C65.027 18.8853 65.4537 20.4427 66.307 21.808C67.1603 23.1307 68.3123 24.176 69.763 24.944C71.2563 25.712 72.963 26.096 74.883 26.096C76.7603 26.096 78.4243 25.712 79.875 24.944C81.3683 24.176 82.5417 23.1307 83.395 21.808C84.2483 20.4427 84.675 18.8853 84.675 17.136C84.675 15.3867 84.2483 13.8507 83.395 12.528C82.5417 11.1627 81.3683 10.1173 79.875 9.392C78.4243 8.624 76.7603 8.24 74.883 8.24ZM101.379 1.072H106.691V32.176H101.379V1.072ZM69.635 35.056H74.883V42.288H101.379V35.056H106.691V58.224H69.635V35.056ZM74.883 46.512V53.872H101.379V46.512H74.883Z" fill="white"/>
</svg>
