<svg width="340" height="49" viewBox="0 0 340 49" fill="none" xmlns="http://www.w3.org/2000/svg">
<path d="M15.616 48V8.768H0.256V3.2H37.312V8.768H21.952V48H15.616ZM54.9905 48.384C51.3638 48.384 48.1638 47.6373 45.3905 46.144C42.6598 44.6507 40.5265 42.6027 38.9905 40C37.4972 37.3973 36.7505 34.4107 36.7505 31.04C36.7505 27.6693 37.4758 24.6827 38.9265 22.08C40.4198 19.4773 42.4465 17.4507 45.0065 16C47.6092 14.5067 50.5318 13.76 53.7745 13.76C57.0598 13.76 59.9612 14.4853 62.4785 15.936C64.9958 17.3867 66.9585 19.4347 68.3665 22.08C69.8172 24.6827 70.5425 27.7333 70.5425 31.232C70.5425 31.488 70.5212 31.7867 70.4785 32.128C70.4785 32.4693 70.4572 32.7893 70.4145 33.088H41.5505V28.672H67.2145L64.7185 30.208C64.7612 28.032 64.3132 26.0907 63.3745 24.384C62.4358 22.6773 61.1345 21.3547 59.4705 20.416C57.8492 19.4347 55.9505 18.944 53.7745 18.944C51.6412 18.944 49.7425 19.4347 48.0785 20.416C46.4145 21.3547 45.1132 22.6987 44.1745 24.448C43.2358 26.1547 42.7665 28.1173 42.7665 30.336V31.36C42.7665 33.6213 43.2785 35.648 44.3025 37.44C45.3692 39.1893 46.8412 40.5547 48.7185 41.536C50.5958 42.5173 52.7505 43.008 55.1825 43.008C57.1878 43.008 59.0012 42.6667 60.6225 41.984C62.2865 41.3013 63.7372 40.2773 64.9745 38.912L68.3665 42.88C66.8305 44.672 64.9105 46.0373 62.6065 46.976C60.3452 47.9147 57.8065 48.384 54.9905 48.384ZM99.1925 48V40.832L98.8725 39.488V27.264C98.8725 24.6613 98.1045 22.656 96.5685 21.248C95.0752 19.7973 92.8138 19.072 89.7845 19.072C87.7792 19.072 85.8165 19.4133 83.8965 20.096C81.9765 20.736 80.3552 21.6107 79.0325 22.72L76.4725 18.112C78.2218 16.704 80.3125 15.6373 82.7445 14.912C85.2192 14.144 87.8005 13.76 90.4885 13.76C95.1392 13.76 98.7232 14.8907 101.241 17.152C103.758 19.4133 105.017 22.8693 105.017 27.52V48H99.1925ZM88.0565 48.384C85.5392 48.384 83.3205 47.9573 81.4005 47.104C79.5232 46.2507 78.0725 45.0773 77.0485 43.584C76.0245 42.048 75.5125 40.32 75.5125 38.4C75.5125 36.5653 75.9392 34.9013 76.7925 33.408C77.6885 31.9147 79.1178 30.72 81.0805 29.824C83.0858 28.928 85.7738 28.48 89.1445 28.48H99.8965V32.896H89.4005C86.3285 32.896 84.2592 33.408 83.1925 34.432C82.1258 35.456 81.5925 36.6933 81.5925 38.144C81.5925 39.808 82.2538 41.152 83.5765 42.176C84.8992 43.1573 86.7338 43.648 89.0805 43.648C91.3845 43.648 93.3898 43.136 95.0965 42.112C96.8458 41.088 98.1045 39.5947 98.8725 37.632L100.089 41.856C99.2778 43.8613 97.8485 45.4613 95.8005 46.656C93.7525 47.808 91.1712 48.384 88.0565 48.384ZM158.819 13.76C161.549 13.76 163.96 14.2933 166.051 15.36C168.141 16.4267 169.763 18.048 170.915 20.224C172.109 22.4 172.707 25.152 172.707 28.48V48H166.563V29.184C166.563 25.8987 165.795 23.424 164.259 21.76C162.723 20.096 160.568 19.264 157.795 19.264C155.747 19.264 153.955 19.6907 152.419 20.544C150.883 21.3973 149.688 22.656 148.835 24.32C148.024 25.984 147.619 28.0533 147.619 30.528V48H141.475V29.184C141.475 25.8987 140.707 23.424 139.171 21.76C137.677 20.096 135.523 19.264 132.707 19.264C130.701 19.264 128.931 19.6907 127.395 20.544C125.859 21.3973 124.664 22.656 123.811 24.32C122.957 25.984 122.531 28.0533 122.531 30.528V48H116.387V14.08H122.275V23.104L121.315 20.8C122.381 18.5813 124.024 16.8533 126.243 15.616C128.461 14.3787 131.043 13.76 133.987 13.76C137.229 13.76 140.024 14.5707 142.371 16.192C144.717 17.7707 146.253 20.1813 146.979 23.424L144.483 22.4C145.507 19.7973 147.299 17.7067 149.859 16.128C152.419 14.5493 155.405 13.76 158.819 13.76ZM190.555 48L177.947 14.08H183.771L194.971 44.8H192.219L203.867 14.08H209.051L220.443 44.8H217.755L229.211 14.08H234.715L222.043 48H216.155L205.467 19.968H207.259L196.443 48H190.555ZM254.54 48.384C251.126 48.384 248.097 47.6373 245.452 46.144C242.806 44.6507 240.716 42.6027 239.18 40C237.644 37.3547 236.876 34.368 236.876 31.04C236.876 27.6693 237.644 24.6827 239.18 22.08C240.716 19.4773 242.806 17.4507 245.452 16C248.097 14.5067 251.126 13.76 254.54 13.76C257.91 13.76 260.918 14.5067 263.564 16C266.252 17.4507 268.342 19.4773 269.836 22.08C271.372 24.64 272.14 27.6267 272.14 31.04C272.14 34.4107 271.372 37.3973 269.836 40C268.342 42.6027 266.252 44.6507 263.564 46.144C260.918 47.6373 257.91 48.384 254.54 48.384ZM254.54 43.008C256.716 43.008 258.657 42.5173 260.364 41.536C262.113 40.5547 263.478 39.168 264.46 37.376C265.441 35.5413 265.932 33.4293 265.932 31.04C265.932 28.608 265.441 26.5173 264.46 24.768C263.478 22.976 262.113 21.5893 260.364 20.608C258.657 19.6267 256.716 19.136 254.54 19.136C252.364 19.136 250.422 19.6267 248.716 20.608C247.009 21.5893 245.644 22.976 244.62 24.768C243.596 26.5173 243.084 28.608 243.084 31.04C243.084 33.4293 243.596 35.5413 244.62 37.376C245.644 39.168 247.009 40.5547 248.716 41.536C250.422 42.5173 252.364 43.008 254.54 43.008ZM280.637 48V14.08H286.525V23.296L285.949 20.992C286.887 18.6453 288.466 16.8533 290.685 15.616C292.903 14.3787 295.634 13.76 298.877 13.76V19.712C298.621 19.6693 298.365 19.648 298.109 19.648C297.895 19.648 297.682 19.648 297.469 19.648C294.183 19.648 291.581 20.6293 289.661 22.592C287.741 24.5547 286.781 27.392 286.781 31.104V48H280.637ZM311.441 39.808L311.569 31.936L331.089 14.08H338.513L323.537 28.8L320.209 31.616L311.441 39.808ZM306.449 48V0.511997H312.593V48H306.449ZM332.369 48L319.057 31.488L323.025 26.56L339.921 48H332.369Z" fill="white"/>
</svg>
