<svg width="556" height="62" viewBox="0 0 556 62" fill="none" xmlns="http://www.w3.org/2000/svg">
<path d="M23.752 49.512C20.3387 49.512 17.1813 48.9573 14.28 47.848C11.4213 46.696 8.92533 45.096 6.792 43.048C4.70133 40.9573 3.05867 38.5253 1.864 35.752C0.669333 32.9787 0.072 29.928 0.072 26.6C0.072 23.272 0.669333 20.2213 1.864 17.448C3.05867 14.6747 4.72267 12.264 6.856 10.216C8.98933 8.12533 11.4853 6.52533 14.344 5.416C17.2453 4.264 20.4027 3.688 23.816 3.688C27.272 3.688 30.4507 4.28533 33.352 5.48C36.296 6.632 38.792 8.36 40.84 10.664L36.68 14.696C34.9733 12.904 33.0533 11.5813 30.92 10.728C28.7867 9.832 26.504 9.384 24.072 9.384C21.5547 9.384 19.208 9.81067 17.032 10.664C14.8987 11.5173 13.0427 12.712 11.464 14.248C9.88533 15.784 8.648 17.6187 7.752 19.752C6.89867 21.8427 6.472 24.1253 6.472 26.6C6.472 29.0747 6.89867 31.3787 7.752 33.512C8.648 35.6027 9.88533 37.416 11.464 38.952C13.0427 40.488 14.8987 41.6827 17.032 42.536C19.208 43.3893 21.5547 43.816 24.072 43.816C26.504 43.816 28.7867 43.3893 30.92 42.536C33.0533 41.64 34.9733 40.2747 36.68 38.44L40.84 42.472C38.792 44.776 36.296 46.5253 33.352 47.72C30.4507 48.9147 27.2507 49.512 23.752 49.512ZM67.186 14.76C69.9593 14.76 72.3913 15.2933 74.482 16.36C76.6153 17.4267 78.2793 19.048 79.474 21.224C80.6687 23.4 81.266 26.152 81.266 29.48V49H75.122V30.184C75.122 26.8987 74.3113 24.424 72.69 22.76C71.1113 21.096 68.8713 20.264 65.97 20.264C63.794 20.264 61.8953 20.6907 60.274 21.544C58.6527 22.3973 57.394 23.656 56.498 25.32C55.6447 26.984 55.218 29.0533 55.218 31.528V49H49.074V1.512H55.218V24.232L54.002 21.8C55.1113 19.5813 56.818 17.8533 59.122 16.616C61.426 15.3787 64.114 14.76 67.186 14.76ZM113.693 49V41.832L113.373 40.488V28.264C113.373 25.6613 112.605 23.656 111.069 22.248C109.575 20.7973 107.314 20.072 104.285 20.072C102.279 20.072 100.317 20.4133 98.3965 21.096C96.4765 21.736 94.8552 22.6107 93.5325 23.72L90.9725 19.112C92.7218 17.704 94.8125 16.6373 97.2445 15.912C99.7192 15.144 102.301 14.76 104.989 14.76C109.639 14.76 113.223 15.8907 115.741 18.152C118.258 20.4133 119.517 23.8693 119.517 28.52V49H113.693ZM102.557 49.384C100.039 49.384 97.8205 48.9573 95.9005 48.104C94.0232 47.2507 92.5725 46.0773 91.5485 44.584C90.5245 43.048 90.0125 41.32 90.0125 39.4C90.0125 37.5653 90.4392 35.9013 91.2925 34.408C92.1885 32.9147 93.6178 31.72 95.5805 30.824C97.5858 29.928 100.274 29.48 103.645 29.48H114.397V33.896H103.901C100.829 33.896 98.7592 34.408 97.6925 35.432C96.6258 36.456 96.0925 37.6933 96.0925 39.144C96.0925 40.808 96.7538 42.152 98.0765 43.176C99.3992 44.1573 101.234 44.648 103.581 44.648C105.885 44.648 107.89 44.136 109.597 43.112C111.346 42.088 112.605 40.5947 113.373 38.632L114.589 42.856C113.778 44.8613 112.349 46.4613 110.301 47.656C108.253 48.808 105.671 49.384 102.557 49.384ZM130.887 49V15.08H136.775V24.296L136.199 21.992C137.137 19.6453 138.716 17.8533 140.935 16.616C143.153 15.3787 145.884 14.76 149.127 14.76V20.712C148.871 20.6693 148.615 20.648 148.359 20.648C148.145 20.648 147.932 20.648 147.719 20.648C144.433 20.648 141.831 21.6293 139.911 23.592C137.991 25.5547 137.031 28.392 137.031 32.104V49H130.887ZM175.255 49V41.832L174.935 40.488V28.264C174.935 25.6613 174.167 23.656 172.631 22.248C171.138 20.7973 168.876 20.072 165.847 20.072C163.842 20.072 161.879 20.4133 159.959 21.096C158.039 21.736 156.418 22.6107 155.095 23.72L152.535 19.112C154.284 17.704 156.375 16.6373 158.807 15.912C161.282 15.144 163.863 14.76 166.551 14.76C171.202 14.76 174.786 15.8907 177.303 18.152C179.82 20.4133 181.079 23.8693 181.079 28.52V49H175.255ZM164.119 49.384C161.602 49.384 159.383 48.9573 157.463 48.104C155.586 47.2507 154.135 46.0773 153.111 44.584C152.087 43.048 151.575 41.32 151.575 39.4C151.575 37.5653 152.002 35.9013 152.855 34.408C153.751 32.9147 155.18 31.72 157.143 30.824C159.148 29.928 161.836 29.48 165.207 29.48H175.959V33.896H165.463C162.391 33.896 160.322 34.408 159.255 35.432C158.188 36.456 157.655 37.6933 157.655 39.144C157.655 40.808 158.316 42.152 159.639 43.176C160.962 44.1573 162.796 44.648 165.143 44.648C167.447 44.648 169.452 44.136 171.159 43.112C172.908 42.088 174.167 40.5947 174.935 38.632L176.151 42.856C175.34 44.8613 173.911 46.4613 171.863 47.656C169.815 48.808 167.234 49.384 164.119 49.384ZM207.233 49.384C203.777 49.384 200.684 48.6373 197.953 47.144C195.265 45.6507 193.153 43.6027 191.617 41C190.081 38.3973 189.313 35.4107 189.313 32.04C189.313 28.6693 190.081 25.6827 191.617 23.08C193.153 20.4773 195.265 18.4507 197.953 17C200.684 15.5067 203.777 14.76 207.233 14.76C210.305 14.76 213.036 15.3787 215.425 16.616C217.857 17.8107 219.734 19.6027 221.057 21.992L216.385 25C215.276 23.336 213.91 22.12 212.289 21.352C210.71 20.5413 209.004 20.136 207.169 20.136C204.95 20.136 202.966 20.6267 201.217 21.608C199.468 22.5893 198.081 23.976 197.057 25.768C196.033 27.5173 195.521 29.608 195.521 32.04C195.521 34.472 196.033 36.584 197.057 38.376C198.081 40.168 199.468 41.5547 201.217 42.536C202.966 43.5173 204.95 44.008 207.169 44.008C209.004 44.008 210.71 43.624 212.289 42.856C213.91 42.0453 215.276 40.808 216.385 39.144L221.057 42.088C219.734 44.4347 217.857 46.248 215.425 47.528C213.036 48.7653 210.305 49.384 207.233 49.384ZM241.097 49.384C237.684 49.384 235.038 48.4667 233.161 46.632C231.284 44.7973 230.345 42.1733 230.345 38.76V7.656H236.489V38.504C236.489 40.3387 236.937 41.7467 237.833 42.728C238.772 43.7093 240.094 44.2 241.801 44.2C243.721 44.2 245.321 43.6667 246.601 42.6L248.521 47.016C247.582 47.8267 246.452 48.424 245.129 48.808C243.849 49.192 242.505 49.384 241.097 49.384ZM224.585 20.136V15.08H246.217V20.136H224.585ZM269.928 49.384C266.301 49.384 263.101 48.6373 260.328 47.144C257.597 45.6507 255.464 43.6027 253.928 41C252.435 38.3973 251.688 35.4107 251.688 32.04C251.688 28.6693 252.413 25.6827 253.864 23.08C255.357 20.4773 257.384 18.4507 259.944 17C262.547 15.5067 265.469 14.76 268.712 14.76C271.997 14.76 274.899 15.4853 277.416 16.936C279.933 18.3867 281.896 20.4347 283.304 23.08C284.755 25.6827 285.48 28.7333 285.48 32.232C285.48 32.488 285.459 32.7867 285.416 33.128C285.416 33.4693 285.395 33.7893 285.352 34.088H256.488V29.672H282.152L279.656 31.208C279.699 29.032 279.251 27.0907 278.312 25.384C277.373 23.6773 276.072 22.3547 274.408 21.416C272.787 20.4347 270.888 19.944 268.712 19.944C266.579 19.944 264.68 20.4347 263.016 21.416C261.352 22.3547 260.051 23.6987 259.112 25.448C258.173 27.1547 257.704 29.1173 257.704 31.336V32.36C257.704 34.6213 258.216 36.648 259.24 38.44C260.307 40.1893 261.779 41.5547 263.656 42.536C265.533 43.5173 267.688 44.008 270.12 44.008C272.125 44.008 273.939 43.6667 275.56 42.984C277.224 42.3013 278.675 41.2773 279.912 39.912L283.304 43.88C281.768 45.672 279.848 47.0373 277.544 47.976C275.283 48.9147 272.744 49.384 269.928 49.384ZM294.012 49V15.08H299.9V24.296L299.324 21.992C300.262 19.6453 301.841 17.8533 304.06 16.616C306.278 15.3787 309.009 14.76 312.252 14.76V20.712C311.996 20.6693 311.74 20.648 311.484 20.648C311.27 20.648 311.057 20.648 310.844 20.648C307.558 20.648 304.956 21.6293 303.036 23.592C301.116 25.5547 300.156 28.392 300.156 32.104V49H294.012ZM338.345 49V4.2H357.225C362.004 4.2 366.206 5.13866 369.833 7.016C373.502 8.89333 376.34 11.5173 378.345 14.888C380.393 18.2587 381.417 22.1627 381.417 26.6C381.417 31.0373 380.393 34.9413 378.345 38.312C376.34 41.6827 373.502 44.3067 369.833 46.184C366.206 48.0613 362.004 49 357.225 49H338.345ZM344.745 43.432H356.841C360.553 43.432 363.753 42.728 366.441 41.32C369.172 39.912 371.284 37.9493 372.777 35.432C374.27 32.872 375.017 29.928 375.017 26.6C375.017 23.2293 374.27 20.2853 372.777 17.768C371.284 15.2507 369.172 13.288 366.441 11.88C363.753 10.472 360.553 9.768 356.841 9.768H344.745V43.432ZM405.428 49.384C401.801 49.384 398.601 48.6373 395.828 47.144C393.097 45.6507 390.964 43.6027 389.428 41C387.935 38.3973 387.188 35.4107 387.188 32.04C387.188 28.6693 387.913 25.6827 389.364 23.08C390.857 20.4773 392.884 18.4507 395.444 17C398.047 15.5067 400.969 14.76 404.212 14.76C407.497 14.76 410.399 15.4853 412.916 16.936C415.433 18.3867 417.396 20.4347 418.804 23.08C420.255 25.6827 420.98 28.7333 420.98 32.232C420.98 32.488 420.959 32.7867 420.916 33.128C420.916 33.4693 420.895 33.7893 420.852 34.088H391.988V29.672H417.652L415.156 31.208C415.199 29.032 414.751 27.0907 413.812 25.384C412.873 23.6773 411.572 22.3547 409.908 21.416C408.287 20.4347 406.388 19.944 404.212 19.944C402.079 19.944 400.18 20.4347 398.516 21.416C396.852 22.3547 395.551 23.6987 394.612 25.448C393.673 27.1547 393.204 29.1173 393.204 31.336V32.36C393.204 34.6213 393.716 36.648 394.74 38.44C395.807 40.1893 397.279 41.5547 399.156 42.536C401.033 43.5173 403.188 44.008 405.62 44.008C407.625 44.008 409.439 43.6667 411.06 42.984C412.724 42.3013 414.175 41.2773 415.412 39.912L418.804 43.88C417.268 45.672 415.348 47.0373 413.044 47.976C410.783 48.9147 408.244 49.384 405.428 49.384ZM439.24 49.384C436.424 49.384 433.736 49 431.176 48.232C428.658 47.464 426.674 46.5253 425.224 45.416L427.784 40.552C429.234 41.5333 431.026 42.3653 433.16 43.048C435.293 43.7307 437.469 44.072 439.688 44.072C442.546 44.072 444.594 43.6667 445.832 42.856C447.112 42.0453 447.752 40.9147 447.752 39.464C447.752 38.3973 447.368 37.5653 446.6 36.968C445.832 36.3707 444.808 35.9227 443.528 35.624C442.29 35.3253 440.904 35.0693 439.368 34.856C437.832 34.6 436.296 34.3013 434.76 33.96C433.224 33.576 431.816 33.064 430.536 32.424C429.256 31.7413 428.232 30.824 427.464 29.672C426.696 28.4773 426.312 26.8987 426.312 24.936C426.312 22.888 426.888 21.096 428.04 19.56C429.192 18.024 430.813 16.8507 432.904 16.04C435.037 15.1867 437.554 14.76 440.456 14.76C442.674 14.76 444.914 15.0373 447.176 15.592C449.48 16.104 451.357 16.8507 452.808 17.832L450.184 22.696C448.648 21.672 447.048 20.968 445.384 20.584C443.72 20.2 442.056 20.008 440.392 20.008C437.704 20.008 435.698 20.456 434.376 21.352C433.053 22.2053 432.392 23.3147 432.392 24.68C432.392 25.832 432.776 26.728 433.544 27.368C434.354 27.9653 435.378 28.4347 436.616 28.776C437.896 29.1173 439.304 29.416 440.84 29.672C442.376 29.8853 443.912 30.184 445.448 30.568C446.984 30.9093 448.37 31.4 449.608 32.04C450.888 32.68 451.912 33.576 452.68 34.728C453.49 35.88 453.896 37.416 453.896 39.336C453.896 41.384 453.298 43.1547 452.104 44.648C450.909 46.1413 449.224 47.3147 447.048 48.168C444.872 48.9787 442.269 49.384 439.24 49.384ZM461.574 49V15.08H467.718V49H461.574ZM464.646 8.552C463.451 8.552 462.449 8.168 461.638 7.4C460.87 6.632 460.486 5.69333 460.486 4.584C460.486 3.432 460.87 2.472 461.638 1.704C462.449 0.935998 463.451 0.551998 464.646 0.551998C465.841 0.551998 466.822 0.935998 467.59 1.704C468.401 2.42933 468.806 3.34666 468.806 4.456C468.806 5.608 468.422 6.58933 467.654 7.4C466.886 8.168 465.883 8.552 464.646 8.552ZM494.297 61.8C491.182 61.8 488.153 61.352 485.209 60.456C482.308 59.6027 479.94 58.3653 478.105 56.744L481.049 52.008C482.628 53.3733 484.569 54.44 486.873 55.208C489.177 56.0187 491.588 56.424 494.105 56.424C498.116 56.424 501.06 55.4853 502.937 53.608C504.814 51.7307 505.753 48.872 505.753 45.032V37.864L506.393 31.144L506.073 24.36V15.08H511.897V44.392C511.897 50.3653 510.404 54.76 507.417 57.576C504.43 60.392 500.057 61.8 494.297 61.8ZM493.529 47.592C490.244 47.592 487.3 46.9093 484.697 45.544C482.137 44.136 480.089 42.1947 478.553 39.72C477.06 37.2453 476.313 34.3867 476.313 31.144C476.313 27.8587 477.06 25 478.553 22.568C480.089 20.0933 482.137 18.1733 484.697 16.808C487.3 15.4427 490.244 14.76 493.529 14.76C496.43 14.76 499.076 15.3573 501.465 16.552C503.854 17.704 505.753 19.496 507.161 21.928C508.612 24.36 509.337 27.432 509.337 31.144C509.337 34.8133 508.612 37.864 507.161 40.296C505.753 42.728 503.854 44.5627 501.465 45.8C499.076 46.9947 496.43 47.592 493.529 47.592ZM494.233 42.216C496.494 42.216 498.5 41.7467 500.249 40.808C501.998 39.8693 503.364 38.568 504.345 36.904C505.369 35.24 505.881 33.32 505.881 31.144C505.881 28.968 505.369 27.048 504.345 25.384C503.364 23.72 501.998 22.44 500.249 21.544C498.5 20.6053 496.494 20.136 494.233 20.136C491.972 20.136 489.945 20.6053 488.153 21.544C486.404 22.44 485.017 23.72 483.993 25.384C483.012 27.048 482.521 28.968 482.521 31.144C482.521 33.32 483.012 35.24 483.993 36.904C485.017 38.568 486.404 39.8693 488.153 40.808C489.945 41.7467 491.972 42.216 494.233 42.216ZM541.749 14.76C544.522 14.76 546.954 15.2933 549.045 16.36C551.178 17.4267 552.842 19.048 554.037 21.224C555.231 23.4 555.829 26.152 555.829 29.48V49H549.685V30.184C549.685 26.8987 548.874 24.424 547.253 22.76C545.674 21.096 543.434 20.264 540.533 20.264C538.357 20.264 536.458 20.6907 534.837 21.544C533.215 22.3973 531.957 23.656 531.061 25.32C530.207 26.984 529.781 29.0533 529.781 31.528V49H523.637V15.08H529.525V24.232L528.565 21.8C529.674 19.5813 531.381 17.8533 533.685 16.616C535.989 15.3787 538.677 14.76 541.749 14.76Z" fill="white"/>
</svg>
