<svg width="943" height="78" viewBox="0 0 943 78" fill="none" xmlns="http://www.w3.org/2000/svg">
<g clip-path="url(#clip0_364_144)">
<path d="M309.624 11.12H314.296V14.384C314.296 16.6027 313.869 18.6933 313.016 20.656C312.163 22.576 310.989 24.3467 309.496 25.968C308.045 27.5893 306.339 29.04 304.376 30.32C302.413 31.6 300.28 32.6667 297.976 33.52C295.715 34.3733 293.389 34.992 291 35.376L288.824 31.088C290.957 30.7893 293.027 30.2773 295.032 29.552C297.08 28.8267 298.979 27.952 300.728 26.928C302.477 25.8613 304.013 24.6667 305.336 23.344C306.701 22.0213 307.747 20.6133 308.472 19.12C309.24 17.584 309.624 16.0053 309.624 14.384V11.12ZM310.52 11.12H315.128V14.384C315.128 16.0053 315.512 17.5627 316.28 19.056C317.048 20.5493 318.093 21.9573 319.416 23.28C320.781 24.6027 322.339 25.7973 324.088 26.864C325.837 27.9307 327.715 28.8267 329.72 29.552C331.768 30.2773 333.837 30.7893 335.928 31.088L333.816 35.376C331.427 34.992 329.101 34.3733 326.84 33.52C324.579 32.624 322.445 31.536 320.44 30.256C318.477 28.976 316.749 27.5253 315.256 25.904C313.805 24.2827 312.653 22.512 311.8 20.592C310.947 18.6293 310.52 16.56 310.52 14.384V11.12ZM309.624 44.976H314.872V66.992H309.624V44.976ZM286.2 41.648H338.488V46.064H286.2V41.648ZM357.939 28.72H363.251V39.6H357.939V28.72ZM379.187 28.72H384.435V39.6H379.187V28.72ZM345.075 37.68H397.363V41.968H345.075V37.68ZM371.187 46.384C377.374 46.384 382.216 47.2587 385.715 49.008C389.214 50.7573 390.963 53.2747 390.963 56.56C390.963 59.888 389.214 62.4267 385.715 64.176C382.216 65.968 377.374 66.864 371.187 66.864C365 66.864 360.136 65.968 356.595 64.176C353.096 62.4267 351.347 59.888 351.347 56.56C351.347 53.2747 353.096 50.7573 356.595 49.008C360.136 47.2587 365 46.384 371.187 46.384ZM371.187 50.48C368.158 50.48 365.555 50.7147 363.379 51.184C361.246 51.6533 359.603 52.3573 358.451 53.296C357.299 54.192 356.723 55.28 356.723 56.56C356.723 57.9253 357.299 59.0773 358.451 60.016C359.603 60.912 361.246 61.5947 363.379 62.064C365.555 62.5333 368.158 62.768 371.187 62.768C374.216 62.768 376.798 62.5333 378.931 62.064C381.107 61.5947 382.771 60.912 383.923 60.016C385.075 59.0773 385.651 57.9253 385.651 56.56C385.651 55.28 385.075 54.192 383.923 53.296C382.771 52.3573 381.107 51.6533 378.931 51.184C376.798 50.7147 374.216 50.48 371.187 50.48ZM371.187 10.16C375.368 10.16 378.974 10.5867 382.003 11.44C385.075 12.2933 387.422 13.5307 389.043 15.152C390.707 16.7307 391.539 18.6507 391.539 20.912C391.539 23.1307 390.707 25.0507 389.043 26.672C387.422 28.2933 385.075 29.5307 382.003 30.384C378.974 31.1947 375.368 31.6 371.187 31.6C367.006 31.6 363.379 31.1947 360.307 30.384C357.278 29.5307 354.931 28.2933 353.267 26.672C351.646 25.0507 350.835 23.1307 350.835 20.912C350.835 18.6507 351.646 16.7307 353.267 15.152C354.931 13.5307 357.278 12.2933 360.307 11.44C363.379 10.5867 367.006 10.16 371.187 10.16ZM371.187 14.32C368.158 14.32 365.512 14.576 363.251 15.088C361.032 15.6 359.304 16.3467 358.067 17.328C356.872 18.3093 356.275 19.504 356.275 20.912C356.275 22.2773 356.872 23.472 358.067 24.496C359.304 25.4773 361.032 26.224 363.251 26.736C365.512 27.248 368.158 27.504 371.187 27.504C374.302 27.504 376.968 27.248 379.187 26.736C381.406 26.224 383.112 25.4773 384.307 24.496C385.502 23.472 386.099 22.2773 386.099 20.912C386.099 19.504 385.502 18.3093 384.307 17.328C383.112 16.3467 381.406 15.6 379.187 15.088C376.968 14.576 374.302 14.32 371.187 14.32Z" fill="white"/>
<path d="M457.72 62V17.2H476.6C481.379 17.2 485.581 18.1387 489.208 20.016C492.877 21.8933 495.715 24.5173 497.72 27.888C499.768 31.2587 500.792 35.1627 500.792 39.6C500.792 44.0373 499.768 47.9413 497.72 51.312C495.715 54.6827 492.877 57.3067 489.208 59.184C485.581 61.0613 481.379 62 476.6 62H457.72ZM464.12 56.432H476.216C479.928 56.432 483.128 55.728 485.816 54.32C488.547 52.912 490.659 50.9493 492.152 48.432C493.645 45.872 494.392 42.928 494.392 39.6C494.392 36.2293 493.645 33.2853 492.152 30.768C490.659 28.2507 488.547 26.288 485.816 24.88C483.128 23.472 479.928 22.768 476.216 22.768H464.12V56.432ZM516.419 36.528H539.459V41.968H516.419V36.528ZM516.995 56.432H543.107V62H510.595V17.2H542.211V22.768H516.995V56.432ZM566.526 62.512C563.113 62.512 559.849 62 556.734 60.976C553.619 59.9093 551.166 58.544 549.374 56.88L551.742 51.888C553.449 53.3813 555.625 54.6187 558.27 55.6C560.915 56.5813 563.667 57.072 566.526 57.072C569.129 57.072 571.241 56.7733 572.862 56.176C574.483 55.5787 575.678 54.768 576.446 53.744C577.214 52.6773 577.598 51.4827 577.598 50.16C577.598 48.624 577.086 47.3867 576.062 46.448C575.081 45.5093 573.779 44.7627 572.158 44.208C570.579 43.6107 568.83 43.0987 566.91 42.672C564.99 42.2453 563.049 41.7547 561.086 41.2C559.166 40.6027 557.395 39.856 555.774 38.96C554.195 38.064 552.915 36.8693 551.934 35.376C550.953 33.84 550.462 31.8773 550.462 29.488C550.462 27.184 551.059 25.072 552.254 23.152C553.491 21.1893 555.369 19.632 557.886 18.48C560.446 17.2853 563.689 16.688 567.614 16.688C570.217 16.688 572.798 17.0293 575.358 17.712C577.918 18.3947 580.137 19.376 582.014 20.656L579.902 25.776C577.982 24.496 575.955 23.5787 573.822 23.024C571.689 22.4267 569.619 22.128 567.614 22.128C565.097 22.128 563.027 22.448 561.406 23.088C559.785 23.728 558.59 24.5813 557.822 25.648C557.097 26.7147 556.734 27.9093 556.734 29.232C556.734 30.8107 557.225 32.0693 558.206 33.008C559.23 33.9467 560.531 34.6933 562.11 35.248C563.731 35.8027 565.502 36.3147 567.422 36.784C569.342 37.2107 571.262 37.7013 573.182 38.256C575.145 38.8107 576.915 39.536 578.494 40.432C580.115 41.328 581.417 42.5227 582.398 44.016C583.379 45.5093 583.87 47.4293 583.87 49.776C583.87 52.0373 583.251 54.1493 582.014 56.112C580.777 58.032 578.857 59.5893 576.254 60.784C573.694 61.936 570.451 62.512 566.526 62.512ZM593.22 62V17.2H599.62V62H593.22ZM633.257 62.512C629.801 62.512 626.622 61.9573 623.721 60.848C620.819 59.696 618.302 58.096 616.169 56.048C614.035 53.9573 612.371 51.5253 611.177 48.752C609.982 45.9787 609.385 42.928 609.385 39.6C609.385 36.272 609.982 33.2213 611.177 30.448C612.371 27.6747 614.035 25.264 616.169 23.216C618.345 21.1253 620.883 19.5253 623.785 18.416C626.686 17.264 629.886 16.688 633.385 16.688C636.926 16.688 640.169 17.264 643.113 18.416C646.057 19.568 648.553 21.296 650.601 23.6L646.633 27.568C644.798 25.776 642.793 24.4747 640.617 23.664C638.483 22.8107 636.158 22.384 633.641 22.384C631.081 22.384 628.691 22.8107 626.473 23.664C624.297 24.5173 622.398 25.712 620.777 27.248C619.198 28.784 617.961 30.6187 617.065 32.752C616.211 34.8427 615.785 37.1253 615.785 39.6C615.785 42.032 616.211 44.3147 617.065 46.448C617.961 48.5387 619.198 50.3733 620.777 51.952C622.398 53.488 624.297 54.6827 626.473 55.536C628.649 56.3893 631.017 56.816 633.577 56.816C635.966 56.816 638.249 56.4533 640.425 55.728C642.643 54.96 644.691 53.7013 646.569 51.952L650.217 56.816C647.998 58.6933 645.395 60.1227 642.409 61.104C639.465 62.0427 636.414 62.512 633.257 62.512ZM644.073 55.984V39.344H650.217V56.816L644.073 55.984ZM662.47 62V17.2H667.718L697.35 54H694.598V17.2H700.998V62H695.75L666.118 25.2H668.87V62H662.47Z" fill="white"/>
<path d="M858.72 62V17.2H878.816C883.979 17.2 887.947 18.2453 890.72 20.336C893.493 22.384 894.88 25.2 894.88 28.784C894.88 31.216 894.325 33.264 893.216 34.928C892.149 36.592 890.699 37.872 888.864 38.768C887.029 39.664 885.045 40.112 882.912 40.112L884.064 38.192C886.624 38.192 888.885 38.64 890.848 39.536C892.811 40.432 894.368 41.7547 895.52 43.504C896.672 45.2107 897.248 47.344 897.248 49.904C897.248 53.744 895.797 56.7307 892.896 58.864C890.037 60.9547 885.771 62 880.096 62H858.72ZM865.12 56.816H879.84C883.381 56.816 886.091 56.2187 887.968 55.024C889.845 53.8293 890.784 51.952 890.784 49.392C890.784 46.7893 889.845 44.8907 887.968 43.696C886.091 42.5013 883.381 41.904 879.84 41.904H864.544V36.72H878.24C881.483 36.72 884 36.1227 885.792 34.928C887.584 33.7333 888.48 31.9413 888.48 29.552C888.48 27.1627 887.584 25.3707 885.792 24.176C884 22.9813 881.483 22.384 878.24 22.384H865.12V56.816ZM900.645 62L919.269 36.592V41.52L901.669 17.2H908.965L922.917 36.336L920.037 36.4L933.925 17.2H940.901L923.429 41.136V36.528L942.053 62H934.693L919.845 41.584H922.661L908.005 62H900.645Z" fill="white"/>
<path d="M12.48 38.384H35.584V43.888H12.48V38.384ZM13.12 62H6.72V17.2H38.336V22.768H13.12V62ZM46.449 62V14.512H52.593V62H46.449ZM78.852 62.384C75.4387 62.384 72.4093 61.6373 69.764 60.144C67.1187 58.6507 65.028 56.6027 63.492 54C61.956 51.3547 61.188 48.368 61.188 45.04C61.188 41.6693 61.956 38.6827 63.492 36.08C65.028 33.4773 67.1187 31.4507 69.764 30C72.4093 28.5067 75.4387 27.76 78.852 27.76C82.2227 27.76 85.2307 28.5067 87.876 30C90.564 31.4507 92.6547 33.4773 94.148 36.08C95.684 38.64 96.452 41.6267 96.452 45.04C96.452 48.4107 95.684 51.3973 94.148 54C92.6547 56.6027 90.564 58.6507 87.876 60.144C85.2307 61.6373 82.2227 62.384 78.852 62.384ZM78.852 57.008C81.028 57.008 82.9693 56.5173 84.676 55.536C86.4253 54.5547 87.7907 53.168 88.772 51.376C89.7533 49.5413 90.244 47.4293 90.244 45.04C90.244 42.608 89.7533 40.5173 88.772 38.768C87.7907 36.976 86.4253 35.5893 84.676 34.608C82.9693 33.6267 81.028 33.136 78.852 33.136C76.676 33.136 74.7347 33.6267 73.028 34.608C71.3213 35.5893 69.956 36.976 68.932 38.768C67.908 40.5173 67.396 42.608 67.396 45.04C67.396 47.4293 67.908 49.5413 68.932 51.376C69.956 53.168 71.3213 54.5547 73.028 55.536C74.7347 56.5173 76.676 57.008 78.852 57.008ZM111.18 62L98.5715 28.08H104.396L115.596 58.8H112.844L124.492 28.08H129.676L141.068 58.8H138.38L149.836 28.08H155.34L142.668 62H136.78L126.092 33.968H127.884L117.068 62H111.18Z" fill="white"/>
<path d="M793.812 14H766.188C759.457 14 754 19.4565 754 26.1875V53.8125C754 60.5435 759.457 66 766.188 66H793.812C800.543 66 806 60.5435 806 53.8125V26.1875C806 19.4565 800.543 14 793.812 14Z" fill="white"/>
<path d="M765.697 50.165V27.87C765.697 27.7182 765.762 27.6317 765.914 27.6317C766.282 27.6317 766.629 27.6317 767.127 27.61C767.647 27.5882 768.189 27.5882 768.774 27.5667C769.359 27.545 769.987 27.545 770.659 27.5232C771.331 27.5017 771.981 27.5017 772.631 27.5017C774.407 27.5017 775.881 27.7182 777.094 28.1732C778.182 28.5427 779.173 29.1496 779.997 29.95C780.695 30.6506 781.235 31.4929 781.579 32.42C781.904 33.33 782.077 34.2617 782.077 35.2367C782.077 37.1 781.644 38.6384 780.777 39.8517C779.911 41.065 778.697 41.975 777.289 42.495C775.816 43.0367 774.191 43.2317 772.414 43.2317C771.894 43.2317 771.547 43.2317 771.331 43.21C771.114 43.1882 770.811 43.1882 770.399 43.1882V50.1432C770.421 50.295 770.312 50.425 770.161 50.4467H765.957C765.784 50.4467 765.697 50.36 765.697 50.165ZM770.421 31.8132V39.0932C770.724 39.115 771.006 39.1367 771.266 39.1367H772.414C773.259 39.1367 774.104 39.0067 774.906 38.7467C775.599 38.5517 776.206 38.14 776.682 37.5982C777.137 37.0567 777.354 36.32 777.354 35.3667C777.374 34.6896 777.201 34.0207 776.856 33.4382C776.487 32.875 775.967 32.4417 775.339 32.2032C774.537 31.8782 773.671 31.7482 772.782 31.77C772.219 31.77 771.721 31.77 771.309 31.7917C770.876 31.77 770.572 31.7917 770.421 31.8132ZM795.597 37.7717C794.947 37.425 794.254 37.1867 793.517 37.035C792.716 36.8617 791.914 36.7532 791.091 36.7532C790.657 36.7317 790.202 36.7967 789.791 36.905C789.509 36.97 789.271 37.1217 789.119 37.3382C789.011 37.5117 788.946 37.7282 788.946 37.9232C788.946 38.1182 789.032 38.3132 789.162 38.4867C789.357 38.725 789.617 38.92 789.899 39.0717C790.401 39.3318 790.915 39.5703 791.437 39.7867C792.607 40.1767 793.734 40.7182 794.774 41.3682C795.489 41.8232 796.074 42.43 796.486 43.1667C796.832 43.86 797.006 44.6182 796.984 45.3982C797.006 46.4167 796.702 47.435 796.139 48.28C795.535 49.1449 794.691 49.8149 793.712 50.2082C792.651 50.6632 791.351 50.9017 789.791 50.9017C788.794 50.9017 787.819 50.815 786.844 50.62C786.08 50.488 785.337 50.2549 784.634 49.9267C784.482 49.84 784.374 49.6882 784.396 49.515V45.745C784.396 45.68 784.417 45.5932 784.482 45.55C784.547 45.5067 784.612 45.5282 784.677 45.5717C785.522 46.07 786.411 46.4167 787.364 46.6332C788.187 46.85 789.054 46.9582 789.921 46.9582C790.744 46.9582 791.329 46.85 791.719 46.655C792.066 46.5032 792.304 46.135 792.304 45.745C792.304 45.4417 792.131 45.16 791.784 44.8782C791.437 44.5967 790.722 44.2717 789.661 43.86C788.571 43.4761 787.537 42.9517 786.584 42.3C785.905 41.8162 785.342 41.187 784.937 40.4582C784.591 39.765 784.417 39.0067 784.439 38.2482C784.439 37.3167 784.699 36.4282 785.176 35.6267C785.717 34.76 786.519 34.0667 787.451 33.6332C788.469 33.1132 789.747 32.875 791.286 32.875C792.174 32.875 793.084 32.94 793.972 33.07C794.622 33.1567 795.251 33.33 795.836 33.5682C795.922 33.59 796.009 33.6767 796.052 33.7632C796.074 33.85 796.096 33.9367 796.096 34.0232V37.555C796.096 37.6417 796.052 37.7282 795.987 37.7717C795.792 37.815 795.684 37.815 795.597 37.7717Z" fill="black"/>
<path d="M228.812 14H201.188C194.457 14 189 19.4565 189 26.1875V53.8125C189 60.5435 194.457 66 201.188 66H228.812C235.543 66 241 60.5435 241 53.8125V26.1875C241 19.4565 235.543 14 228.812 14Z" fill="white"/>
<path d="M198.75 21.7192L200.499 41.3397H222.987L222.232 49.7552L214.992 51.7129L207.765 49.758L207.281 44.3545H200.769L201.7 54.7709L214.99 58.4621L228.297 54.7709L230.081 34.8523H206.433L205.839 28.2081H230.669L231.25 21.7192H198.75Z" fill="black"/>
<path d="M215 21.7192H198.75L200.499 41.3397H215V34.8523H206.433L205.839 28.2081H215V21.7192ZM215 51.71L214.992 51.7129L207.765 49.758L207.281 44.3545H200.769L201.7 54.7709L214.99 58.4621L215 58.4593L215 51.71Z" fill="#3D3D3D"/>
</g>
<defs>
<clipPath id="clip0_364_144">
<rect width="943" height="78" fill="white"/>
</clipPath>
</defs>
</svg>
