<svg width="52" height="52" viewBox="0 0 52 52" fill="none" xmlns="http://www.w3.org/2000/svg">
<path fill-rule="evenodd" clip-rule="evenodd" d="M36.8741 51.7778C37.2879 51.9399 37.7305 52.0147 38.1743 51.9976C38.6181 51.9805 39.0536 51.8717 39.4538 51.6782L50.1597 46.4997C50.711 46.2329 51.1762 45.8151 51.5018 45.2943C51.8274 44.7735 52 44.1709 52 43.5559V8.44373C52.0001 7.82858 51.8275 7.2259 51.5019 6.70503C51.1763 6.18416 50.7111 5.76627 50.1597 5.49945L39.4538 0.321834C38.8489 0.0292456 38.1684 -0.0670883 37.5066 0.0461647C36.8448 0.159418 36.2344 0.476657 35.7598 0.953977L15.2645 19.7492L6.33763 12.9373C5.93487 12.6301 5.43787 12.4743 4.9328 12.4968C4.42772 12.5194 3.9464 12.7188 3.57229 13.0607L0.70905 15.6787C0.485917 15.8827 0.3076 16.1312 0.185506 16.4085C0.0634126 16.6857 0.000230054 16.9855 6.27068e-07 17.2887C-0.0002288 17.5919 0.0624999 17.8918 0.184174 18.1692C0.305848 18.4466 0.483789 18.6955 0.706612 18.8998L8.4485 25.9996L0.707019 33.0998C0.484316 33.3041 0.306482 33.553 0.184884 33.8303C0.0632853 34.1077 0.000597293 34.4076 0.000826697 34.7107C0.0010561 35.0138 0.0641979 35.3135 0.186216 35.5907C0.308234 35.8679 0.486445 36.1165 0.709456 36.3205L3.5727 38.9385C3.94676 39.2804 4.42805 39.48 4.93313 39.5026C5.43821 39.5252 5.93523 39.3694 6.33803 39.0623L15.2649 32.2508L35.7602 51.0456C36.0774 51.3644 36.4564 51.6136 36.8741 51.7778ZM39.0078 14.1338L23.457 25.9996L39.0082 37.8658L39.0078 14.1338Z" fill="white"/>
</svg>
