<svg width="112" height="57" viewBox="0 0 112 57" fill="none" xmlns="http://www.w3.org/2000/svg">
<path d="M23.624 1.12H28.296V4.384C28.296 6.60266 27.8693 8.69333 27.016 10.656C26.1627 12.576 24.9893 14.3467 23.496 15.968C22.0453 17.5893 20.3387 19.04 18.376 20.32C16.4133 21.6 14.28 22.6667 11.976 23.52C9.71467 24.3733 7.38933 24.992 5 25.376L2.824 21.088C4.95733 20.7893 7.02667 20.2773 9.032 19.552C11.08 18.8267 12.9787 17.952 14.728 16.928C16.4773 15.8613 18.0133 14.6667 19.336 13.344C20.7013 12.0213 21.7467 10.6133 22.472 9.12C23.24 7.584 23.624 6.00533 23.624 4.384V1.12ZM24.52 1.12H29.128V4.384C29.128 6.00533 29.512 7.56267 30.28 9.056C31.048 10.5493 32.0933 11.9573 33.416 13.28C34.7813 14.6027 36.3387 15.7973 38.088 16.864C39.8373 17.9307 41.7147 18.8267 43.72 19.552C45.768 20.2773 47.8373 20.7893 49.928 21.088L47.816 25.376C45.4267 24.992 43.1013 24.3733 40.84 23.52C38.5787 22.624 36.4453 21.536 34.44 20.256C32.4773 18.976 30.7493 17.5253 29.256 15.904C27.8053 14.2827 26.6533 12.512 25.8 10.592C24.9467 8.62933 24.52 6.56 24.52 4.384V1.12ZM23.624 34.976H28.872V56.992H23.624V34.976ZM0.2 31.648H52.488V36.064H0.2V31.648ZM71.939 18.72H77.251V29.6H71.939V18.72ZM93.187 18.72H98.435V29.6H93.187V18.72ZM59.075 27.68H111.363V31.968H59.075V27.68ZM85.187 36.384C91.3737 36.384 96.2163 37.2587 99.715 39.008C103.214 40.7573 104.963 43.2747 104.963 46.56C104.963 49.888 103.214 52.4267 99.715 54.176C96.2163 55.968 91.3737 56.864 85.187 56.864C79.0003 56.864 74.1363 55.968 70.595 54.176C67.0963 52.4267 65.347 49.888 65.347 46.56C65.347 43.2747 67.0963 40.7573 70.595 39.008C74.1363 37.2587 79.0003 36.384 85.187 36.384ZM85.187 40.48C82.1577 40.48 79.555 40.7147 77.379 41.184C75.2457 41.6533 73.603 42.3573 72.451 43.296C71.299 44.192 70.723 45.28 70.723 46.56C70.723 47.9253 71.299 49.0773 72.451 50.016C73.603 50.912 75.2457 51.5947 77.379 52.064C79.555 52.5333 82.1577 52.768 85.187 52.768C88.2163 52.768 90.7977 52.5333 92.931 52.064C95.107 51.5947 96.771 50.912 97.923 50.016C99.075 49.0773 99.651 47.9253 99.651 46.56C99.651 45.28 99.075 44.192 97.923 43.296C96.771 42.3573 95.107 41.6533 92.931 41.184C90.7977 40.7147 88.2163 40.48 85.187 40.48ZM85.187 0.159996C89.3683 0.159996 92.9737 0.586664 96.003 1.44C99.075 2.29333 101.422 3.53066 103.043 5.152C104.707 6.73066 105.539 8.65066 105.539 10.912C105.539 13.1307 104.707 15.0507 103.043 16.672C101.422 18.2933 99.075 19.5307 96.003 20.384C92.9737 21.1947 89.3683 21.6 85.187 21.6C81.0057 21.6 77.379 21.1947 74.307 20.384C71.2777 19.5307 68.931 18.2933 67.267 16.672C65.6457 15.0507 64.835 13.1307 64.835 10.912C64.835 8.65066 65.6457 6.73066 67.267 5.152C68.931 3.53066 71.2777 2.29333 74.307 1.44C77.379 0.586664 81.0057 0.159996 85.187 0.159996ZM85.187 4.32C82.1577 4.32 79.5123 4.576 77.251 5.088C75.0323 5.6 73.3043 6.34667 72.067 7.328C70.8723 8.30933 70.275 9.504 70.275 10.912C70.275 12.2773 70.8723 13.472 72.067 14.496C73.3043 15.4773 75.0323 16.224 77.251 16.736C79.5123 17.248 82.1577 17.504 85.187 17.504C88.3017 17.504 90.9683 17.248 93.187 16.736C95.4057 16.224 97.1123 15.4773 98.307 14.496C99.5017 13.472 100.099 12.2773 100.099 10.912C100.099 9.504 99.5017 8.30933 98.307 7.328C97.1123 6.34667 95.4057 5.6 93.187 5.088C90.9683 4.576 88.3017 4.32 85.187 4.32Z" fill="white"/>
</svg>
