<svg width="62" height="60" viewBox="0 0 62 60" fill="none" xmlns="http://www.w3.org/2000/svg">
<path d="M31 0C26.929 0 22.8979 0.795238 19.1368 2.34031C15.3757 3.88538 11.9583 6.15003 9.07969 9.00495C3.26606 14.7707 0 22.5908 0 30.7448C0 44.334 8.897 55.8633 21.204 59.9524C22.754 60.1983 23.25 59.2452 23.25 58.4151V53.2193C14.663 55.064 12.834 49.0995 12.834 49.0995C11.408 45.5331 9.393 44.58 9.393 44.58C6.572 42.6738 9.61 42.7353 9.61 42.7353C12.71 42.9505 14.353 45.902 14.353 45.902C17.05 50.5752 21.607 49.1917 23.374 48.4538C23.653 46.4554 24.459 45.1026 25.327 44.334C18.445 43.5654 11.222 40.9213 11.222 29.2076C11.222 25.7949 12.4 23.0586 14.415 20.8757C14.105 20.1071 13.02 16.9096 14.725 12.7591C14.725 12.7591 17.329 11.929 23.25 15.8951C25.699 15.2187 28.365 14.8805 31 14.8805C33.635 14.8805 36.301 15.2187 38.75 15.8951C44.671 11.929 47.275 12.7591 47.275 12.7591C48.98 16.9096 47.895 20.1071 47.585 20.8757C49.6 23.0586 50.778 25.7949 50.778 29.2076C50.778 40.9521 43.524 43.5347 36.611 44.3033C37.727 45.2564 38.75 47.1318 38.75 49.9911V58.4151C38.75 59.2452 39.246 60.2291 40.827 59.9524C53.134 55.8326 62 44.334 62 30.7448C62 26.7073 61.1982 22.7094 59.6403 18.9793C58.0824 15.2491 55.7989 11.8599 52.9203 9.00495C50.0417 6.15003 46.6243 3.88538 42.8632 2.34031C39.1021 0.795238 35.071 0 31 0Z" fill="white"/>
</svg>
