<svg width="943" height="78" viewBox="0 0 943 78" fill="none" xmlns="http://www.w3.org/2000/svg">
<g clip-path="url(#clip0_364_177)">
<path d="M788.28 62.512C782.392 62.512 777.763 60.8267 774.392 57.456C771.021 54.0853 769.336 49.1573 769.336 42.672V17.2H775.736V42.416C775.736 47.408 776.824 51.056 779 53.36C781.219 55.664 784.333 56.816 788.344 56.816C792.397 56.816 795.512 55.664 797.688 53.36C799.907 51.056 801.016 47.408 801.016 42.416V17.2H807.224V42.672C807.224 49.1573 805.539 54.0853 802.168 57.456C798.84 60.8267 794.211 62.512 788.28 62.512ZM833.401 62.512C829.988 62.512 826.724 62 823.609 60.976C820.494 59.9093 818.041 58.544 816.249 56.88L818.617 51.888C820.324 53.3813 822.5 54.6187 825.145 55.6C827.79 56.5813 830.542 57.072 833.401 57.072C836.004 57.072 838.116 56.7733 839.737 56.176C841.358 55.5787 842.553 54.768 843.321 53.744C844.089 52.6773 844.473 51.4827 844.473 50.16C844.473 48.624 843.961 47.3867 842.937 46.448C841.956 45.5093 840.654 44.7627 839.033 44.208C837.454 43.6107 835.705 43.0987 833.785 42.672C831.865 42.2453 829.924 41.7547 827.961 41.2C826.041 40.6027 824.27 39.856 822.649 38.96C821.07 38.064 819.79 36.8693 818.809 35.376C817.828 33.84 817.337 31.8773 817.337 29.488C817.337 27.184 817.934 25.072 819.129 23.152C820.366 21.1893 822.244 19.632 824.761 18.48C827.321 17.2853 830.564 16.688 834.489 16.688C837.092 16.688 839.673 17.0293 842.233 17.712C844.793 18.3947 847.012 19.376 848.889 20.656L846.777 25.776C844.857 24.496 842.83 23.5787 840.697 23.024C838.564 22.4267 836.494 22.128 834.489 22.128C831.972 22.128 829.902 22.448 828.281 23.088C826.66 23.728 825.465 24.5813 824.697 25.648C823.972 26.7147 823.609 27.9093 823.609 29.232C823.609 30.8107 824.1 32.0693 825.081 33.008C826.105 33.9467 827.406 34.6933 828.985 35.248C830.606 35.8027 832.377 36.3147 834.297 36.784C836.217 37.2107 838.137 37.7013 840.057 38.256C842.02 38.8107 843.79 39.536 845.369 40.432C846.99 41.328 848.292 42.5227 849.273 44.016C850.254 45.5093 850.745 47.4293 850.745 49.776C850.745 52.0373 850.126 54.1493 848.889 56.112C847.652 58.032 845.732 59.5893 843.129 60.784C840.569 61.936 837.326 62.512 833.401 62.512ZM865.919 36.528H888.959V41.968H865.919V36.528ZM866.495 56.432H892.607V62H860.095V17.2H891.711V22.768H866.495V56.432ZM902.97 62V17.2H920.442C924.367 17.2 927.717 17.8187 930.49 19.056C933.263 20.2933 935.397 22.0853 936.89 24.432C938.383 26.7787 939.13 29.5733 939.13 32.816C939.13 36.0587 938.383 38.8533 936.89 41.2C935.397 43.504 933.263 45.2747 930.49 46.512C927.717 47.7493 924.367 48.368 920.442 48.368H906.49L909.37 45.424V62H902.97ZM932.922 62L921.53 45.744H928.378L939.898 62H932.922ZM909.37 46.064L906.49 42.928H920.25C924.346 42.928 927.439 42.0533 929.53 40.304C931.663 38.512 932.73 36.016 932.73 32.816C932.73 29.616 931.663 27.1413 929.53 25.392C927.439 23.6427 924.346 22.768 920.25 22.768H906.49L909.37 19.568V46.064Z" fill="white"/>
<path d="M26.752 62.512C23.3387 62.512 20.1813 61.9573 17.28 60.848C14.4213 59.696 11.9253 58.096 9.792 56.048C7.70133 53.9573 6.05867 51.5253 4.864 48.752C3.66933 45.9787 3.072 42.928 3.072 39.6C3.072 36.272 3.66933 33.2213 4.864 30.448C6.05867 27.6747 7.72267 25.264 9.856 23.216C11.9893 21.1253 14.4853 19.5253 17.344 18.416C20.2453 17.264 23.4027 16.688 26.816 16.688C30.272 16.688 33.4507 17.2853 36.352 18.48C39.296 19.632 41.792 21.36 43.84 23.664L39.68 27.696C37.9733 25.904 36.0533 24.5813 33.92 23.728C31.7867 22.832 29.504 22.384 27.072 22.384C24.5547 22.384 22.208 22.8107 20.032 23.664C17.8987 24.5173 16.0427 25.712 14.464 27.248C12.8853 28.784 11.648 30.6187 10.752 32.752C9.89867 34.8427 9.472 37.1253 9.472 39.6C9.472 42.0747 9.89867 44.3787 10.752 46.512C11.648 48.6027 12.8853 50.416 14.464 51.952C16.0427 53.488 17.8987 54.6827 20.032 55.536C22.208 56.3893 24.5547 56.816 27.072 56.816C29.504 56.816 31.7867 56.3893 33.92 55.536C36.0533 54.64 37.9733 53.2747 39.68 51.44L43.84 55.472C41.792 57.776 39.296 59.5253 36.352 60.72C33.4507 61.9147 30.2507 62.512 26.752 62.512ZM72.2565 62.512C68.8432 62.512 65.6645 61.936 62.7205 60.784C59.8192 59.632 57.3018 58.032 55.1685 55.984C53.0352 53.8933 51.3712 51.4613 50.1765 48.688C48.9818 45.9147 48.3845 42.8853 48.3845 39.6C48.3845 36.3147 48.9818 33.2853 50.1765 30.512C51.3712 27.7387 53.0352 25.328 55.1685 23.28C57.3018 21.1893 59.8192 19.568 62.7205 18.416C65.6218 17.264 68.8005 16.688 72.2565 16.688C75.6698 16.688 78.8058 17.264 81.6645 18.416C84.5658 19.5253 87.0832 21.1253 89.2165 23.216C91.3925 25.264 93.0565 27.6747 94.2085 30.448C95.4032 33.2213 96.0005 36.272 96.0005 39.6C96.0005 42.928 95.4032 45.9787 94.2085 48.752C93.0565 51.5253 91.3925 53.9573 89.2165 56.048C87.0832 58.096 84.5658 59.696 81.6645 60.848C78.8058 61.9573 75.6698 62.512 72.2565 62.512ZM72.2565 56.816C74.7312 56.816 77.0138 56.3893 79.1045 55.536C81.2378 54.6827 83.0725 53.488 84.6085 51.952C86.1872 50.3733 87.4032 48.5387 88.2565 46.448C89.1525 44.3573 89.6005 42.0747 89.6005 39.6C89.6005 37.1253 89.1525 34.8427 88.2565 32.752C87.4032 30.6613 86.1872 28.848 84.6085 27.312C83.0725 25.7333 81.2378 24.5173 79.1045 23.664C77.0138 22.8107 74.7312 22.384 72.2565 22.384C69.7392 22.384 67.4138 22.8107 65.2805 23.664C63.1898 24.5173 61.3552 25.7333 59.7765 27.312C58.1978 28.848 56.9605 30.6613 56.0645 32.752C55.2112 34.8427 54.7845 37.1253 54.7845 39.6C54.7845 42.0747 55.2112 44.3573 56.0645 46.448C56.9605 48.5387 58.1978 50.3733 59.7765 51.952C61.3552 53.488 63.1898 54.6827 65.2805 55.536C67.4138 56.3893 69.7392 56.816 72.2565 56.816ZM105.783 62V17.2H111.031L131.127 51.056H128.311L148.151 17.2H153.399L153.463 62H147.319L147.255 26.864H148.727L131.062 56.56H128.119L110.327 26.864H111.927V62H105.783ZM166.908 62V17.2H172.156L192.252 51.056H189.436L209.276 17.2H214.524L214.588 62H208.444L208.38 26.864H209.852L192.188 56.56H189.244L171.452 26.864H173.052V62H166.908ZM246.593 62.512C240.705 62.512 236.075 60.8267 232.705 57.456C229.334 54.0853 227.649 49.1573 227.649 42.672V17.2H234.049V42.416C234.049 47.408 235.137 51.056 237.312 53.36C239.531 55.664 242.646 56.816 246.657 56.816C250.71 56.816 253.825 55.664 256.001 53.36C258.219 51.056 259.329 47.408 259.329 42.416V17.2H265.537V42.672C265.537 49.1573 263.851 54.0853 260.481 57.456C257.153 60.8267 252.523 62.512 246.593 62.512ZM278.658 62V17.2H283.906L313.538 54H310.786V17.2H317.186V62H311.938L282.306 25.2H285.058V62H278.658ZM330.595 62V17.2H336.995V62H330.595ZM370.44 62.512C367.026 62.512 363.869 61.9573 360.968 60.848C358.109 59.696 355.613 58.096 353.48 56.048C351.389 53.9573 349.746 51.5253 348.552 48.752C347.357 45.9787 346.76 42.928 346.76 39.6C346.76 36.272 347.357 33.2213 348.552 30.448C349.746 27.6747 351.41 25.264 353.544 23.216C355.677 21.1253 358.173 19.5253 361.032 18.416C363.933 17.264 367.09 16.688 370.504 16.688C373.96 16.688 377.138 17.2853 380.04 18.48C382.984 19.632 385.48 21.36 387.528 23.664L383.368 27.696C381.661 25.904 379.741 24.5813 377.608 23.728C375.474 22.832 373.192 22.384 370.76 22.384C368.242 22.384 365.896 22.8107 363.72 23.664C361.586 24.5173 359.73 25.712 358.152 27.248C356.573 28.784 355.336 30.6187 354.44 32.752C353.586 34.8427 353.16 37.1253 353.16 39.6C353.16 42.0747 353.586 44.3787 354.44 46.512C355.336 48.6027 356.573 50.416 358.152 51.952C359.73 53.488 361.586 54.6827 363.72 55.536C365.896 56.3893 368.242 56.816 370.76 56.816C373.192 56.816 375.474 56.3893 377.608 55.536C379.741 54.64 381.661 53.2747 383.368 51.44L387.528 55.472C385.48 57.776 382.984 59.5253 380.04 60.72C377.138 61.9147 373.938 62.512 370.44 62.512ZM388.811 62L409.099 17.2H415.435L435.787 62H429.067L410.955 20.784H413.515L395.403 62H388.811ZM397.451 50.8L399.179 45.68H424.395L426.251 50.8H397.451ZM449.116 62V22.768H433.756V17.2H470.812V22.768H455.452V62H449.116ZM477.783 62V17.2H484.183V62H477.783ZM517.819 62.512C514.406 62.512 511.227 61.936 508.283 60.784C505.382 59.632 502.864 58.032 500.731 55.984C498.598 53.8933 496.934 51.4613 495.739 48.688C494.544 45.9147 493.947 42.8853 493.947 39.6C493.947 36.3147 494.544 33.2853 495.739 30.512C496.934 27.7387 498.598 25.328 500.731 23.28C502.864 21.1893 505.382 19.568 508.283 18.416C511.184 17.264 514.363 16.688 517.819 16.688C521.232 16.688 524.368 17.264 527.227 18.416C530.128 19.5253 532.646 21.1253 534.779 23.216C536.955 25.264 538.619 27.6747 539.771 30.448C540.966 33.2213 541.563 36.272 541.563 39.6C541.563 42.928 540.966 45.9787 539.771 48.752C538.619 51.5253 536.955 53.9573 534.779 56.048C532.646 58.096 530.128 59.696 527.227 60.848C524.368 61.9573 521.232 62.512 517.819 62.512ZM517.819 56.816C520.294 56.816 522.576 56.3893 524.667 55.536C526.8 54.6827 528.635 53.488 530.171 51.952C531.75 50.3733 532.966 48.5387 533.819 46.448C534.715 44.3573 535.163 42.0747 535.163 39.6C535.163 37.1253 534.715 34.8427 533.819 32.752C532.966 30.6613 531.75 28.848 530.171 27.312C528.635 25.7333 526.8 24.5173 524.667 23.664C522.576 22.8107 520.294 22.384 517.819 22.384C515.302 22.384 512.976 22.8107 510.843 23.664C508.752 24.5173 506.918 25.7333 505.339 27.312C503.76 28.848 502.523 30.6613 501.627 32.752C500.774 34.8427 500.347 37.1253 500.347 39.6C500.347 42.0747 500.774 44.3573 501.627 46.448C502.523 48.5387 503.76 50.3733 505.339 51.952C506.918 53.488 508.752 54.6827 510.843 55.536C512.976 56.3893 515.302 56.816 517.819 56.816ZM551.345 62V17.2H556.593L586.225 54H583.473V17.2H589.873V62H584.625L554.993 25.2H557.745V62H551.345Z" fill="white"/>
<path d="M659.609 27.0678C655.473 33.0119 655.988 40.7463 659.148 47.0628C659.223 47.2143 659.301 47.3632 659.379 47.512L659.527 47.7967L659.619 47.9605L659.784 48.2553C659.882 48.428 659.982 48.6004 660.085 48.7724L660.257 49.0559C660.371 49.2397 660.488 49.4222 660.607 49.6034L660.756 49.8337C660.921 50.0793 661.089 50.3245 661.263 50.5653L661.278 50.584L661.363 50.6995C661.514 50.907 661.668 51.1119 661.825 51.3142L661.999 51.5354C662.139 51.7112 662.282 51.886 662.426 52.06L662.589 52.255C662.784 52.4847 662.982 52.7112 663.184 52.9345L663.196 52.9469L663.219 52.9724C663.418 53.1877 663.619 53.4001 663.824 53.6095L664.018 53.8049C664.176 53.9644 664.337 54.1222 664.5 54.2782L664.698 54.4657C664.915 54.6707 665.136 54.8715 665.359 55.0683L665.37 55.0765L665.485 55.1748C665.683 55.3463 665.883 55.5154 666.086 55.6822L666.335 55.8805C666.501 56.0133 666.668 56.1438 666.836 56.272L667.104 56.4757C667.29 56.6127 667.477 56.747 667.666 56.8788L667.871 57.0239L667.927 57.064C668.106 57.1874 668.29 57.3063 668.473 57.4252L668.709 57.5827C668.991 57.7604 669.276 57.9363 669.564 58.1062L669.8 58.2393C670.012 58.3618 670.226 58.4817 670.441 58.5989C670.558 58.6619 670.678 58.7215 670.796 58.7819C670.949 58.8618 671.1 58.9428 671.256 59.0204L671.362 59.0718L671.55 59.1625C671.79 59.2775 672.032 59.3897 672.277 59.4989L672.431 59.5679C672.711 59.6907 672.994 59.8083 673.279 59.9208L673.486 60.0022C673.75 60.1038 674.018 60.2043 674.287 60.2988L674.387 60.3337C674.682 60.4368 674.98 60.5324 675.28 60.6258L675.496 60.6903C675.801 60.7822 676.103 60.892 676.417 60.9502C696.42 64.5978 702.23 48.9303 702.23 48.9303C697.35 55.2877 688.688 56.9647 680.481 55.0975C680.17 55.0274 679.869 54.9303 679.566 54.8407L679.337 54.7713C679.042 54.6806 678.748 54.585 678.455 54.4844L678.334 54.4405C678.073 54.3484 677.814 54.2523 677.556 54.1522L677.338 54.0663C677.056 53.955 676.776 53.8387 676.498 53.7172L676.331 53.6429C676.093 53.5357 675.857 53.4258 675.622 53.3133L675.418 53.215C675.234 53.1254 675.051 53.0302 674.87 52.9364C674.748 52.8723 674.625 52.8119 674.504 52.7452C674.283 52.6261 674.064 52.5034 673.848 52.3769L673.626 52.2532C673.338 52.0832 673.053 51.9086 672.771 51.7293L672.54 51.5755C672.335 51.444 672.132 51.3091 671.932 51.1709L671.736 51.0333C671.543 50.8967 671.351 50.7581 671.161 50.6174L670.906 50.4247C670.731 50.2917 670.558 50.1565 670.387 50.0189L670.156 49.8333C669.938 49.6546 669.722 49.4729 669.509 49.2884L669.438 49.2288C669.209 49.0262 668.982 48.8203 668.759 48.6112L668.567 48.427C668.402 48.2695 668.239 48.1109 668.079 47.9482L667.888 47.7573C667.684 47.5493 667.485 47.338 667.288 47.1235L667.259 47.092C667.052 46.8653 666.849 46.6347 666.651 46.4005L666.492 46.2115C666.344 46.0332 666.198 45.8529 666.054 45.6708L665.894 45.4713C665.723 45.2495 665.554 45.0252 665.389 44.7985C660.833 38.5833 659.196 30.0115 662.837 22.972M672.448 22.0593C669.457 26.3635 669.619 32.1258 671.953 36.6779C672.344 37.4429 672.786 38.1807 673.276 38.8863C673.724 39.5287 674.221 40.2929 674.815 40.8089C675.033 41.0471 675.257 41.2795 675.487 41.5057L675.664 41.68C675.887 41.8977 676.116 42.11 676.349 42.3168L676.377 42.3408L676.384 42.3475C676.645 42.5751 676.912 42.796 677.184 43.0102L677.366 43.1519C677.64 43.3629 677.919 43.5668 678.204 43.7635L678.228 43.7819C678.354 43.8689 678.482 43.9499 678.61 44.0339L678.791 44.1535C678.995 44.2848 679.202 44.4117 679.412 44.5342L679.5 44.5852C679.681 44.6897 679.864 44.7919 680.049 44.8919L680.244 44.9935C680.371 45.0599 680.498 45.1278 680.628 45.1923L680.686 45.2185C680.949 45.3483 681.215 45.4735 681.487 45.5917L681.664 45.6644C681.881 45.7567 682.1 45.8467 682.32 45.9307L682.601 46.0338C682.801 46.108 683.002 46.1755 683.204 46.2434L683.476 46.3308C683.764 46.42 684.048 46.5329 684.348 46.5828C699.792 49.1414 703.357 37.2505 703.357 37.2505C700.143 41.8792 693.919 44.0879 687.277 42.3637C686.984 42.2865 686.692 42.2022 686.403 42.1109L686.14 42.0258C685.934 41.9594 685.731 41.8892 685.528 41.815L685.252 41.7123C685.031 41.6275 684.812 41.539 684.594 41.4468L684.416 41.3718C684.145 41.2535 683.876 41.1286 683.611 40.9972C683.475 40.9308 683.341 40.8607 683.206 40.7917L682.973 40.6717C682.801 40.5784 682.631 40.4821 682.462 40.3829L682.34 40.3135C682.131 40.1917 681.924 40.0657 681.721 39.9355L681.534 39.811C681.399 39.724 681.266 39.6357 681.133 39.5459C680.85 39.349 680.572 39.1455 680.298 38.9354L680.11 38.7873C677.203 36.4923 674.899 33.355 673.803 29.7982C672.655 26.1097 672.903 21.9689 674.892 18.6082M683.246 18.3175C681.483 20.9125 681.31 24.1353 682.533 27.001C683.824 30.0434 686.467 32.4295 689.553 33.5617C689.68 33.6085 689.808 33.6505 689.937 33.6944L690.106 33.748C690.288 33.805 690.468 33.8714 690.656 33.907C699.183 35.5548 701.496 29.5312 702.112 28.6443C700.086 31.5614 696.681 32.2615 692.503 31.2475C692.173 31.1677 691.81 31.0484 691.492 30.9355C691.084 30.7905 690.683 30.6242 690.292 30.4372C689.55 30.0803 688.845 29.6501 688.188 29.1532C684.449 26.3163 682.127 20.9054 684.566 16.4988" fill="white"/>
</g>
<defs>
<clipPath id="clip0_364_177">
<rect width="943" height="78" fill="white"/>
</clipPath>
</defs>
</svg>
