<svg width="112" height="57" viewBox="0 0 112 57" fill="none" xmlns="http://www.w3.org/2000/svg">
<path d="M0.2 45.024H52.68V49.504H0.2V45.024ZM23.56 31.008H28.808V46.496H23.56V31.008ZM23.368 2.912H28.04V7.392C28.04 9.90933 27.592 12.2773 26.696 14.496C25.8427 16.672 24.648 18.72 23.112 20.64C21.576 22.5173 19.8053 24.2027 17.8 25.696C15.8373 27.1893 13.7253 28.448 11.464 29.472C9.20267 30.496 6.89867 31.2427 4.552 31.712L2.248 27.296C4.296 26.9547 6.32267 26.3573 8.328 25.504C10.376 24.608 12.296 23.5413 14.088 22.304C15.88 21.024 17.48 19.616 18.888 18.08C20.296 16.5013 21.384 14.816 22.152 13.024C22.9627 11.1893 23.368 9.312 23.368 7.392V2.912ZM24.328 2.912H28.936V7.392C28.936 9.35467 29.3413 11.232 30.152 13.024C30.9627 14.816 32.072 16.5013 33.48 18.08C34.888 19.616 36.488 21.024 38.28 22.304C40.1147 23.584 42.0347 24.6507 44.04 25.504C46.088 26.3573 48.136 26.9547 50.184 27.296L47.88 31.712C45.5333 31.2427 43.2293 30.496 40.968 29.472C38.7067 28.448 36.5733 27.1893 34.568 25.696C32.5627 24.2027 30.792 22.5173 29.256 20.64C27.72 18.72 26.504 16.6507 25.608 14.432C24.7547 12.2133 24.328 9.86666 24.328 7.392V2.912ZM59.011 29.728H111.363V34.016H59.011V29.728ZM82.499 22.24H87.811V31.52H82.499V22.24ZM65.923 19.936H105.219V24.096H65.923V19.936ZM65.923 0.735996H104.899V4.96H71.235V22.176H65.923V0.735996ZM69.635 10.272H103.363V14.304H69.635V10.272ZM85.187 38.304C91.459 38.304 96.323 39.0933 99.779 40.672C103.235 42.2507 104.963 44.5547 104.963 47.584C104.963 50.6133 103.235 52.9173 99.779 54.496C96.323 56.0747 91.459 56.864 85.187 56.864C78.8723 56.864 73.987 56.0747 70.531 54.496C67.075 52.9173 65.347 50.6133 65.347 47.584C65.347 44.5547 67.075 42.2507 70.531 40.672C73.987 39.0933 78.8723 38.304 85.187 38.304ZM85.123 42.336C80.515 42.336 76.9523 42.784 74.435 43.68C71.9177 44.576 70.659 45.8773 70.659 47.584C70.659 49.3333 71.9177 50.656 74.435 51.552C76.9523 52.4053 80.515 52.832 85.123 52.832C89.8163 52.832 93.4003 52.4053 95.875 51.552C98.3923 50.656 99.651 49.3333 99.651 47.584C99.651 45.8773 98.3923 44.576 95.875 43.68C93.4003 42.784 89.8163 42.336 85.123 42.336Z" fill="white"/>
</svg>
