<svg width="943" height="78" viewBox="0 0 943 78" fill="none" xmlns="http://www.w3.org/2000/svg">
<g clip-path="url(#clip0_363_70)">
<path d="M282.616 62V22.768H267.256V17.2H304.312V22.768H288.952V62H282.616ZM317.107 36.528H340.147V41.968H317.107V36.528ZM317.683 56.432H343.795V62H311.283V17.2H342.899V22.768H317.683V56.432ZM347.373 62L367.662 17.2H373.998L394.35 62H387.63L369.518 20.784H372.078L353.966 62H347.373ZM356.014 50.8L357.742 45.68H382.958L384.814 50.8H356.014ZM401.033 62V17.2H406.281L426.377 51.056H423.561L443.401 17.2H448.649L448.713 62H442.569L442.505 26.864H443.977L426.312 56.56H423.369L405.577 26.864H407.177V62H401.033ZM472.024 62L457.048 17.2H463.64L477.4 58.544H474.072L488.344 17.2H494.232L508.184 58.544H504.984L518.936 17.2H525.016L510.04 62H503.32L490.264 23.664H491.992L478.872 62H472.024ZM552.632 62.512C549.218 62.512 546.04 61.936 543.096 60.784C540.194 59.632 537.677 58.032 535.544 55.984C533.41 53.8933 531.746 51.4613 530.552 48.688C529.357 45.9147 528.76 42.8853 528.76 39.6C528.76 36.3147 529.357 33.2853 530.552 30.512C531.746 27.7387 533.41 25.328 535.544 23.28C537.677 21.1893 540.194 19.568 543.096 18.416C545.997 17.264 549.176 16.688 552.632 16.688C556.045 16.688 559.181 17.264 562.04 18.416C564.941 19.5253 567.458 21.1253 569.592 23.216C571.768 25.264 573.432 27.6747 574.584 30.448C575.778 33.2213 576.376 36.272 576.376 39.6C576.376 42.928 575.778 45.9787 574.584 48.752C573.432 51.5253 571.768 53.9573 569.592 56.048C567.458 58.096 564.941 59.696 562.04 60.848C559.181 61.9573 556.045 62.512 552.632 62.512ZM552.632 56.816C555.106 56.816 557.389 56.3893 559.479 55.536C561.613 54.6827 563.448 53.488 564.984 51.952C566.562 50.3733 567.778 48.5387 568.632 46.448C569.528 44.3573 569.976 42.0747 569.976 39.6C569.976 37.1253 569.528 34.8427 568.632 32.752C567.778 30.6613 566.562 28.848 564.984 27.312C563.448 25.7333 561.613 24.5173 559.479 23.664C557.389 22.8107 555.106 22.384 552.632 22.384C550.114 22.384 547.789 22.8107 545.656 23.664C543.565 24.5173 541.73 25.7333 540.152 27.312C538.573 28.848 537.336 30.6613 536.44 32.752C535.586 34.8427 535.16 37.1253 535.16 39.6C535.16 42.0747 535.586 44.3573 536.44 46.448C537.336 48.5387 538.573 50.3733 540.152 51.952C541.73 53.488 543.565 54.6827 545.656 55.536C547.789 56.3893 550.114 56.816 552.632 56.816ZM586.158 62V17.2H603.63C607.555 17.2 610.904 17.8187 613.678 19.056C616.451 20.2933 618.584 22.0853 620.078 24.432C621.571 26.7787 622.318 29.5733 622.318 32.816C622.318 36.0587 621.571 38.8533 620.078 41.2C618.584 43.504 616.451 45.2747 613.678 46.512C610.904 47.7493 607.555 48.368 603.63 48.368H589.678L592.558 45.424V62H586.158ZM616.11 62L604.718 45.744H611.566L623.086 62H616.11ZM592.558 46.064L589.678 42.928H603.438C607.534 42.928 610.627 42.0533 612.718 40.304C614.851 38.512 615.918 36.016 615.918 32.816C615.918 29.616 614.851 27.1413 612.718 25.392C610.627 23.6427 607.534 22.768 603.438 22.768H589.678L592.558 19.568V46.064ZM638.29 51.184L637.97 43.376L663.378 17.2H670.674L651.026 37.936L647.442 41.904L638.29 51.184ZM632.658 62V17.2H639.058V62H632.658ZM664.402 62L646.034 40.624L650.322 35.888L671.89 62H664.402Z" fill="white"/>
<path d="M860.712 22.576H872.552V26.928H860.712V22.576ZM860.648 33.84H872.424V38.192H860.648V33.84ZM828.264 14.896H860.712V19.184H828.264V14.896ZM844.648 22C847.251 22 849.533 22.448 851.496 23.344C853.459 24.1973 854.995 25.4133 856.104 26.992C857.213 28.528 857.768 30.3413 857.768 32.432C857.768 34.5227 857.213 36.3573 856.104 37.936C854.995 39.472 853.459 40.6667 851.496 41.52C849.533 42.3733 847.251 42.8 844.648 42.8C842.088 42.8 839.827 42.3733 837.864 41.52C835.901 40.6667 834.365 39.472 833.256 37.936C832.147 36.3573 831.592 34.5227 831.592 32.432C831.592 30.3413 832.147 28.528 833.256 26.992C834.365 25.4133 835.901 24.1973 837.864 23.344C839.827 22.448 842.088 22 844.648 22ZM844.648 26.096C842.216 26.096 840.253 26.672 838.76 27.824C837.309 28.976 836.584 30.512 836.584 32.432C836.584 34.352 837.309 35.9093 838.76 37.104C840.253 38.256 842.216 38.832 844.648 38.832C847.08 38.832 849.043 38.256 850.536 37.104C852.072 35.9093 852.84 34.352 852.84 32.432C852.84 30.512 852.072 28.976 850.536 27.824C849.043 26.672 847.08 26.096 844.648 26.096ZM842.088 8.56H847.336V17.52H842.088V8.56ZM870.504 9.072H875.816V43.312H870.504V9.072ZM838.376 45.808H843.624V51.76H870.568V45.808H875.816V66.224H838.376V45.808ZM843.624 55.856V62H870.568V55.856H843.624ZM916.131 22.896H931.683V27.248H916.131V22.896ZM902.883 11.76C905.742 11.76 908.28 12.336 910.499 13.488C912.76 14.5973 914.531 16.1547 915.811 18.16C917.091 20.1653 917.731 22.4907 917.731 25.136C917.731 27.7813 917.091 30.128 915.811 32.176C914.531 34.1813 912.76 35.76 910.499 36.912C908.28 38.0213 905.742 38.576 902.883 38.576C899.982 38.576 897.4 38.0213 895.139 36.912C892.92 35.76 891.171 34.1813 889.891 32.176C888.611 30.128 887.971 27.7813 887.971 25.136C887.971 22.4907 888.611 20.1653 889.891 18.16C891.171 16.1547 892.92 14.5973 895.139 13.488C897.4 12.336 899.982 11.76 902.883 11.76ZM902.883 16.24C900.963 16.24 899.256 16.624 897.763 17.392C896.312 18.1173 895.16 19.1627 894.307 20.528C893.454 21.8507 893.027 23.3867 893.027 25.136C893.027 26.8853 893.454 28.4427 894.307 29.808C895.16 31.1307 896.312 32.176 897.763 32.944C899.256 33.712 900.963 34.096 902.883 34.096C904.76 34.096 906.424 33.712 907.875 32.944C909.368 32.176 910.542 31.1307 911.395 29.808C912.248 28.4427 912.675 26.8853 912.675 25.136C912.675 23.3867 912.248 21.8507 911.395 20.528C910.542 19.1627 909.368 18.1173 907.875 17.392C906.424 16.624 904.76 16.24 902.883 16.24ZM929.379 9.072H934.691V40.176H929.379V9.072ZM897.635 43.056H902.883V50.288H929.379V43.056H934.691V66.224H897.635V43.056ZM902.883 54.512V61.872H929.379V54.512H902.883Z" fill="white"/>
<path d="M3.2 55.024H55.68V59.504H3.2V55.024ZM26.56 41.008H31.808V56.496H26.56V41.008ZM26.368 12.912H31.04V17.392C31.04 19.9093 30.592 22.2773 29.696 24.496C28.8427 26.672 27.648 28.72 26.112 30.64C24.576 32.5173 22.8053 34.2027 20.8 35.696C18.8373 37.1893 16.7253 38.448 14.464 39.472C12.2027 40.496 9.89867 41.2427 7.552 41.712L5.248 37.296C7.296 36.9547 9.32267 36.3573 11.328 35.504C13.376 34.608 15.296 33.5413 17.088 32.304C18.88 31.024 20.48 29.616 21.888 28.08C23.296 26.5013 24.384 24.816 25.152 23.024C25.9627 21.1893 26.368 19.312 26.368 17.392V12.912ZM27.328 12.912H31.936V17.392C31.936 19.3547 32.3413 21.232 33.152 23.024C33.9627 24.816 35.072 26.5013 36.48 28.08C37.888 29.616 39.488 31.024 41.28 32.304C43.1147 33.584 45.0347 34.6507 47.04 35.504C49.088 36.3573 51.136 36.9547 53.184 37.296L50.88 41.712C48.5333 41.2427 46.2293 40.496 43.968 39.472C41.7067 38.448 39.5733 37.1893 37.568 35.696C35.5627 34.2027 33.792 32.5173 32.256 30.64C30.72 28.72 29.504 26.6507 28.608 24.432C27.7547 22.2133 27.328 19.8667 27.328 17.392V12.912ZM62.011 39.728H114.363V44.016H62.011V39.728ZM85.499 32.24H90.811V41.52H85.499V32.24ZM68.923 29.936H108.219V34.096H68.923V29.936ZM68.923 10.736H107.899V14.96H74.235V32.176H68.923V10.736ZM72.635 20.272H106.363V24.304H72.635V20.272ZM88.187 48.304C94.459 48.304 99.323 49.0933 102.779 50.672C106.235 52.2507 107.963 54.5547 107.963 57.584C107.963 60.6133 106.235 62.9173 102.779 64.496C99.323 66.0747 94.459 66.864 88.187 66.864C81.8723 66.864 76.987 66.0747 73.531 64.496C70.075 62.9173 68.347 60.6133 68.347 57.584C68.347 54.5547 70.075 52.2507 73.531 50.672C76.987 49.0933 81.8723 48.304 88.187 48.304ZM88.123 52.336C83.515 52.336 79.9523 52.784 77.435 53.68C74.9177 54.576 73.659 55.8773 73.659 57.584C73.659 59.3333 74.9177 60.656 77.435 61.552C79.9523 62.4053 83.515 62.832 88.123 62.832C92.8163 62.832 96.4003 62.4053 98.875 61.552C101.392 60.656 102.651 59.3333 102.651 57.584C102.651 55.8773 101.392 54.576 98.875 53.68C96.4003 52.784 92.8163 52.336 88.123 52.336Z" fill="white"/>
<path fill-rule="evenodd" clip-rule="evenodd" d="M201.874 65.7778C202.288 65.9399 202.73 66.0147 203.174 65.9976C203.618 65.9805 204.054 65.8717 204.454 65.6782L215.16 60.4997C215.711 60.2329 216.176 59.8151 216.502 59.2943C216.827 58.7735 217 58.1709 217 57.5559V22.4437C217 21.8286 216.827 21.2259 216.502 20.705C216.176 20.1842 215.711 19.7663 215.16 19.4994L204.454 14.3218C203.849 14.0292 203.168 13.9329 202.507 14.0462C201.845 14.1594 201.234 14.4767 200.76 14.954L180.265 33.7492L171.338 26.9373C170.935 26.6301 170.438 26.4743 169.933 26.4968C169.428 26.5194 168.946 26.7188 168.572 27.0607L165.709 29.6787C165.486 29.8827 165.308 30.1312 165.186 30.4085C165.063 30.6857 165 30.9855 165 31.2887C165 31.5919 165.062 31.8918 165.184 32.1692C165.306 32.4466 165.484 32.6955 165.707 32.8998L173.448 39.9996L165.707 47.0998C165.484 47.3041 165.306 47.553 165.185 47.8303C165.063 48.1077 165.001 48.4076 165.001 48.7107C165.001 49.0138 165.064 49.3135 165.186 49.5907C165.308 49.8679 165.486 50.1165 165.709 50.3205L168.573 52.9385C168.947 53.2804 169.428 53.48 169.933 53.5026C170.438 53.5252 170.935 53.3694 171.338 53.0623L180.265 46.2508L200.76 65.0456C201.077 65.3644 201.456 65.6136 201.874 65.7778ZM204.008 28.1338L188.457 39.9996L204.008 51.8658L204.008 28.1338Z" fill="white"/>
<path d="M765.613 14H731.387C730.154 13.9984 728.932 14.2416 727.793 14.7157C726.653 15.1898 725.618 15.8855 724.746 16.763C723.874 17.6404 723.182 18.6824 722.711 19.8291C722.24 20.9759 721.998 22.2049 722 23.4458V56.5542C721.998 57.7951 722.24 59.0241 722.711 60.1709C723.182 61.3176 723.874 62.3596 724.746 63.237C725.618 64.1145 726.653 64.8102 727.793 65.2843C728.932 65.7584 730.154 66.0016 731.387 66H765.613C766.846 66.0016 768.068 65.7584 769.207 65.2843C770.347 64.8102 771.382 64.1145 772.254 63.237C773.126 62.3596 773.818 61.3176 774.289 60.1709C774.76 59.0241 775.002 57.7951 775 56.5542V23.4458C775.002 22.2049 774.76 20.9759 774.289 19.8291C773.818 18.6824 773.126 17.6404 772.254 16.763C771.382 15.8855 770.347 15.1898 769.207 14.7157C768.068 14.2416 766.846 13.9984 765.613 14ZM754.396 50.6667H749.779C749.702 50.6726 749.624 50.6514 749.56 50.6067C749.496 50.5619 749.449 50.4963 749.427 50.4208L747.618 45.1125H739.391L737.734 50.3333C737.716 50.4279 737.664 50.5122 737.587 50.57C737.511 50.6278 737.416 50.6548 737.32 50.6458H733.18C732.94 50.6458 732.873 50.5125 732.94 50.2292L740.02 29.6458C740.086 29.4208 740.153 29.1792 740.239 28.9125C740.33 28.436 740.374 27.9518 740.372 27.4667C740.366 27.4107 740.38 27.3544 740.413 27.3089C740.446 27.2634 740.495 27.232 740.55 27.2208H746.268C746.446 27.2208 746.533 27.2875 746.558 27.4L754.616 50.2875C754.682 50.5333 754.616 50.6458 754.396 50.6458V50.6667ZM762.015 50.4167C762.015 50.6625 761.928 50.7708 761.729 50.7708H757.398C757.352 50.7744 757.306 50.7675 757.262 50.7506C757.219 50.7337 757.18 50.7074 757.148 50.6734C757.117 50.6394 757.093 50.5988 757.079 50.5543C757.065 50.5099 757.061 50.4629 757.067 50.4167V33.2875C757.067 33.0667 757.158 32.9792 757.357 32.9792H761.75C761.949 32.9792 762.036 33.0875 762.036 33.2875L762.015 50.4167ZM761.551 30.3333C761.291 30.5995 760.977 30.8067 760.631 30.9411C760.284 31.0754 759.914 31.1339 759.543 31.1125C759.18 31.1205 758.819 31.0558 758.482 30.922C758.144 30.7882 757.836 30.5881 757.576 30.3333C757.068 29.7776 756.799 29.0422 756.827 28.2875C756.811 27.9214 756.873 27.5561 757.008 27.2157C757.143 26.8753 757.348 26.5675 757.609 26.3125C758.139 25.8066 758.842 25.5273 759.572 25.5333C759.943 25.514 760.314 25.5734 760.661 25.7077C761.007 25.8419 761.322 26.048 761.584 26.3125C762.072 26.851 762.334 27.559 762.313 28.2875C762.328 28.6624 762.268 29.0365 762.137 29.3878C762.006 29.7391 761.807 30.0606 761.551 30.3333ZM746.293 40.6H740.683C741.014 39.6667 741.345 38.6208 741.656 37.4875C741.966 36.3542 742.339 35.2667 742.67 34.2C742.972 33.2589 743.222 32.3019 743.419 31.3333H743.465C743.618 31.8667 743.776 32.4458 743.949 33.0667C744.123 33.6875 744.326 34.3542 744.546 35.0458C744.765 35.7375 744.96 36.4 745.187 37.0875C745.415 37.775 745.602 38.4 745.784 39C745.966 39.6 746.161 40.1333 746.293 40.6Z" fill="white"/>
</g>
<defs>
<clipPath id="clip0_363_70">
<rect width="943" height="78" fill="white"/>
</clipPath>
</defs>
</svg>
