<svg width="327" height="62" viewBox="0 0 327 62" fill="none" xmlns="http://www.w3.org/2000/svg">
<path d="M0.72 49V4.2H20.816C25.9787 4.2 29.9467 5.24533 32.72 7.336C35.4933 9.384 36.88 12.2 36.88 15.784C36.88 18.216 36.3253 20.264 35.216 21.928C34.1493 23.592 32.6987 24.872 30.864 25.768C29.0293 26.664 27.0453 27.112 24.912 27.112L26.064 25.192C28.624 25.192 30.8853 25.64 32.848 26.536C34.8107 27.432 36.368 28.7547 37.52 30.504C38.672 32.2107 39.248 34.344 39.248 36.904C39.248 40.744 37.7973 43.7307 34.896 45.864C32.0373 47.9547 27.7707 49 22.096 49H0.72ZM7.12 43.816H21.84C25.3813 43.816 28.0907 43.2187 29.968 42.024C31.8453 40.8293 32.784 38.952 32.784 36.392C32.784 33.7893 31.8453 31.8907 29.968 30.696C28.0907 29.5013 25.3813 28.904 21.84 28.904H6.544V23.72H20.24C23.4827 23.72 26 23.1227 27.792 21.928C29.584 20.7333 30.48 18.9413 30.48 16.552C30.48 14.1627 29.584 12.3707 27.792 11.176C26 9.98133 23.4827 9.384 20.24 9.384H7.12V43.816ZM42.6445 49L61.2685 23.592V28.52L43.6685 4.2H50.9645L64.9165 23.336L62.0365 23.4L75.9245 4.2H82.9005L65.4285 28.136V23.528L84.0525 49H76.6925L61.8445 28.584H64.6605L50.0045 49H42.6445ZM108.783 49V4.2H127.663C132.441 4.2 136.644 5.13866 140.271 7.016C143.94 8.89333 146.777 11.5173 148.783 14.888C150.831 18.2587 151.855 22.1627 151.855 26.6C151.855 31.0373 150.831 34.9413 148.783 38.312C146.777 41.6827 143.94 44.3067 140.271 46.184C136.644 48.0613 132.441 49 127.663 49H108.783ZM115.183 43.432H127.279C130.991 43.432 134.191 42.728 136.879 41.32C139.609 39.912 141.721 37.9493 143.215 35.432C144.708 32.872 145.455 29.928 145.455 26.6C145.455 23.2293 144.708 20.2853 143.215 17.768C141.721 15.2507 139.609 13.288 136.879 11.88C134.191 10.472 130.991 9.768 127.279 9.768H115.183V43.432ZM175.866 49.384C172.239 49.384 169.039 48.6373 166.266 47.144C163.535 45.6507 161.402 43.6027 159.866 41C158.372 38.3973 157.626 35.4107 157.626 32.04C157.626 28.6693 158.351 25.6827 159.802 23.08C161.295 20.4773 163.322 18.4507 165.882 17C168.484 15.5067 171.407 14.76 174.65 14.76C177.935 14.76 180.836 15.4853 183.354 16.936C185.871 18.3867 187.834 20.4347 189.242 23.08C190.692 25.6827 191.418 28.7333 191.418 32.232C191.418 32.488 191.396 32.7867 191.354 33.128C191.354 33.4693 191.332 33.7893 191.29 34.088H162.426V29.672H188.09L185.594 31.208C185.636 29.032 185.188 27.0907 184.25 25.384C183.311 23.6773 182.01 22.3547 180.346 21.416C178.724 20.4347 176.826 19.944 174.65 19.944C172.516 19.944 170.618 20.4347 168.954 21.416C167.29 22.3547 165.988 23.6987 165.05 25.448C164.111 27.1547 163.642 29.1173 163.642 31.336V32.36C163.642 34.6213 164.154 36.648 165.178 38.44C166.244 40.1893 167.716 41.5547 169.594 42.536C171.471 43.5173 173.626 44.008 176.058 44.008C178.063 44.008 179.876 43.6667 181.498 42.984C183.162 42.3013 184.612 41.2773 185.85 39.912L189.242 43.88C187.706 45.672 185.786 47.0373 183.482 47.976C181.22 48.9147 178.682 49.384 175.866 49.384ZM209.677 49.384C206.861 49.384 204.173 49 201.613 48.232C199.096 47.464 197.112 46.5253 195.661 45.416L198.221 40.552C199.672 41.5333 201.464 42.3653 203.597 43.048C205.73 43.7307 207.906 44.072 210.125 44.072C212.984 44.072 215.032 43.6667 216.269 42.856C217.549 42.0453 218.189 40.9147 218.189 39.464C218.189 38.3973 217.805 37.5653 217.037 36.968C216.269 36.3707 215.245 35.9227 213.965 35.624C212.728 35.3253 211.341 35.0693 209.805 34.856C208.269 34.6 206.733 34.3013 205.197 33.96C203.661 33.576 202.253 33.064 200.973 32.424C199.693 31.7413 198.669 30.824 197.901 29.672C197.133 28.4773 196.749 26.8987 196.749 24.936C196.749 22.888 197.325 21.096 198.477 19.56C199.629 18.024 201.25 16.8507 203.341 16.04C205.474 15.1867 207.992 14.76 210.893 14.76C213.112 14.76 215.352 15.0373 217.613 15.592C219.917 16.104 221.794 16.8507 223.245 17.832L220.621 22.696C219.085 21.672 217.485 20.968 215.821 20.584C214.157 20.2 212.493 20.008 210.829 20.008C208.141 20.008 206.136 20.456 204.813 21.352C203.49 22.2053 202.829 23.3147 202.829 24.68C202.829 25.832 203.213 26.728 203.981 27.368C204.792 27.9653 205.816 28.4347 207.053 28.776C208.333 29.1173 209.741 29.416 211.277 29.672C212.813 29.8853 214.349 30.184 215.885 30.568C217.421 30.9093 218.808 31.4 220.045 32.04C221.325 32.68 222.349 33.576 223.117 34.728C223.928 35.88 224.333 37.416 224.333 39.336C224.333 41.384 223.736 43.1547 222.541 44.648C221.346 46.1413 219.661 47.3147 217.485 48.168C215.309 48.9787 212.706 49.384 209.677 49.384ZM232.012 49V15.08H238.156V49H232.012ZM235.084 8.552C233.889 8.552 232.886 8.168 232.076 7.4C231.308 6.632 230.924 5.69333 230.924 4.584C230.924 3.432 231.308 2.472 232.076 1.704C232.886 0.935998 233.889 0.551998 235.084 0.551998C236.278 0.551998 237.26 0.935998 238.028 1.704C238.838 2.42933 239.244 3.34666 239.244 4.456C239.244 5.608 238.86 6.58933 238.092 7.4C237.324 8.168 236.321 8.552 235.084 8.552ZM264.735 61.8C261.62 61.8 258.591 61.352 255.647 60.456C252.745 59.6027 250.377 58.3653 248.543 56.744L251.487 52.008C253.065 53.3733 255.007 54.44 257.311 55.208C259.615 56.0187 262.025 56.424 264.543 56.424C268.553 56.424 271.497 55.4853 273.375 53.608C275.252 51.7307 276.191 48.872 276.191 45.032V37.864L276.831 31.144L276.511 24.36V15.08H282.335V44.392C282.335 50.3653 280.841 54.76 277.854 57.576C274.868 60.392 270.495 61.8 264.735 61.8ZM263.967 47.592C260.681 47.592 257.737 46.9093 255.135 45.544C252.575 44.136 250.527 42.1947 248.991 39.72C247.497 37.2453 246.751 34.3867 246.751 31.144C246.751 27.8587 247.497 25 248.991 22.568C250.527 20.0933 252.575 18.1733 255.135 16.808C257.737 15.4427 260.681 14.76 263.967 14.76C266.868 14.76 269.513 15.3573 271.903 16.552C274.292 17.704 276.191 19.496 277.599 21.928C279.049 24.36 279.775 27.432 279.775 31.144C279.775 34.8133 279.049 37.864 277.599 40.296C276.191 42.728 274.292 44.5627 271.903 45.8C269.513 46.9947 266.868 47.592 263.967 47.592ZM264.671 42.216C266.932 42.216 268.937 41.7467 270.687 40.808C272.436 39.8693 273.801 38.568 274.783 36.904C275.807 35.24 276.319 33.32 276.319 31.144C276.319 28.968 275.807 27.048 274.783 25.384C273.801 23.72 272.436 22.44 270.687 21.544C268.937 20.6053 266.932 20.136 264.671 20.136C262.409 20.136 260.383 20.6053 258.591 21.544C256.841 22.44 255.455 23.72 254.431 25.384C253.449 27.048 252.959 28.968 252.959 31.144C252.959 33.32 253.449 35.24 254.431 36.904C255.455 38.568 256.841 39.8693 258.591 40.808C260.383 41.7467 262.409 42.216 264.671 42.216ZM312.186 14.76C314.959 14.76 317.391 15.2933 319.482 16.36C321.615 17.4267 323.279 19.048 324.474 21.224C325.669 23.4 326.266 26.152 326.266 29.48V49H320.122V30.184C320.122 26.8987 319.311 24.424 317.69 22.76C316.111 21.096 313.871 20.264 310.97 20.264C308.794 20.264 306.895 20.6907 305.274 21.544C303.653 22.3973 302.394 23.656 301.498 25.32C300.645 26.984 300.218 29.0533 300.218 31.528V49H294.074V15.08H299.962V24.232L299.002 21.8C300.111 19.5813 301.818 17.8533 304.122 16.616C306.426 15.3787 309.114 14.76 312.186 14.76Z" fill="white"/>
</svg>
