<svg width="397" height="47" viewBox="0 0 397 47" fill="none" xmlns="http://www.w3.org/2000/svg">
<path d="M23.752 46.512C20.3387 46.512 17.1813 45.9573 14.28 44.848C11.4213 43.696 8.92533 42.096 6.792 40.048C4.70133 37.9573 3.05867 35.5253 1.864 32.752C0.669333 29.9787 0.072 26.928 0.072 23.6C0.072 20.272 0.669333 17.2213 1.864 14.448C3.05867 11.6747 4.72267 9.264 6.856 7.216C8.98933 5.12533 11.4853 3.52533 14.344 2.416C17.2453 1.264 20.4027 0.688 23.816 0.688C27.272 0.688 30.4507 1.28533 33.352 2.48C36.296 3.632 38.792 5.36 40.84 7.664L36.68 11.696C34.9733 9.904 33.0533 8.58133 30.92 7.728C28.7867 6.832 26.504 6.384 24.072 6.384C21.5547 6.384 19.208 6.81067 17.032 7.664C14.8987 8.51733 13.0427 9.712 11.464 11.248C9.88533 12.784 8.648 14.6187 7.752 16.752C6.89867 18.8427 6.472 21.1253 6.472 23.6C6.472 26.0747 6.89867 28.3787 7.752 30.512C8.648 32.6027 9.88533 34.416 11.464 35.952C13.0427 37.488 14.8987 38.6827 17.032 39.536C19.208 40.3893 21.5547 40.816 24.072 40.816C26.504 40.816 28.7867 40.3893 30.92 39.536C33.0533 38.64 34.9733 37.2747 36.68 35.44L40.84 39.472C38.792 41.776 36.296 43.5253 33.352 44.72C30.4507 45.9147 27.2507 46.512 23.752 46.512ZM69.2565 46.512C65.8432 46.512 62.6645 45.936 59.7205 44.784C56.8192 43.632 54.3018 42.032 52.1685 39.984C50.0352 37.8933 48.3712 35.4613 47.1765 32.688C45.9818 29.9147 45.3845 26.8853 45.3845 23.6C45.3845 20.3147 45.9818 17.2853 47.1765 14.512C48.3712 11.7387 50.0352 9.328 52.1685 7.28C54.3018 5.18933 56.8192 3.568 59.7205 2.416C62.6218 1.264 65.8005 0.688 69.2565 0.688C72.6698 0.688 75.8058 1.264 78.6645 2.416C81.5658 3.52533 84.0832 5.12533 86.2165 7.216C88.3925 9.264 90.0565 11.6747 91.2085 14.448C92.4032 17.2213 93.0005 20.272 93.0005 23.6C93.0005 26.928 92.4032 29.9787 91.2085 32.752C90.0565 35.5253 88.3925 37.9573 86.2165 40.048C84.0832 42.096 81.5658 43.696 78.6645 44.848C75.8058 45.9573 72.6698 46.512 69.2565 46.512ZM69.2565 40.816C71.7312 40.816 74.0138 40.3893 76.1045 39.536C78.2378 38.6827 80.0725 37.488 81.6085 35.952C83.1872 34.3733 84.4032 32.5387 85.2565 30.448C86.1525 28.3573 86.6005 26.0747 86.6005 23.6C86.6005 21.1253 86.1525 18.8427 85.2565 16.752C84.4032 14.6613 83.1872 12.848 81.6085 11.312C80.0725 9.73333 78.2378 8.51733 76.1045 7.664C74.0138 6.81067 71.7312 6.384 69.2565 6.384C66.7392 6.384 64.4138 6.81067 62.2805 7.664C60.1898 8.51733 58.3552 9.73333 56.7765 11.312C55.1978 12.848 53.9605 14.6613 53.0645 16.752C52.2112 18.8427 51.7845 21.1253 51.7845 23.6C51.7845 26.0747 52.2112 28.3573 53.0645 30.448C53.9605 32.5387 55.1978 34.3733 56.7765 35.952C58.3552 37.488 60.1898 38.6827 62.2805 39.536C64.4138 40.3893 66.7392 40.816 69.2565 40.816ZM102.783 46V1.2H108.031L128.127 35.056H125.311L145.151 1.2H150.399L150.463 46H144.319L144.255 10.864H145.727L128.062 40.56H125.119L107.327 10.864H108.927V46H102.783ZM163.908 46V1.2H169.156L189.252 35.056H186.436L206.276 1.2H211.524L211.588 46H205.444L205.38 10.864H206.852L189.188 40.56H186.244L168.452 10.864H170.052V46H163.908ZM243.593 46.512C237.705 46.512 233.075 44.8267 229.705 41.456C226.334 38.0853 224.649 33.1573 224.649 26.672V1.2H231.049V26.416C231.049 31.408 232.137 35.056 234.312 37.36C236.531 39.664 239.646 40.816 243.657 40.816C247.71 40.816 250.825 39.664 253.001 37.36C255.219 35.056 256.329 31.408 256.329 26.416V1.2H262.537V26.672C262.537 33.1573 260.851 38.0853 257.481 41.456C254.153 44.8267 249.523 46.512 243.593 46.512ZM275.658 46V1.2H280.906L310.538 38H307.786V1.2H314.186V46H308.938L279.306 9.2H282.058V46H275.658ZM327.595 46V1.2H333.995V46H327.595ZM367.44 46.512C364.026 46.512 360.869 45.9573 357.968 44.848C355.109 43.696 352.613 42.096 350.48 40.048C348.389 37.9573 346.746 35.5253 345.552 32.752C344.357 29.9787 343.76 26.928 343.76 23.6C343.76 20.272 344.357 17.2213 345.552 14.448C346.746 11.6747 348.41 9.264 350.544 7.216C352.677 5.12533 355.173 3.52533 358.032 2.416C360.933 1.264 364.09 0.688 367.504 0.688C370.96 0.688 374.138 1.28533 377.04 2.48C379.984 3.632 382.48 5.36 384.528 7.664L380.368 11.696C378.661 9.904 376.741 8.58133 374.608 7.728C372.474 6.832 370.192 6.384 367.76 6.384C365.242 6.384 362.896 6.81067 360.72 7.664C358.586 8.51733 356.73 9.712 355.152 11.248C353.573 12.784 352.336 14.6187 351.44 16.752C350.586 18.8427 350.16 21.1253 350.16 23.6C350.16 26.0747 350.586 28.3787 351.44 30.512C352.336 32.6027 353.573 34.416 355.152 35.952C356.73 37.488 358.586 38.6827 360.72 39.536C362.896 40.3893 365.242 40.816 367.76 40.816C370.192 40.816 372.474 40.3893 374.608 39.536C376.741 38.64 378.661 37.2747 380.368 35.44L384.528 39.472C382.48 41.776 379.984 43.5253 377.04 44.72C374.138 45.9147 370.938 46.512 367.44 46.512ZM385.811 46L406.099 1.2H412.435L432.787 46H426.067L407.955 4.784H410.515L392.403 46H385.811ZM394.451 34.8L396.179 29.68H421.395L423.251 34.8H394.451ZM446.116 46V6.768H430.756V1.2H467.812V6.768H452.452V46H446.116ZM474.783 46V1.2H481.183V46H474.783ZM514.819 46.512C511.406 46.512 508.227 45.936 505.283 44.784C502.382 43.632 499.864 42.032 497.731 39.984C495.598 37.8933 493.934 35.4613 492.739 32.688C491.544 29.9147 490.947 26.8853 490.947 23.6C490.947 20.3147 491.544 17.2853 492.739 14.512C493.934 11.7387 495.598 9.328 497.731 7.28C499.864 5.18933 502.382 3.568 505.283 2.416C508.184 1.264 511.363 0.688 514.819 0.688C518.232 0.688 521.368 1.264 524.227 2.416C527.128 3.52533 529.646 5.12533 531.779 7.216C533.955 9.264 535.619 11.6747 536.771 14.448C537.966 17.2213 538.563 20.272 538.563 23.6C538.563 26.928 537.966 29.9787 536.771 32.752C535.619 35.5253 533.955 37.9573 531.779 40.048C529.646 42.096 527.128 43.696 524.227 44.848C521.368 45.9573 518.232 46.512 514.819 46.512ZM514.819 40.816C517.294 40.816 519.576 40.3893 521.667 39.536C523.8 38.6827 525.635 37.488 527.171 35.952C528.75 34.3733 529.966 32.5387 530.819 30.448C531.715 28.3573 532.163 26.0747 532.163 23.6C532.163 21.1253 531.715 18.8427 530.819 16.752C529.966 14.6613 528.75 12.848 527.171 11.312C525.635 9.73333 523.8 8.51733 521.667 7.664C519.576 6.81067 517.294 6.384 514.819 6.384C512.302 6.384 509.976 6.81067 507.843 7.664C505.752 8.51733 503.918 9.73333 502.339 11.312C500.76 12.848 499.523 14.6613 498.627 16.752C497.774 18.8427 497.347 21.1253 497.347 23.6C497.347 26.0747 497.774 28.3573 498.627 30.448C499.523 32.5387 500.76 34.3733 502.339 35.952C503.918 37.488 505.752 38.6827 507.843 39.536C509.976 40.3893 512.302 40.816 514.819 40.816ZM548.345 46V1.2H553.593L583.225 38H580.473V1.2H586.873V46H581.625L551.993 9.2H554.745V46H548.345Z" fill="white"/>
</svg>
