<svg width="679" height="146" viewBox="0 0 679 146" fill="none" xmlns="http://www.w3.org/2000/svg">
<path d="M659.095 145.08H636C642.717 133.403 647.522 121.675 650.415 109.895C653.412 98.0117 654.91 85.56 654.91 72.54C654.91 59.52 653.412 47.12 650.415 35.34C647.522 23.4567 642.717 11.6767 636 0H659.095C665.502 9.19666 670.358 20.0467 673.665 32.55C676.972 44.95 678.625 58.28 678.625 72.54C678.625 86.8 676.972 100.13 673.665 112.53C670.358 124.827 665.502 135.677 659.095 145.08Z" fill="white"/>
<path d="M19.375 145.08C13.175 135.677 8.36999 124.827 4.95999 112.53C1.65333 100.13 0 86.8 0 72.54C0 58.28 1.65333 44.95 4.95999 32.55C8.36999 20.0467 13.175 9.19666 19.375 0H42.47C35.96 11.6767 31.2067 23.4567 28.21 35.34C25.2133 47.12 23.715 59.52 23.715 72.54C23.715 85.56 25.2133 98.0117 28.21 109.895C31.2067 121.675 35.96 133.403 42.47 145.08H19.375Z" fill="white"/>
</svg>
