<svg width="692" height="232" viewBox="0 0 692 232" fill="none" xmlns="http://www.w3.org/2000/svg">
<path d="M6.8 135.42C6.8 126.127 7.65 117.06 9.35 108.22C11.1633 99.38 13.94 90.9367 17.68 82.89C21.42 74.8433 26.1233 67.42 31.79 60.62H52.53C47.43 67.6467 43.1233 75.24 39.61 83.4C36.0967 91.56 33.4333 100.003 31.62 108.73C29.8067 117.457 28.9 126.297 28.9 135.25C28.9 143.977 29.8067 152.703 31.62 161.43C33.4333 170.043 36.04 178.317 39.44 186.25C42.9533 194.297 47.26 201.833 52.36 208.86H31.79C26.1233 202.173 21.42 194.863 17.68 186.93C13.94 179.11 11.1633 170.837 9.35 162.11C7.65 153.383 6.8 144.487 6.8 135.42ZM685.117 135.42C685.117 144.487 684.21 153.383 682.397 162.11C680.697 170.837 677.977 179.11 674.237 186.93C670.61 194.863 665.907 202.173 660.127 208.86H639.557C644.657 201.833 648.907 194.297 652.307 186.25C655.82 178.317 658.484 170.043 660.297 161.43C662.11 152.703 663.017 143.977 663.017 135.25C663.017 126.297 662.11 117.457 660.297 108.73C658.484 100.003 655.82 91.56 652.307 83.4C648.907 75.24 644.6 67.6467 639.387 60.62H660.127C665.907 67.42 670.61 74.8433 674.237 82.89C677.977 90.9367 680.697 99.38 682.397 108.22C684.21 117.06 685.117 126.127 685.117 135.42Z" fill="white"/>
</svg>
