<svg width="1707" height="305" viewBox="0 0 1707 305" fill="none" xmlns="http://www.w3.org/2000/svg">
<path d="M1592.49 304.516C1570.29 304.516 1550.58 300.025 1533.36 291.044C1516.15 282.063 1502.55 269.714 1492.57 253.997C1482.85 238.03 1477.98 219.818 1477.98 199.361C1477.98 178.904 1482.85 160.817 1492.57 145.1C1502.55 129.383 1516.15 117.159 1533.36 108.427C1550.58 99.4457 1570.29 94.9551 1592.49 94.9551C1614.69 94.9551 1634.4 99.4457 1651.62 108.427C1669.08 117.159 1682.68 129.383 1692.41 145.1C1702.14 160.817 1707 178.904 1707 199.361C1707 219.818 1702.14 238.03 1692.41 253.997C1682.68 269.714 1669.08 282.063 1651.62 291.044C1634.4 300.025 1614.69 304.516 1592.49 304.516ZM1592.49 248.009C1600.72 248.009 1607.96 246.138 1614.19 242.396C1620.68 238.654 1625.8 233.165 1629.54 225.93C1633.28 218.446 1635.15 209.59 1635.15 199.361C1635.15 189.133 1633.28 180.526 1629.54 173.54C1625.8 166.305 1620.68 160.817 1614.19 157.075C1607.96 153.333 1600.72 151.462 1592.49 151.462C1584.51 151.462 1577.27 153.333 1570.79 157.075C1564.55 160.817 1559.43 166.305 1555.44 173.54C1551.7 180.526 1549.83 189.133 1549.83 199.361C1549.83 209.59 1551.7 218.446 1555.44 225.93C1559.43 233.165 1564.55 238.654 1570.79 242.396C1577.27 246.138 1584.51 248.009 1592.49 248.009Z" fill="white"/>
<path d="M1373.4 301.15V98.3257H1444.5V301.15H1373.4ZM1408.95 75.8727C1395.98 75.8727 1385.5 72.2553 1377.51 65.0205C1369.53 57.7857 1365.54 48.8045 1365.54 38.077C1365.54 27.3495 1369.53 18.3683 1377.51 11.1335C1385.5 3.89866 1395.98 0.28125 1408.95 0.28125C1421.92 0.28125 1432.4 3.77393 1440.38 10.7593C1448.37 17.4952 1452.36 26.2268 1452.36 36.9543C1452.36 48.1808 1448.37 57.5362 1440.38 65.0205C1432.65 72.2553 1422.17 75.8727 1408.95 75.8727Z" fill="white"/>
<path d="M1256.09 301.15V23.4824H1327.19V301.15H1256.09Z" fill="white"/>
<path d="M1108.64 304.516C1086.44 304.516 1066.73 300.025 1049.51 291.044C1032.3 282.063 1018.7 269.714 1008.73 253.997C998.996 238.03 994.131 219.818 994.131 199.361C994.131 178.904 998.996 160.817 1008.73 145.1C1018.7 129.383 1032.3 117.159 1049.51 108.427C1066.73 99.4457 1086.44 94.9551 1108.64 94.9551C1130.84 94.9551 1150.55 99.4457 1167.77 108.427C1185.23 117.159 1198.83 129.383 1208.56 145.1C1218.29 160.817 1223.15 178.904 1223.15 199.361C1223.15 219.818 1218.29 238.03 1208.56 253.997C1198.83 269.714 1185.23 282.063 1167.77 291.044C1150.55 300.025 1130.84 304.516 1108.64 304.516ZM1108.64 248.009C1116.87 248.009 1124.11 246.138 1130.35 242.396C1136.83 238.654 1141.95 233.165 1145.69 225.93C1149.43 218.446 1151.3 209.59 1151.3 199.361C1151.3 189.133 1149.43 180.526 1145.69 173.54C1141.95 166.305 1136.83 160.817 1130.35 157.075C1124.11 153.333 1116.87 151.462 1108.64 151.462C1100.66 151.462 1093.42 153.333 1086.94 157.075C1080.7 160.817 1075.59 166.305 1071.59 173.54C1067.85 180.526 1065.98 189.133 1065.98 199.361C1065.98 209.59 1067.85 218.446 1071.59 225.93C1075.59 233.165 1080.7 238.654 1086.94 242.396C1093.42 246.138 1100.66 248.009 1108.64 248.009Z" fill="white"/>
<path d="M865.256 301.147V100.568C865.256 76.1189 872.491 56.6597 886.961 42.19C901.68 27.4709 922.636 20.1113 949.829 20.1113C958.561 20.1113 967.168 20.9845 975.65 22.7308C984.132 24.4772 991.242 27.0967 996.98 30.5894L979.392 80.7342C976.398 78.9879 973.03 77.6157 969.288 76.6178C965.546 75.3705 961.804 74.7468 958.062 74.7468C950.577 74.7468 944.715 76.9921 940.474 81.4827C936.482 85.7238 934.486 92.3349 934.486 101.316V115.91L936.357 145.473V301.147H865.256ZM835.693 158.945V105.807H982.76V158.945H835.693Z" fill="white"/>
<path d="M780.211 304.516C754.265 304.516 734.057 298.154 719.588 285.431C705.118 272.458 697.883 252.999 697.883 227.053V53.043H768.984V226.305C768.984 233.54 770.98 239.277 774.972 243.519C778.963 247.51 784.078 249.506 790.314 249.506C798.797 249.506 806.032 247.385 812.019 243.144L829.607 292.915C823.62 296.907 816.26 299.776 807.528 301.522C798.797 303.518 789.691 304.516 780.211 304.516ZM668.32 158.946V105.807H815.387V158.946H668.32Z" fill="white"/>
<path d="M518.256 301.148V98.323H585.989V157.449L575.885 140.609C581.872 125.391 591.602 114.04 605.074 106.556C618.546 98.822 634.886 94.9551 654.096 94.9551V158.946C650.853 158.447 647.984 158.197 645.489 158.197C643.244 157.948 640.749 157.823 638.005 157.823C623.535 157.823 611.81 161.815 602.829 169.798C593.847 177.532 589.357 190.255 589.357 207.968V301.148H518.256Z" fill="white"/>
<path d="M370.809 304.516C348.605 304.516 328.897 300.025 311.683 291.044C294.469 282.063 280.872 269.714 270.893 253.997C261.164 238.03 256.299 219.818 256.299 199.361C256.299 178.904 261.164 160.817 270.893 145.1C280.872 129.383 294.469 117.159 311.683 108.427C328.897 99.4457 348.605 94.9551 370.809 94.9551C393.012 94.9551 412.721 99.4457 429.935 108.427C447.398 117.159 460.995 129.383 470.724 145.1C480.454 160.817 485.319 178.904 485.319 199.361C485.319 219.818 480.454 238.03 470.724 253.997C460.995 269.714 447.398 282.063 429.935 291.044C412.721 300.025 393.012 304.516 370.809 304.516ZM370.809 248.009C379.041 248.009 386.276 246.138 392.513 242.396C399 238.654 404.114 233.165 407.856 225.93C411.598 218.446 413.469 209.59 413.469 199.361C413.469 189.133 411.598 180.526 407.856 173.54C404.114 166.305 399 160.817 392.513 157.075C386.276 153.333 379.041 151.462 370.809 151.462C362.825 151.462 355.591 153.333 349.104 157.075C342.867 160.817 337.753 166.305 333.761 173.54C330.019 180.526 328.148 189.133 328.148 199.361C328.148 209.59 330.019 218.446 333.761 225.93C337.753 233.165 342.867 238.654 349.104 242.396C355.591 246.138 362.825 248.009 370.809 248.009Z" fill="white"/>
<path d="M0.5 301.15V39.1992H120.249C144.199 39.1992 164.781 43.0661 181.994 50.7999C199.458 58.5337 212.93 69.7601 222.41 84.4793C231.89 98.9489 236.63 116.163 236.63 136.121C236.63 155.83 231.89 172.919 222.41 187.389C212.93 201.858 199.458 213.085 181.994 221.068C164.781 228.802 144.199 232.669 120.249 232.669H41.6637L74.5946 200.486V301.15H0.5ZM74.5946 208.345L41.6637 174.291H115.758C131.226 174.291 142.702 170.923 150.186 164.187C157.92 157.451 161.787 148.096 161.787 136.121C161.787 123.897 157.92 114.417 150.186 107.681C142.702 100.945 131.226 97.5768 115.758 97.5768H41.6637L74.5946 63.5232V208.345Z" fill="white"/>
</svg>
