<svg width="692" height="232" viewBox="0 0 692 232" fill="none" xmlns="http://www.w3.org/2000/svg">
<path d="M6.8 135.42C6.8 126.127 7.65 117.06 9.35 108.22C11.1633 99.38 13.94 90.9367 17.68 82.89C21.42 74.8433 26.1233 67.42 31.79 60.62H52.53C47.43 67.6467 43.1233 75.24 39.61 83.4C36.0967 91.56 33.4333 100.003 31.62 108.73C29.8067 117.457 28.9 126.297 28.9 135.25C28.9 143.977 29.8067 152.703 31.62 161.43C33.4333 170.043 36.04 178.317 39.44 186.25C42.9533 194.297 47.26 201.833 52.36 208.86H31.79C26.1233 202.173 21.42 194.863 17.68 186.93C13.94 179.11 11.1633 170.837 9.35 162.11C7.65 153.383 6.8 144.487 6.8 135.42ZM685.117 135.42C685.117 144.487 684.21 153.383 682.397 162.11C680.697 170.837 677.977 179.11 674.237 186.93C670.61 194.863 665.907 202.173 660.127 208.86H639.557C644.657 201.833 648.907 194.297 652.307 186.25C655.82 178.317 658.484 170.043 660.297 161.43C662.11 152.703 663.017 143.977 663.017 135.25C663.017 126.297 662.11 117.457 660.297 108.73C658.484 100.003 655.82 91.56 652.307 83.4C648.907 75.24 644.6 67.6467 639.387 60.62H660.127C665.907 67.42 670.61 74.8433 674.237 82.89C677.977 90.9367 680.697 99.38 682.397 108.22C684.21 117.06 685.117 126.127 685.117 135.42Z" fill="white"/>
<path d="M220.85 181.2C214.15 181.2 208.15 179.9 202.85 177.3C197.65 174.7 193.6 170.75 190.7 165.45C187.8 160.05 186.35 153.2 186.35 144.9V99.3H209.75V141.45C209.75 148.15 211.15 153.1 213.95 156.3C216.85 159.4 220.9 160.95 226.1 160.95C229.7 160.95 232.9 160.2 235.7 158.7C238.5 157.1 240.7 154.7 242.3 151.5C243.9 148.2 244.7 144.1 244.7 139.2V99.3H268.1V180H245.9V157.8L249.95 164.25C247.25 169.85 243.25 174.1 237.95 177C232.75 179.8 227.05 181.2 220.85 181.2ZM316.929 181.2C310.029 181.2 303.379 180.4 296.979 178.8C290.679 177.1 285.679 175 281.979 172.5L289.779 155.7C293.479 158 297.829 159.9 302.829 161.4C307.929 162.8 312.929 163.5 317.829 163.5C323.229 163.5 327.029 162.85 329.229 161.55C331.529 160.25 332.679 158.45 332.679 156.15C332.679 154.25 331.779 152.85 329.979 151.95C328.279 150.95 325.979 150.2 323.079 149.7C320.179 149.2 316.979 148.7 313.479 148.2C310.079 147.7 306.629 147.05 303.129 146.25C299.629 145.35 296.429 144.05 293.529 142.35C290.629 140.65 288.279 138.35 286.479 135.45C284.779 132.55 283.929 128.8 283.929 124.2C283.929 119.1 285.379 114.6 288.279 110.7C291.279 106.8 295.579 103.75 301.179 101.55C306.779 99.25 313.479 98.1 321.279 98.1C326.779 98.1 332.379 98.7 338.079 99.9C343.779 101.1 348.529 102.85 352.329 105.15L344.529 121.8C340.629 119.5 336.679 117.95 332.679 117.15C328.779 116.25 324.979 115.8 321.279 115.8C316.079 115.8 312.279 116.5 309.879 117.9C307.479 119.3 306.279 121.1 306.279 123.3C306.279 125.3 307.129 126.8 308.829 127.8C310.629 128.8 312.979 129.6 315.879 130.2C318.779 130.8 321.929 131.35 325.329 131.85C328.829 132.25 332.329 132.9 335.829 133.8C339.329 134.7 342.479 136 345.279 137.7C348.179 139.3 350.529 141.55 352.329 144.45C354.129 147.25 355.029 150.95 355.029 155.55C355.029 160.55 353.529 165 350.529 168.9C347.529 172.7 343.179 175.7 337.479 177.9C331.879 180.1 325.029 181.2 316.929 181.2ZM409.516 181.2C400.316 181.2 392.216 179.4 385.216 175.8C378.316 172.2 372.966 167.3 369.166 161.1C365.366 154.8 363.466 147.65 363.466 139.65C363.466 131.55 365.316 124.4 369.016 118.2C372.816 111.9 377.966 107 384.466 103.5C390.966 99.9 398.316 98.1 406.516 98.1C414.416 98.1 421.516 99.8 427.816 103.2C434.216 106.5 439.266 111.3 442.966 117.6C446.666 123.8 448.516 131.25 448.516 139.95C448.516 140.85 448.466 141.9 448.366 143.1C448.266 144.2 448.166 145.25 448.066 146.25H382.516V132.6H435.766L426.766 136.65C426.766 132.45 425.916 128.8 424.216 125.7C422.516 122.6 420.166 120.2 417.166 118.5C414.166 116.7 410.666 115.8 406.666 115.8C402.666 115.8 399.116 116.7 396.016 118.5C393.016 120.2 390.666 122.65 388.966 125.85C387.266 128.95 386.416 132.65 386.416 136.95V140.55C386.416 144.95 387.366 148.85 389.266 152.25C391.266 155.55 394.016 158.1 397.516 159.9C401.116 161.6 405.316 162.45 410.116 162.45C414.416 162.45 418.166 161.8 421.366 160.5C424.666 159.2 427.666 157.25 430.366 154.65L442.816 168.15C439.116 172.35 434.466 175.6 428.866 177.9C423.266 180.1 416.816 181.2 409.516 181.2ZM464.095 180V99.3H486.445V122.1L483.295 115.5C485.695 109.8 489.545 105.5 494.845 102.6C500.145 99.6 506.595 98.1 514.195 98.1V119.7C513.195 119.6 512.295 119.55 511.495 119.55C510.695 119.45 509.845 119.4 508.945 119.4C502.545 119.4 497.345 121.25 493.345 124.95C489.445 128.55 487.495 134.2 487.495 141.9V180H464.095Z" fill="white"/>
</svg>
