<svg width="18" height="21" viewBox="0 0 18 21" fill="none" xmlns="http://www.w3.org/2000/svg">
<path d="M0.00319345 2.78441C0.00319345 1.21833 1.31351 -0.150931 3.00595 0.0134232C8.51685 0.550146 13.6225 3.1004 17.314 7.16019C18.453 8.40907 18.0985 10.263 16.8042 11.1853L16.3539 11.5067L15.9675 10.9414L15.959 10.9299C12.5635 6.31644 7.03909 3.31411 0.801517 3.31411H0.00319345V2.78441ZM14.6583 11.8396L15.0606 12.4289L10.8593 15.4281L10.6443 15.5852V17.7856C10.6443 18.0632 10.5322 18.3295 10.3325 18.5258C10.1329 18.7222 9.86219 18.8324 9.57988 18.8324C9.29758 18.8324 9.02684 18.7222 8.82722 18.5258C8.6276 18.3295 8.51545 18.0632 8.51545 17.7856V17.7228C8.49842 17.591 8.4311 17.4706 8.32712 17.3858C8.22314 17.3011 8.09029 17.2583 7.95548 17.2663C7.82067 17.2743 7.69399 17.3324 7.60111 17.4288C7.50823 17.5252 7.4561 17.6528 7.45528 17.7856V19.3569C7.45531 19.6255 7.35037 19.8838 7.16217 20.0785C6.97397 20.2731 6.7169 20.3891 6.44414 20.4026C6.17138 20.416 5.90379 20.3258 5.69674 20.1507C5.48969 19.9756 5.35901 19.7288 5.33174 19.4616L3.79896 20.5503C2.21402 21.6746 -0.00106405 20.5618 3.8348e-07 18.6388L0.00319345 4.88332H0.801517C6.50048 4.88332 11.548 7.6229 14.6583 11.8396ZM4.26198 9.4109C4.54429 9.4109 4.81503 9.30061 5.01465 9.10429C5.21427 8.90797 5.32642 8.6417 5.32642 8.36406C5.32642 8.08642 5.21427 7.82015 5.01465 7.62383C4.81503 7.42751 4.54429 7.31722 4.26198 7.31722C3.97968 7.31722 3.70894 7.42751 3.50932 7.62383C3.3097 7.82015 3.19755 8.08642 3.19755 8.36406C3.19755 8.6417 3.3097 8.90797 3.50932 9.10429C3.70894 9.30061 3.97968 9.4109 4.26198 9.4109ZM8.51971 12.5493C8.80201 12.5493 9.07276 12.439 9.27238 12.2427C9.472 12.0464 9.58414 11.7801 9.58414 11.5025C9.58414 11.2248 9.472 10.9586 9.27238 10.7623C9.07276 10.5659 8.80201 10.4556 8.51971 10.4556C8.2374 10.4556 7.96666 10.5659 7.76704 10.7623C7.56742 10.9586 7.45528 11.2248 7.45528 11.5025C7.45528 11.7801 7.56742 12.0464 7.76704 12.2427C7.96666 12.439 8.2374 12.5493 8.51971 12.5493ZM4.26198 15.6877C4.54429 15.6877 4.81503 15.5775 5.01465 15.3811C5.21427 15.1848 5.32642 14.9185 5.32642 14.6409C5.32642 14.3633 5.21427 14.097 5.01465 13.9007C4.81503 13.7044 4.54429 13.5941 4.26198 13.5941C3.97968 13.5941 3.70894 13.7044 3.50932 13.9007C3.3097 14.097 3.19755 14.3633 3.19755 14.6409C3.19755 14.9185 3.3097 15.1848 3.50932 15.3811C3.70894 15.5775 3.97968 15.6877 4.26198 15.6877Z" fill="white"/>
</svg>
