<svg width="100" height="100" viewBox="0 0 100 100" fill="none" xmlns="http://www.w3.org/2000/svg">
<path d="M76.5625 0H23.4375C10.4933 0 0 10.4933 0 23.4375V76.5625C0 89.5067 10.4933 100 23.4375 100H76.5625C89.5067 100 100 89.5067 100 76.5625V23.4375C100 10.4933 89.5067 0 76.5625 0Z" fill="#E14E1D"/>
<path d="M18.75 14.8447L22.1133 52.5764H65.3594L63.9082 68.76L49.984 72.5248L36.0859 68.7654L35.1566 58.374H22.6328L24.4238 78.4057L49.9812 85.5041L75.5711 78.4057L79.0019 40.1006H33.525L32.3832 27.3232H80.1324L81.25 14.8447H18.75Z" fill="white"/>
<path d="M50 14.8447H18.75L22.1133 52.5764H50V40.1006H33.525L32.3832 27.3232H50V14.8447ZM50 72.5193L49.984 72.5248L36.0859 68.7654L35.1566 58.374H22.6328L24.4238 78.4057L49.9813 85.5041L50.0004 85.4986L50 72.5193Z" fill="#EBEBEB"/>
</svg>
