<svg width="100" height="100" viewBox="0 0 100 100" fill="none" xmlns="http://www.w3.org/2000/svg">
<path d="M0 23C0 10.2975 10.2975 0 23 0H77C89.7025 0 100 10.2975 100 23V77C100 89.7025 89.7025 100 77 100H23C10.2975 100 0 89.7025 0 77V23Z" fill="#F7DF1E"/>
<path d="M26.2953 83.567L33.9477 78.9357C35.4242 81.5533 36.7672 83.7682 39.9887 83.7682C43.0766 83.7682 45.0238 82.5604 45.0238 77.8619V45.9096H54.4211V77.9947C54.4211 87.7279 48.7156 92.1584 40.3914 92.1584C32.8738 92.1584 28.5102 88.265 26.2949 83.5662M59.5254 82.56L67.177 78.1299C69.1914 81.4193 71.8094 83.8357 76.4406 83.8357C80.3348 83.8357 82.8176 81.8889 82.8176 79.2037C82.8176 75.9818 80.2668 74.8404 75.9707 72.9615L73.6219 71.9537C66.8418 69.0682 62.3445 65.4432 62.3445 57.7908C62.3445 50.7424 67.7145 45.3721 76.1055 45.3721C82.0797 45.3721 86.3758 47.4533 89.4633 52.8904L82.1461 57.5896C80.5348 54.7033 78.7902 53.5623 76.1051 53.5623C73.3527 53.5623 71.6074 55.3076 71.6074 57.5896C71.6074 60.4088 73.3527 61.5506 77.3801 63.2959L79.7293 64.3025C87.7176 67.7264 92.2148 71.2166 92.2148 79.0697C92.2148 87.5283 85.5695 92.1596 76.6418 92.1596C67.9156 92.1596 62.277 87.9979 59.525 82.5604" fill="black"/>
</svg>
