<svg width="81" height="81" viewBox="0 0 81 81" fill="none" xmlns="http://www.w3.org/2000/svg">
<path d="M61.8068 0H18.9205C8.47098 0 0 8.47098 0 18.9205V61.8068C0 72.2563 8.47098 80.7273 18.9205 80.7273H61.8068C72.2563 80.7273 80.7273 72.2563 80.7273 61.8068V18.9205C80.7273 8.47098 72.2563 0 61.8068 0Z" fill="#00005B"/>
<path d="M17.0293 57.6069V22.9614C17.0293 22.7261 17.1302 22.5915 17.3658 22.5915C17.9375 22.5915 18.4758 22.5915 19.2493 22.5577C20.0566 22.5243 20.8976 22.5243 21.8058 22.4906C22.7139 22.4568 23.6893 22.4568 24.7321 22.4234C25.7746 22.3896 26.7837 22.3896 27.7928 22.3896C30.5511 22.3896 32.8383 22.7261 34.7221 23.4325C36.4106 24.0059 37.9502 24.948 39.2293 26.1905C40.3129 27.2781 41.1503 28.5857 41.6849 30.025C42.1894 31.4377 42.4584 32.8842 42.4584 34.3978C42.4584 37.2906 41.7857 39.6787 40.4402 41.5624C39.0946 43.4459 37.2111 44.8586 35.0249 45.6659C32.7374 46.5069 30.2146 46.8096 27.4567 46.8096C26.6494 46.8096 26.1111 46.8096 25.7746 46.7759C25.4385 46.7425 24.9674 46.7425 24.3285 46.7425V57.5398C24.3619 57.775 24.1938 57.9768 23.9583 58.0106H17.4329C17.1639 58.0106 17.0293 57.8759 17.0293 57.5732V57.6069ZM24.3619 29.1168V40.4186C24.833 40.4524 25.2701 40.4861 25.6737 40.4861H27.4567C28.7685 40.4861 30.0803 40.2843 31.3246 39.8807C32.4012 39.5779 33.3428 38.9387 34.0829 38.0977C34.7893 37.257 35.1258 36.1133 35.1258 34.6334C35.1573 33.5822 34.8889 32.5438 34.3519 31.6395C33.7802 30.7651 32.9729 30.0925 31.9976 29.7223C30.7529 29.2177 29.4074 29.0159 28.0284 29.0496C27.1539 29.0496 26.3801 29.0496 25.7412 29.0834C25.0683 29.0496 24.5975 29.0834 24.3619 29.1168ZM47.302 31.1016H53.1885C53.525 31.1016 53.7939 31.3368 53.8949 31.6395C53.9958 31.9088 54.0629 32.1778 54.0967 32.4806C54.1638 32.817 54.2313 33.1869 54.2648 33.5234C54.2985 33.8933 54.3322 34.2969 54.3322 34.7343C55.3421 33.5552 56.5626 32.5742 57.9312 31.8414C59.4786 30.9669 61.2612 30.5295 63.0438 30.5295C63.2794 30.4961 63.4812 30.6642 63.515 30.8998V37.5932C63.515 37.8625 63.3466 37.9634 62.9767 37.9634C61.7658 37.9296 60.5211 38.0306 59.3439 38.2995C58.3685 38.5014 57.4267 38.8041 56.5185 39.2077C55.8793 39.5105 55.2738 39.9141 54.803 40.4524V57.6069C54.803 57.9434 54.6684 58.0777 54.3657 58.0777H47.7394C47.4704 58.1115 47.2349 57.9434 47.2011 57.6741V38.905C47.2011 38.0977 47.2011 37.257 47.1677 36.3823C47.1339 35.5078 47.1339 34.6334 47.1002 33.7586C47.1002 32.9851 47.033 32.245 46.9659 31.4715C46.9321 31.3034 47.033 31.135 47.2011 31.1016C47.2011 31.0678 47.2686 31.0678 47.302 31.1016Z" fill="#9999FF"/>
</svg>
