<svg width="100" height="100" viewBox="0 0 100 100" fill="none" xmlns="http://www.w3.org/2000/svg">
<path d="M76.5625 0H23.4375C10.4933 0 0 10.4933 0 23.4375V76.5625C0 89.5067 10.4933 100 23.4375 100H76.5625C89.5067 100 100 89.5067 100 76.5625V23.4375C100 10.4933 89.5067 0 76.5625 0Z" fill="#0277BD"/>
<path d="M20.9973 40.099L22.1152 52.5764H50.0375V40.099H20.9973ZM50.0371 14.8447H18.75L19.8844 27.3221H50.0371V14.8447ZM50.0371 85.4857V72.5041L49.9824 72.5186L36.0863 68.7666L35.198 58.815H22.6727L24.4207 78.4065L49.9797 85.5018L50.0371 85.4857Z" fill="#EBEBEB"/>
<path d="M65.3566 52.5764L63.9082 68.7584L49.9922 72.5146V85.4955L75.5715 78.4064L75.759 76.2982L78.691 43.4498L78.9953 40.099L81.248 14.8447H49.9922V27.3221H67.5738L66.4387 40.099H49.9922V52.5764H65.3566Z" fill="white"/>
</svg>
