<svg width="82" height="81" viewBox="0 0 82 81" fill="none" xmlns="http://www.w3.org/2000/svg">
<path d="M68.3867 0H13.6133C6.09487 0 0 6.16504 0 13.77V67.1004C0 74.7054 6.09487 80.8704 13.6133 80.8704H68.3867C75.9051 80.8704 82 74.7054 82 67.1004V13.77C82 6.16504 75.9051 0 68.3867 0Z" fill="white"/>
<path d="M61.6208 30.456C60.9396 30.2223 60.2527 30.0058 59.5607 29.8067C59.677 29.3317 59.784 28.8625 59.879 28.4015C61.4385 20.8312 60.419 14.7325 56.9367 12.7245C53.598 10.7995 48.1377 12.8067 42.6232 17.606C42.0798 18.0798 41.5483 18.5673 41.0295 19.068C40.6822 18.735 40.3287 18.4086 39.9692 18.0887C34.1897 12.9572 28.3967 10.7945 24.9183 12.8082C21.5825 14.7392 20.5947 20.4725 21.9987 27.647C22.1384 28.3575 22.2962 29.0644 22.4718 29.767C21.6518 30 20.8605 30.248 20.1032 30.512C13.3272 32.8745 9 36.5767 9 40.417C9 44.3832 13.6455 48.3615 20.703 50.7737C21.2752 50.9684 21.8521 51.1489 22.4333 51.315C22.2446 52.0716 22.077 52.8334 21.9307 53.5995C20.5922 60.6495 21.6375 66.2472 24.9642 68.166C28.4002 70.1475 34.1672 68.111 39.7825 63.2022C40.2378 62.8031 40.6831 62.3927 41.118 61.9715C41.6799 62.5136 42.2568 63.04 42.848 63.55C48.2875 68.2305 53.6595 70.1205 56.983 68.1965C60.4158 66.2092 61.5315 60.1957 60.083 52.8795C59.9689 52.3063 59.8409 51.7359 59.6992 51.169C60.1042 51.049 60.5018 50.9255 60.8893 50.797C68.2263 48.3662 73 44.4362 73 40.417C73 36.5627 68.533 32.8355 61.6208 30.456ZM60.0295 48.202C59.6792 48.3176 59.3208 48.4297 58.9545 48.5382C58.1445 45.974 57.0515 43.2475 55.7137 40.4302C56.9902 37.6802 58.0412 34.9885 58.8285 32.441C59.4832 32.6305 60.1185 32.8302 60.731 33.041C66.6535 35.08 70.266 38.0942 70.266 40.417C70.266 42.891 66.3645 46.1027 60.0295 48.202ZM57.401 53.4105C58.0415 56.6455 58.1327 59.5705 57.7085 61.8572C57.3275 63.912 56.561 65.2817 55.613 65.8305C53.5962 66.998 49.283 65.4805 44.6312 61.4775C44.0814 61.0033 43.5447 60.5139 43.022 60.01C44.8255 58.0377 46.6277 55.745 48.3867 53.1985C51.4807 52.924 54.4038 52.475 57.0545 51.8622C57.1853 52.3892 57.3008 52.9053 57.401 53.4105ZM30.819 65.6287C28.8485 66.3245 27.279 66.3445 26.3302 65.7975C24.3115 64.6332 23.4722 60.1385 24.617 54.1095C24.7531 53.397 24.9089 52.6885 25.0842 51.9847C27.7057 52.5647 30.6075 52.9817 33.7087 53.2332C35.4797 55.725 37.334 58.0152 39.2027 60.0207C38.8056 60.405 38.399 60.7794 37.9835 61.1437C35.5002 63.3142 33.012 64.8542 30.819 65.6287ZM21.5875 48.1867C18.4667 47.12 15.8895 45.7337 14.123 44.221C12.5355 42.8617 11.7343 41.512 11.7343 40.417C11.7343 38.0865 15.2085 35.114 21.0033 33.0937C21.7065 32.8487 22.4425 32.6175 23.2063 32.4005C24.0073 35.0055 25.0578 37.7292 26.3255 40.4835C25.0413 43.2785 23.9757 46.0457 23.167 48.6815C22.6365 48.5295 22.1099 48.3645 21.5875 48.1867ZM24.682 27.1217C23.4793 20.975 24.278 16.3382 26.2882 15.1745C28.4293 13.935 33.1637 15.7022 38.154 20.1332C38.4794 20.4228 38.7996 20.7183 39.1143 21.0195C37.2548 23.0162 35.4175 25.2895 33.6623 27.7665C30.6523 28.0455 27.771 28.4935 25.122 29.0937C24.9588 28.4403 24.812 27.7826 24.682 27.1217ZM52.2887 33.939C51.663 32.8582 51.0141 31.791 50.3425 30.7382C52.3845 30.9965 54.341 31.3392 56.1782 31.7582C55.6267 33.5262 54.9393 35.3745 54.13 37.2695C53.5385 36.1471 52.9246 35.0367 52.2887 33.939ZM41.0308 22.9737C42.2918 24.34 43.5548 25.8652 44.797 27.5202C42.277 27.4012 39.7528 27.4007 37.2327 27.5187C38.4762 25.879 39.75 24.3557 41.0308 22.9737ZM29.7005 33.9575C29.0726 35.0464 28.4702 36.1499 27.8937 37.267C27.0977 35.3787 26.4165 33.522 25.8603 31.729C27.6863 31.3205 29.6335 30.9865 31.6625 30.733C30.9834 31.7922 30.3292 32.8675 29.7005 33.9575ZM31.7208 50.2952C29.6245 50.0612 27.648 49.7445 25.8225 49.347C26.3875 47.522 27.0837 45.6257 27.897 43.697C28.4757 44.8149 29.0806 45.919 29.7113 47.0085C30.3598 48.1285 31.0313 49.2255 31.7208 50.2952ZM41.1063 58.0527C39.8103 56.6547 38.5178 55.108 37.2555 53.4445C38.481 53.4925 39.7303 53.517 41 53.517C42.3045 53.517 43.594 53.4877 44.8633 53.4312C43.617 55.1247 42.3588 56.6737 41.1063 58.0527ZM54.1558 43.5985C55.0113 45.5485 55.7322 47.4347 56.3047 49.2285C54.4492 49.652 52.4458 49.993 50.3348 50.2462C51.0112 49.1739 51.6663 48.0881 52.2995 46.9897C52.9434 45.8732 53.5623 44.7425 54.1558 43.5985ZM49.9313 45.6237C48.9617 47.3078 47.9378 48.9599 46.861 50.5775C44.9104 50.7157 42.9555 50.7843 41 50.7832C39.0082 50.7832 37.071 50.7212 35.2055 50.6002C34.1005 48.9864 33.057 47.3314 32.0772 45.6387C31.102 43.955 30.1913 42.2349 29.3468 40.482C30.1892 38.7286 31.0973 37.0077 32.0693 35.3227L32.069 35.323C33.0404 33.6375 34.0756 31.9895 35.1723 30.3827C37.0755 30.2387 39.0273 30.1637 40.9998 30.1637C42.9813 30.1637 44.9358 30.2395 46.8385 30.3845C47.9241 31.9889 48.9526 33.6312 49.9222 35.3082C50.8973 36.9895 51.8174 38.7021 52.6813 40.4432C51.8263 42.2021 50.909 43.93 49.9313 45.6237ZM55.5713 15.0927C57.7143 16.3287 58.5477 21.313 57.2012 27.8492C57.1149 28.2665 57.0191 28.6907 56.9137 29.1217C54.2582 28.5087 51.375 28.053 48.3563 27.7697C46.5978 25.2655 44.7755 22.9887 42.9463 21.0177C43.4257 20.5556 43.9165 20.1055 44.4183 19.6677C49.1433 15.556 53.5593 13.9325 55.5713 15.0927ZM41 34.702C44.1562 34.702 46.715 37.2607 46.715 40.417C46.715 43.5732 44.1562 46.132 41 46.132C37.8438 46.132 35.285 43.5732 35.285 40.417C35.285 37.2607 37.8438 34.702 41 34.702Z" fill="#00D8FF"/>
</svg>
