<svg width="82" height="81" viewBox="0 0 82 81" fill="none" xmlns="http://www.w3.org/2000/svg">
<path d="M62.5334 0H19.647C9.19754 0 0.726562 8.47098 0.726562 18.9205V61.8068C0.726562 72.2563 9.19754 80.7273 19.647 80.7273H62.5334C72.9829 80.7273 81.4538 72.2563 81.4538 61.8068V18.9205C81.4538 8.47098 72.9829 0 62.5334 0Z" fill="#00005B"/>
<path d="M33.8859 49.2315H21.3732L18.8167 57.1695C18.7496 57.4723 18.4806 57.6741 18.1779 57.6407H11.854C11.4841 57.6407 11.3832 57.4388 11.4841 57.0352L22.3151 25.9886C22.416 25.6525 22.5169 25.3498 22.6513 24.9461C22.7859 24.2398 22.8531 23.4996 22.8531 22.7595C22.8197 22.5915 22.954 22.4234 23.1221 22.3896H31.834C32.0696 22.3896 32.2376 22.4906 32.2714 22.6586L44.5486 56.9677C44.6495 57.3379 44.5486 57.506 44.2124 57.506H37.1822C36.9469 57.5398 36.7114 57.3714 36.6442 57.1361L33.8859 49.0634V49.2315ZM23.3242 42.5377H31.8678C31.6659 41.8314 31.3966 40.9907 31.0939 40.1159C30.7912 39.2077 30.4885 38.2324 30.1857 37.2233C29.8496 36.1805 29.5468 35.1714 29.2104 34.1288C28.8739 33.0863 28.5715 32.1107 28.3022 31.135C28.0332 30.1934 27.7976 29.3186 27.5621 28.5114H27.4949C27.1922 29.9578 26.8223 31.4043 26.3512 32.8505C25.8466 34.465 25.3421 36.147 24.8041 37.8287C24.3667 39.5442 23.8285 41.125 23.3242 42.5377ZM64.3605 46.2042H53.6979C53.8322 47.247 54.1687 48.2895 54.7404 49.1977C55.3458 50.1059 56.1868 50.8123 57.1959 51.2159C58.5415 51.7879 60.0214 52.0907 61.5013 52.0569C62.6788 52.0232 63.8559 51.9223 64.9997 51.687C66.0255 51.5528 67.0309 51.2929 67.9932 50.9132C68.1613 50.7788 68.2622 50.846 68.2622 51.1825V56.3288C68.2622 56.4632 68.2288 56.5978 68.195 56.7325C68.1279 56.8334 68.0604 56.9006 67.9595 56.9677C66.8838 57.4402 65.7542 57.7791 64.596 57.9768C63.0226 58.2795 61.4215 58.4148 59.8196 58.3805C57.2631 58.3805 55.1106 57.9768 53.3614 57.2033C51.7131 56.4969 50.267 55.3869 49.1232 54.0079C48.0582 52.712 47.2685 51.2126 46.8023 49.6014C46.3315 48.0206 46.0959 46.3723 46.0959 44.6906C46.0959 42.8742 46.3649 41.0916 46.937 39.3424C47.4731 37.6582 48.3297 36.0935 49.4597 34.7343C50.5697 33.3887 51.9487 32.3125 53.5295 31.5386C55.1106 30.7651 56.9941 30.4961 59.147 30.4961C60.9296 30.4624 62.7122 30.7988 64.3605 31.5386C65.7395 32.1441 66.9504 33.0523 67.8923 34.2298C68.7667 35.3732 69.4731 36.6516 69.9105 38.0643C70.3479 39.4095 70.5497 40.7888 70.5497 42.1678C70.5497 42.9751 70.5159 43.6815 70.4822 44.3207C70.415 44.9595 70.3813 45.4307 70.3479 45.7334C70.3141 45.9686 70.1123 46.1705 69.8767 46.1705C69.6749 46.1705 69.305 46.2042 68.7667 46.2379C68.2288 46.3051 67.5896 46.3388 66.816 46.3388C66.0422 46.3388 65.2349 46.2042 64.3605 46.2042ZM53.6979 41.2934H60.7949C61.6697 41.2934 62.3086 41.2934 62.7122 41.2596C62.9815 41.2259 63.2505 41.1587 63.486 40.9907V40.6542C63.4871 40.2311 63.4189 39.8106 63.2842 39.4095C62.6788 37.526 60.8958 36.2479 58.9114 36.3151C57.9985 36.264 57.0903 36.4781 56.2965 36.9318C55.5026 37.3854 54.857 38.0591 54.4376 38.8716C54.034 39.6451 53.7988 40.4524 53.6979 41.2934Z" fill="#9999FF"/>
</svg>
