<svg width="80" height="80" viewBox="0 0 80 80" fill="none" xmlns="http://www.w3.org/2000/svg">
<path d="M61.25 0H18.75C8.39466 0 0 8.39466 0 18.75V61.25C0 71.6053 8.39466 80 18.75 80H61.25C71.6053 80 80 71.6053 80 61.25V18.75C80 8.39466 71.6053 0 61.25 0Z" fill="#F03C2E"/>
<mask id="mask0_289_279" style="mask-type:luminance" maskUnits="userSpaceOnUse" x="8" y="8" width="64" height="64">
<path d="M8.75 8.75H71.25V71.25H8.75V8.75Z" fill="white"/>
</mask>
<g mask="url(#mask0_289_279)">
<path d="M70.0724 37.2167L42.7852 9.92953C42.2226 9.36631 41.5055 8.98272 40.7247 8.82735C39.9439 8.67197 39.1346 8.7518 38.3992 9.05672C37.9111 9.25929 37.4676 9.55585 37.0939 9.92953L31.4299 15.5936L38.6174 22.7811C40.2892 22.1952 42.2033 22.5955 43.5352 23.9277C44.1693 24.5628 44.612 25.3636 44.8126 26.2384C45.0133 27.1132 44.9638 28.0268 44.6699 28.8748L51.5977 35.8027C53.2736 35.2245 55.2071 35.5973 56.5449 36.9392C57.2151 37.609 57.6714 38.4627 57.8562 39.392C58.0409 40.3214 57.9457 41.2846 57.5827 42.1598C57.0961 43.3333 56.1634 44.2654 54.9897 44.7514C53.816 45.2374 52.4973 45.2374 51.3236 44.7514C50.7424 44.5105 50.2142 44.1577 49.7696 43.7127C48.3633 42.3064 48.0158 40.2361 48.7267 38.5036L42.2658 32.0427V49.0448C42.7348 49.2768 43.1634 49.5828 43.5352 49.9511C44.4334 50.8493 44.938 52.0676 44.938 53.3378C44.938 54.6081 44.4334 55.8263 43.5352 56.7245C42.637 57.6227 41.4187 58.1274 40.1485 58.1274C38.8782 58.1274 37.66 57.6227 36.7617 56.7245C36.0914 56.0549 35.6348 55.2015 35.4498 54.2723C35.2648 53.3431 35.3596 52.3798 35.7224 51.5045C35.9633 50.9234 36.3165 50.3955 36.7617 49.9511C37.2246 49.4902 37.7383 49.1405 38.3302 48.9061V31.7458C37.7428 31.5058 37.2095 31.1506 36.7617 30.7011C36.0893 30.0293 35.6321 29.1725 35.4484 28.2399C35.2647 27.3073 35.3629 26.3411 35.7305 25.4645L28.6408 18.3792L9.92987 37.0705C9.36659 37.6334 8.98294 38.3507 8.82746 39.1317C8.67199 39.9127 8.75167 40.7223 9.05644 41.458C9.25912 41.9464 9.5559 42.3901 9.92987 42.7639L37.2189 70.0489C37.5926 70.4226 38.0361 70.7192 38.5242 70.9217C39.5106 71.3296 40.6185 71.3296 41.6049 70.9217C42.093 70.7192 42.5365 70.4226 42.9102 70.0489L70.0724 42.9298C70.4464 42.5561 70.7431 42.1124 70.9456 41.624C71.148 41.1355 71.2523 40.612 71.2524 40.0833C71.2523 39.5545 71.1481 39.0309 70.9456 38.5424C70.7432 38.054 70.4464 37.6102 70.0724 37.2364" fill="white"/>
</g>
</svg>
