<svg width="83" height="81" viewBox="0 0 83 81" fill="none" xmlns="http://www.w3.org/2000/svg">
<path d="M68.8398 0H14.0664C6.548 0 0.453125 6.16504 0.453125 13.77V67.1004C0.453125 74.7054 6.548 80.8704 14.0664 80.8704H68.8398C76.3583 80.8704 82.4531 74.7054 82.4531 67.1004V13.77C82.4531 6.16504 76.3583 0 68.8398 0Z" fill="#49021F"/>
<path d="M30.2317 21.1557V56.5994C30.2317 56.9705 30.0666 57.156 29.7365 57.156H23.0804C22.7866 57.156 22.64 56.9705 22.6406 56.5994V21.1557C22.6406 20.8592 22.8056 20.7108 23.1355 20.7106H29.7916C29.8476 20.7025 29.9046 20.707 29.9587 20.7235C30.0128 20.74 30.0627 20.7683 30.105 20.8063C30.1472 20.8443 30.1807 20.8912 30.2032 20.9437C30.2257 20.9961 30.2366 21.0529 30.2352 21.1101L30.2317 21.1557ZM50.2788 57.7088L49.9245 57.7123C47.3927 57.7514 44.884 57.2192 42.581 56.1545C40.4355 55.1501 38.642 53.5105 37.4378 51.4527C36.221 49.4084 35.5979 46.8607 35.5684 43.8095L35.5675 43.5795C35.5468 41.0257 36.192 38.5116 37.4381 36.2904C38.6871 34.0887 40.5087 32.2752 42.705 31.0471L42.8837 30.9486C45.2669 29.6133 48.1456 28.9457 51.52 28.9457L51.5911 28.946L51.749 28.9496L51.9278 28.9567L52.1273 28.9671L52.3474 28.981L52.5879 28.9988L53.1315 29.0438L53.2801 29.0568V18.0959C53.2801 17.8365 53.3901 17.7065 53.61 17.7061H60.5413C60.5861 17.6996 60.6318 17.7038 60.6748 17.7182C60.7177 17.7327 60.7568 17.7571 60.7888 17.7895C60.8208 17.8219 60.8449 17.8614 60.8592 17.9048C60.8735 17.9483 60.8776 17.9945 60.8712 18.0398V50.9242C60.8734 51.6112 60.9009 52.298 60.9538 52.9829L61.0057 53.7002L61.0515 54.368L61.0913 54.9859C61.0981 55.1015 61.0702 55.2164 61.0113 55.3158C60.9525 55.4151 60.8653 55.4941 60.7613 55.5425C58.9732 56.2967 57.1108 56.8562 55.2055 57.2114C53.5799 57.5152 51.932 57.6816 50.2791 57.7088M53.2804 50.8128V35.6227C52.9832 35.5412 52.6796 35.4854 52.373 35.4558C51.9983 35.4175 51.6218 35.3989 51.2452 35.4001C49.9101 35.3868 48.5911 35.6917 47.3947 36.2904C46.2295 36.8768 45.2345 37.7586 44.5068 38.85C43.7547 39.9626 43.3787 41.4279 43.3789 43.2457C43.3523 44.4586 43.5481 45.6659 43.9565 46.8065C44.289 47.7257 44.8145 48.561 45.4968 49.255C46.15 49.8934 46.941 50.3696 47.8073 50.6459C48.7222 50.9455 49.6784 51.0958 50.6401 51.0914C51.1532 51.0914 51.63 51.0727 52.0703 51.0353C52.4216 51.0086 52.7697 50.95 53.1107 50.8604L53.2804 50.8128Z" fill="#FF3366"/>
</svg>
