<svg width="100" height="100" viewBox="0 0 100 100" fill="none" xmlns="http://www.w3.org/2000/svg">
<path d="M76.5625 0H23.4375C10.4933 0 0 10.4933 0 23.4375V76.5625C0 89.5067 10.4933 100 23.4375 100H76.5625C89.5067 100 100 89.5067 100 76.5625V23.4375C100 10.4933 89.5067 0 76.5625 0Z" fill="#090909"/>
<path d="M66.333 79.3232C66.1087 79.4369 65.8596 79.5 65.6035 79.5C65.3473 79.4999 65.0983 79.437 64.874 79.3232L65.6035 78.5938L66.333 79.3232ZM64.8965 74.8965L63.7559 76.0381L63.4023 76.3916L64.8965 77.8857L64.1084 78.6738L58.3633 72.9287C58.592 72.8333 58.8198 72.7352 59.0459 72.6328L59.502 72.4268L59.2959 71.9717L58.5664 70.3594L59.4629 69.4629L64.8965 74.8965ZM77.6738 68.0986L67.0986 78.6738L66.3105 77.8857L67.4521 76.7451L67.8057 76.3916L66.3105 74.8965L73.8965 67.3105L75.3916 68.8057L75.7451 68.4521L76.8857 67.3105L77.6738 68.0986ZM66.3916 76.3906L65.6035 77.1787L64.8164 76.3916L65.6035 75.6035L66.3916 76.3906ZM27.7373 50.1807C27.8656 55.5555 30.0565 60.6835 33.8672 64.4941C37.678 68.3048 42.8057 70.495 48.1807 70.623V73.8545C41.9486 73.7258 35.9988 71.1951 31.582 66.7783C27.1655 62.3617 24.6357 56.4124 24.5068 50.1807H27.7373ZM57.3701 70.1416L56.1201 71.3926L55.7666 71.7461L56.5635 72.543C54.1894 73.3623 51.6988 73.8064 49.1807 73.8545V70.624C51.8158 70.5665 54.4158 70.0086 56.8428 68.9805L57.3701 70.1416ZM58.1758 71.9219C57.9833 72.0042 57.79 72.084 57.5957 72.1611L57.1807 71.7451L57.8105 71.1152L58.1758 71.9219ZM57.791 68.6455C57.9453 68.6286 58.1024 68.634 58.2568 68.6621C58.4119 68.6904 58.5613 68.7408 58.7002 68.8115L58.126 69.3857L57.791 68.6455ZM76.1787 66.6035L75.3906 67.3916L74.6035 66.6035L75.3916 65.8164L76.1787 66.6035ZM78.3232 65.874C78.437 66.0983 78.4999 66.3473 78.5 66.6035C78.5 66.8596 78.4369 67.1087 78.3232 67.333L77.5938 66.6035L78.3232 65.874ZM77.6738 65.1084L76.8857 65.8965L75.3916 64.4023L75.0381 64.7559L73.8965 65.8965L68.4629 60.4629L69.3594 59.5664L70.9717 60.2959L71.4268 60.502L71.6328 60.0459C71.735 59.8202 71.8331 59.5924 71.9287 59.3633L77.6738 65.1084ZM68.3857 59.126L67.8115 59.7002C67.7408 59.5613 67.6904 59.4119 67.6621 59.2568C67.634 59.1024 67.6286 58.9453 67.6455 58.791L68.3857 59.126ZM71.1611 58.5957C71.0838 58.7903 71.0041 58.9837 70.9219 59.1758L70.1152 58.8105L70.7451 58.1807L71.1611 58.5957ZM72.8535 50.1807C72.8011 52.7589 72.3445 55.24 71.543 57.5635L70.7461 56.7666L70.3926 57.1201L69.1416 58.3701L67.9805 57.8428C69.0086 55.4158 69.5675 52.8158 69.625 50.1807H72.8535ZM49.1807 25.5059C55.4124 25.6347 61.3617 28.1655 65.7783 32.582C70.1951 36.9988 72.7258 42.9486 72.8545 49.1807H69.623C69.495 43.8057 67.3048 38.678 63.4941 34.8672C59.6834 31.0565 54.5555 28.8646 49.1807 28.7363V25.5059ZM25.6152 27.6152V29.7305H27.7305V49.1807H24.5V27.6152H25.6152ZM48.1807 25.5V28.7305H28.7305V26.6152H26.6152V25.5H48.1807ZM27.7305 27.6152V28.7305H26.6152V27.6152H27.7305ZM25.6152 26.6152H24.5811C24.6592 26.3756 24.7921 26.1552 24.9736 25.9736C25.1552 25.7921 25.3756 25.6592 25.6152 25.5811V26.6152Z" fill="white" stroke="white"/>
<path d="M48.6794 46.8598C47.1216 46.8598 45.8588 48.1226 45.8588 49.6804C45.8588 51.2381 47.1216 52.501 48.6794 52.501C50.2372 52.501 51.5 51.2381 51.5 49.6804C51.5 48.1226 50.2372 46.8598 48.6794 46.8598Z" fill="white" stroke="white" stroke-width="1.5"/>
<path d="M26.1152 27.1152L45.8595 46.8595Z" fill="white"/>
<path d="M26.1152 27.1152L45.8595 46.8595" stroke="white" stroke-width="1.5" stroke-linecap="round" stroke-linejoin="round"/>
</svg>
