<svg width="100" height="100" viewBox="0 0 100 100" fill="none" xmlns="http://www.w3.org/2000/svg">
<path d="M76.5625 0H23.4375C10.4933 0 0 10.4933 0 23.4375V76.5625C0 89.5067 10.4933 100 23.4375 100H76.5625C89.5067 100 100 89.5067 100 76.5625V23.4375C100 10.4933 89.5067 0 76.5625 0Z" fill="#330000"/>
<path d="M48.3367 59.5041H32.8367L29.6699 69.2959C29.5867 69.6709 29.2535 69.9209 28.8785 69.8791H21.0449C20.5867 69.8791 20.4617 69.6291 20.5867 69.1291L34.0035 30.5041C34.1285 30.0877 34.2535 29.6291 34.4199 29.1291C34.5867 28.2541 34.6699 27.3377 34.6699 26.4209C34.6285 26.2127 34.7949 26.0041 35.0035 25.9627H45.7949C46.1285 25.9627 46.2949 26.0877 46.3367 26.2959L61.5449 69.2127C61.6699 69.6709 61.5449 69.8791 61.1285 69.8791H52.4199C52.1285 69.9209 51.8367 69.7127 51.7535 69.4209L48.3367 59.5041ZM35.2535 51.0459H45.8367C45.5867 50.1709 45.2535 49.1291 44.8785 48.0459C44.5035 46.9209 44.1285 45.7127 43.7535 44.4627C43.3367 43.1709 42.9617 41.9209 42.5449 40.6291C42.1285 39.3377 41.7535 38.1291 41.4199 36.9209C41.0867 35.7545 40.7949 34.6709 40.5035 33.6709H40.4199C40.0449 35.4627 39.5867 37.2545 39.0035 39.0459C38.3785 41.0459 37.7535 43.1291 37.0867 45.2127C36.5486 47.1793 35.9372 49.1251 35.2535 51.0459ZM70.8367 33.2541C69.4617 33.2959 68.1285 32.7541 67.1285 31.7959C66.1703 30.7541 65.6703 29.3791 65.7117 27.9627C65.6703 26.5459 66.2117 25.2127 67.2117 24.2541C68.2117 23.2955 69.5453 22.7959 70.9203 22.7959C72.5453 22.7959 73.7953 23.2959 74.7117 24.2541C75.6352 25.2642 76.1285 26.5947 76.0867 27.9627C76.1285 29.3791 75.6285 30.7541 74.6285 31.7959C73.6703 32.7959 72.2535 33.3377 70.8367 33.2541ZM66.1703 69.4209V37.3377C66.1703 36.9209 66.3367 36.7541 66.7117 36.7541H74.9617C75.3367 36.7541 75.5035 36.9627 75.5035 37.3377V69.4209C75.5035 69.8791 75.3367 70.0877 74.9617 70.0877H66.7953C66.3785 70.0877 66.1703 69.8377 66.1703 69.4209Z" fill="#FF9A00"/>
</svg>
