<svg width="100" height="100" viewBox="0 0 100 100" fill="none" xmlns="http://www.w3.org/2000/svg">
<path d="M76.5625 0H23.4375C10.4933 0 0 10.4933 0 23.4375V76.5625C0 89.5067 10.4933 100 23.4375 100H76.5625C89.5067 100 100 89.5067 100 76.5625V23.4375C100 10.4933 89.5067 0 76.5625 0Z" fill="#090909"/>
<path d="M38.7501 87.0012C45.2536 87.0012 50.5002 81.7546 50.5002 75.2511V63.501H38.7501C32.2466 63.501 27 68.7475 27 75.2511C27 81.7546 32.2466 87.0012 38.7501 87.0012Z" fill="#0ACF83"/>
<path d="M27 51.7501C27 45.2466 32.2466 40 38.7501 40H50.5002V63.5002H38.7501C32.2466 63.5002 27 58.2536 27 51.7501Z" fill="#A259FF"/>
<path d="M27 28.2501C27 21.7466 32.2466 16.5 38.7501 16.5H50.5002V40.0002H38.7501C32.2466 40.0002 27 34.7536 27 28.2501Z" fill="#F24E1E"/>
<path d="M50.5 16.5H62.2501C68.7536 16.5 74.0002 21.7466 74.0002 28.2501C74.0002 34.7536 68.7536 40.0002 62.2501 40.0002H50.5V16.5Z" fill="#FF7262"/>
<path d="M74.0002 51.7501C74.0002 58.2536 68.7536 63.5002 62.2501 63.5002C55.7466 63.5002 50.5 58.2536 50.5 51.7501C50.5 45.2466 55.7466 40 62.2501 40C68.7536 40 74.0002 45.2466 74.0002 51.7501Z" fill="#1ABCFE"/>
</svg>
