<svg width="100" height="100" viewBox="0 0 100 100" fill="none" xmlns="http://www.w3.org/2000/svg">
<path d="M76.5625 0H23.4375C10.4933 0 0 10.4933 0 23.4375V76.5625C0 89.5067 10.4933 100 23.4375 100H76.5625C89.5067 100 100 89.5067 100 76.5625V23.4375C100 10.4933 89.5067 0 76.5625 0Z" fill="#090909"/>
<path d="M50 19.5C45.929 19.5 41.8979 20.3217 38.1368 21.9183C34.3757 23.5149 30.9583 25.855 28.0797 28.8051C22.2661 34.7631 19 42.8438 19 51.2696C19 65.3118 27.897 77.2254 40.204 81.4508C41.754 81.7049 42.25 80.7201 42.25 79.8623V74.4932C33.663 76.3994 31.834 70.2361 31.834 70.2361C30.408 66.5508 28.393 65.566 28.393 65.566C25.572 63.5963 28.61 63.6598 28.61 63.6598C31.71 63.8822 33.353 66.9321 33.353 66.9321C36.05 71.7611 40.607 70.3314 42.374 69.5689C42.653 67.5039 43.459 66.1061 44.327 65.3118C37.445 64.5176 30.222 61.7854 30.222 49.6812C30.222 46.1547 31.4 43.3272 33.415 41.0716C33.105 40.2773 32.02 36.9733 33.725 32.6844C33.725 32.6844 36.329 31.8266 42.25 35.9249C44.699 35.226 47.365 34.8765 50 34.8765C52.635 34.8765 55.301 35.226 57.75 35.9249C63.671 31.8266 66.275 32.6844 66.275 32.6844C67.98 36.9733 66.895 40.2773 66.585 41.0716C68.6 43.3272 69.778 46.1547 69.778 49.6812C69.778 61.8172 62.524 64.4858 55.611 65.28C56.727 66.2649 57.75 68.2029 57.75 71.1574V79.8623C57.75 80.7201 58.246 81.7367 59.827 81.4508C72.134 77.1937 81 65.3118 81 51.2696C81 47.0976 80.1982 42.9664 78.6403 39.1119C77.0824 35.2575 74.7989 31.7552 71.9203 28.8051C69.0417 25.855 65.6243 23.5149 61.8632 21.9183C58.1021 20.3217 54.071 19.5 50 19.5Z" fill="white"/>
</svg>
