<svg width="100" height="100" viewBox="0 0 100 100" fill="none" xmlns="http://www.w3.org/2000/svg">
<path d="M76.5625 0H23.4375C10.4933 0 0 10.4933 0 23.4375V76.5625C0 89.5067 10.4933 100 23.4375 100H76.5625C89.5067 100 100 89.5067 100 76.5625V23.4375C100 10.4933 89.5067 0 76.5625 0Z" fill="#001E36"/>
<path d="M22.4961 69.548V26.673C22.4961 26.3812 22.6211 26.2148 22.9129 26.2148C23.6211 26.2148 24.2879 26.2148 25.2461 26.173C26.2461 26.1312 27.2879 26.1312 28.4129 26.0898C29.5379 26.048 30.7461 26.048 32.0379 26.0062C33.3293 25.9648 34.5793 25.9648 35.8293 25.9648C39.2461 25.9648 42.0793 26.3812 44.4129 27.2563C46.5045 27.9667 48.4117 29.1339 49.9961 30.673C51.3384 32.0203 52.3758 33.6402 53.0379 35.423C53.6629 37.173 53.9961 38.9648 53.9961 40.8398C53.9961 44.4232 53.1628 47.3815 51.4961 49.7148C49.8293 52.048 47.4961 53.798 44.7879 54.798C41.9543 55.8398 38.8293 56.2148 35.4129 56.2148C34.4129 56.2148 33.7461 56.2148 33.3293 56.173C32.9125 56.1313 32.3293 56.1312 31.5379 56.1312V69.5063C31.5793 69.798 31.3711 70.048 31.0793 70.0898H22.9961C22.6629 70.0898 22.4961 69.923 22.4961 69.548ZM31.5793 34.2562V48.2562C32.1629 48.298 32.7043 48.3398 33.2043 48.3398H35.4129C37.0379 48.3398 38.6629 48.0898 40.2043 47.5898C41.5379 47.2148 42.7043 46.423 43.6211 45.3812C44.4961 44.3398 44.9129 42.923 44.9129 41.0898C44.952 39.7877 44.6195 38.5013 43.9543 37.3813C43.2461 36.298 42.2461 35.4648 41.0379 35.0062C39.4961 34.3812 37.8293 34.1313 36.1211 34.173C35.0379 34.173 34.0793 34.173 33.2879 34.2148C32.4543 34.173 31.8711 34.2148 31.5793 34.2562ZM79.9961 45.7148C78.7461 45.048 77.4129 44.5898 75.9961 44.298C74.4543 43.9648 72.9129 43.7563 71.3293 43.7563C70.4961 43.7148 69.6211 43.8398 68.8293 44.048C68.2879 44.173 67.8293 44.4648 67.5379 44.8812C67.3293 45.2148 67.2043 45.6313 67.2043 46.0063C67.2043 46.3813 67.3711 46.7562 67.6211 47.0898C67.9961 47.548 68.4961 47.923 69.0379 48.2148C70.004 48.715 70.9909 49.1738 71.9961 49.5898C74.2461 50.3398 76.4129 51.3813 78.4129 52.6313C79.7879 53.5063 80.9129 54.6731 81.7043 56.0898C82.3711 57.4231 82.7043 58.8813 82.6629 60.3813C82.7043 62.3398 82.1211 64.298 81.0379 65.923C79.8757 67.5863 78.254 68.8749 76.3711 69.6313C74.3293 70.5063 71.8293 70.9648 68.8293 70.9648C66.9129 70.9648 65.0379 70.798 63.1629 70.423C61.6933 70.1693 60.2641 69.7209 58.9129 69.0898C58.6211 68.9231 58.4129 68.6313 58.4543 68.298V61.048C58.4543 60.923 58.4961 60.7563 58.6211 60.6731C58.7461 60.5898 58.8711 60.6313 58.9961 60.7148C60.6211 61.673 62.3293 62.3398 64.1629 62.7563C65.7461 63.173 67.4129 63.3813 69.0793 63.3813C70.6629 63.3813 71.7879 63.173 72.5379 62.798C73.2043 62.5062 73.6629 61.798 73.6629 61.048C73.6629 60.4648 73.3293 59.923 72.6629 59.3813C71.9961 58.8398 70.6211 58.2148 68.5793 57.423C66.485 56.6848 64.496 55.6763 62.6629 54.4231C61.3571 53.4926 60.2752 52.2826 59.4961 50.8813C58.8293 49.548 58.4961 48.0898 58.5379 46.6313C58.5379 44.8398 59.0379 43.1313 59.9543 41.5898C60.9961 39.923 62.5379 38.5898 64.3293 37.7562C66.2879 36.7562 68.7461 36.298 71.7043 36.298C73.4129 36.298 75.1629 36.423 76.8711 36.673C78.1211 36.8398 79.3293 37.173 80.4543 37.6312C80.6211 37.673 80.7879 37.8398 80.8711 38.0062C80.9129 38.173 80.9543 38.3398 80.9543 38.5062V45.298C80.9543 45.4648 80.8711 45.6313 80.7461 45.7148C80.3711 45.798 80.1629 45.798 79.9961 45.7148Z" fill="#31A8FF"/>
</svg>
