<svg width="329" height="84" viewBox="0 0 329 84" fill="none" xmlns="http://www.w3.org/2000/svg">
<path d="M34.85 83.2C28.15 83.2 22.15 81.9 16.85 79.3C11.65 76.7 7.6 72.75 4.7 67.45C1.8 62.05 0.350001 55.2 0.350001 46.9V1.29999H23.75V43.45C23.75 50.15 25.15 55.1 27.95 58.3C30.85 61.4 34.9 62.95 40.1 62.95C43.7 62.95 46.9 62.2 49.7 60.7C52.5 59.1 54.7 56.7 56.3 53.5C57.9 50.2 58.7 46.1 58.7 41.2V1.29999H82.1V82H59.9V59.8L63.95 66.25C61.25 71.85 57.25 76.1 51.95 79C46.75 81.8 41.05 83.2 34.85 83.2ZM130.929 83.2C124.029 83.2 117.379 82.4 110.979 80.8C104.679 79.1 99.6785 77 95.9785 74.5L103.779 57.7C107.479 60 111.829 61.9 116.829 63.4C121.929 64.8 126.929 65.5 131.829 65.5C137.229 65.5 141.029 64.85 143.229 63.55C145.529 62.25 146.679 60.45 146.679 58.15C146.679 56.25 145.779 54.85 143.979 53.95C142.279 52.95 139.979 52.2 137.079 51.7C134.179 51.2 130.979 50.7 127.479 50.2C124.079 49.7 120.629 49.05 117.129 48.25C113.629 47.35 110.429 46.05 107.529 44.35C104.629 42.65 102.279 40.35 100.479 37.45C98.7785 34.55 97.9285 30.8 97.9285 26.2C97.9285 21.1 99.3785 16.6 102.279 12.7C105.279 8.79999 109.579 5.75 115.179 3.55C120.779 1.25 127.479 0.0999994 135.279 0.0999994C140.779 0.0999994 146.379 0.699998 152.079 1.89999C157.779 3.1 162.529 4.85 166.329 7.15L158.529 23.8C154.629 21.5 150.679 19.95 146.679 19.15C142.779 18.25 138.979 17.8 135.279 17.8C130.079 17.8 126.279 18.5 123.879 19.9C121.479 21.3 120.279 23.1 120.279 25.3C120.279 27.3 121.129 28.8 122.829 29.8C124.629 30.8 126.979 31.6 129.879 32.2C132.779 32.8 135.929 33.35 139.329 33.85C142.829 34.25 146.329 34.9 149.829 35.8C153.329 36.7 156.479 38 159.279 39.7C162.179 41.3 164.529 43.55 166.329 46.45C168.129 49.25 169.029 52.95 169.029 57.55C169.029 62.55 167.529 67 164.529 70.9C161.529 74.7 157.179 77.7 151.479 79.9C145.879 82.1 139.029 83.2 130.929 83.2ZM223.516 83.2C214.316 83.2 206.216 81.4 199.216 77.8C192.316 74.2 186.966 69.3 183.166 63.1C179.366 56.8 177.466 49.65 177.466 41.65C177.466 33.55 179.316 26.4 183.016 20.2C186.816 13.9 191.966 9 198.466 5.49999C204.966 1.9 212.316 0.0999994 220.516 0.0999994C228.416 0.0999994 235.516 1.8 241.816 5.2C248.216 8.5 253.266 13.3 256.966 19.6C260.666 25.8 262.516 33.25 262.516 41.95C262.516 42.85 262.466 43.9 262.366 45.1C262.266 46.2 262.166 47.25 262.066 48.25H196.516V34.6H249.766L240.766 38.65C240.766 34.45 239.916 30.8 238.216 27.7C236.516 24.6 234.166 22.2 231.166 20.5C228.166 18.7 224.666 17.8 220.666 17.8C216.666 17.8 213.116 18.7 210.016 20.5C207.016 22.2 204.666 24.65 202.966 27.85C201.266 30.95 200.416 34.65 200.416 38.95V42.55C200.416 46.95 201.366 50.85 203.266 54.25C205.266 57.55 208.016 60.1 211.516 61.9C215.116 63.6 219.316 64.45 224.116 64.45C228.416 64.45 232.166 63.8 235.366 62.5C238.666 61.2 241.666 59.25 244.366 56.65L256.816 70.15C253.116 74.35 248.466 77.6 242.866 79.9C237.266 82.1 230.816 83.2 223.516 83.2ZM278.095 82V1.29999H300.445V24.1L297.295 17.5C299.695 11.8 303.545 7.5 308.845 4.6C314.145 1.6 320.595 0.0999994 328.195 0.0999994V21.7C327.195 21.6 326.295 21.55 325.495 21.55C324.695 21.45 323.845 21.4 322.945 21.4C316.545 21.4 311.345 23.25 307.345 26.95C303.445 30.55 301.495 36.2 301.495 43.9V82H278.095Z" fill="white"/>
</svg>
