<svg width="354" height="111" viewBox="0 0 354 111" fill="none" xmlns="http://www.w3.org/2000/svg">
<path d="M49.5534 110.86C34.1567 110.86 22.1184 106.572 13.4384 97.995C4.7584 89.4183 0.4184 77.1733 0.4184 61.26V0.499993H25.5284V60.33C25.5284 70.6633 27.6467 78.1033 31.8834 82.65C36.1201 87.1967 42.0617 89.47 49.7084 89.47C57.3551 89.47 63.2967 87.1967 67.5334 82.65C71.7701 78.1033 73.8884 70.6633 73.8884 60.33V0.499993H98.6884V61.26C98.6884 77.1733 94.3484 89.4183 85.6684 97.995C76.9884 106.572 64.9501 110.86 49.5534 110.86ZM149.852 110.24C142.722 110.24 135.85 109.413 129.237 107.76C122.727 106.003 117.56 103.833 113.737 101.25L121.797 83.89C125.62 86.2667 130.115 88.23 135.282 89.78C140.552 91.2267 145.718 91.95 150.782 91.95C156.362 91.95 160.288 91.2783 162.562 89.935C164.938 88.5917 166.127 86.7317 166.127 84.355C166.127 82.3917 165.197 80.945 163.337 80.015C161.58 78.9817 159.203 78.2067 156.207 77.69C153.21 77.1733 149.903 76.6567 146.287 76.14C142.773 75.6233 139.208 74.9517 135.592 74.125C131.975 73.195 128.668 71.8517 125.672 70.095C122.675 68.3383 120.247 65.9617 118.387 62.965C116.63 59.9683 115.752 56.0933 115.752 51.34C115.752 46.07 117.25 41.42 120.247 37.39C123.347 33.36 127.79 30.2083 133.577 27.935C139.363 25.5583 146.287 24.37 154.347 24.37C160.03 24.37 165.817 24.99 171.707 26.23C177.597 27.47 182.505 29.2783 186.432 31.655L178.372 48.86C174.342 46.4833 170.26 44.8817 166.127 44.055C162.097 43.125 158.17 42.66 154.347 42.66C148.973 42.66 145.047 43.3833 142.567 44.83C140.087 46.2767 138.847 48.1367 138.847 50.41C138.847 52.4767 139.725 54.0267 141.482 55.06C143.342 56.0933 145.77 56.92 148.767 57.54C151.763 58.16 155.018 58.7283 158.532 59.245C162.148 59.6583 165.765 60.33 169.382 61.26C172.998 62.19 176.253 63.5333 179.147 65.29C182.143 66.9433 184.572 69.2683 186.432 72.265C188.292 75.1583 189.222 78.9817 189.222 83.735C189.222 88.9017 187.672 93.5 184.572 97.53C181.472 101.457 176.977 104.557 171.087 106.83C165.3 109.103 158.222 110.24 149.852 110.24ZM245.525 110.24C236.019 110.24 227.649 108.38 220.415 104.66C213.285 100.94 207.757 95.8767 203.83 89.47C199.904 82.96 197.94 75.5717 197.94 67.305C197.94 58.935 199.852 51.5467 203.675 45.14C207.602 38.63 212.924 33.5667 219.64 29.95C226.357 26.23 233.952 24.37 242.425 24.37C250.589 24.37 257.925 26.1267 264.435 29.64C271.049 33.05 276.267 38.01 280.09 44.52C283.914 50.9267 285.825 58.625 285.825 67.615C285.825 68.545 285.774 69.63 285.67 70.87C285.567 72.0067 285.464 73.0917 285.36 74.125H217.625V60.02H272.65L263.35 64.205C263.35 59.865 262.472 56.0933 260.715 52.89C258.959 49.6867 256.53 47.2067 253.43 45.45C250.33 43.59 246.714 42.66 242.58 42.66C238.447 42.66 234.779 43.59 231.575 45.45C228.475 47.2067 226.047 49.7383 224.29 53.045C222.534 56.2483 221.655 60.0717 221.655 64.515V68.235C221.655 72.7817 222.637 76.8117 224.6 80.325C226.667 83.735 229.509 86.37 233.125 88.23C236.845 89.9867 241.185 90.865 246.145 90.865C250.589 90.865 254.464 90.1933 257.77 88.85C261.18 87.5067 264.28 85.4917 267.07 82.805L279.935 96.755C276.112 101.095 271.307 104.453 265.52 106.83C259.734 109.103 253.069 110.24 245.525 110.24ZM301.924 109V25.61H325.019V49.17L321.764 42.35C324.244 36.46 328.222 32.0167 333.699 29.02C339.175 25.92 345.84 24.37 353.694 24.37V46.69C352.66 46.5867 351.73 46.535 350.904 46.535C350.077 46.4317 349.199 46.38 348.269 46.38C341.655 46.38 336.282 48.2917 332.149 52.115C328.119 55.835 326.104 61.6733 326.104 69.63V109H301.924Z" fill="white"/>
</svg>
