<svg width="546" height="147" viewBox="0 0 546 147" fill="none" xmlns="http://www.w3.org/2000/svg">
<path d="M0.549083 116V7.49999H47.5141C57.2274 7.49999 65.5974 9.10166 72.6241 12.305C79.6508 15.405 85.0758 19.9 88.8991 25.79C92.7224 31.68 94.6341 38.7067 94.6341 46.87C94.6341 54.93 92.7224 61.905 88.8991 67.795C85.0758 73.685 79.6508 78.2317 72.6241 81.435C65.5974 84.535 57.2274 86.085 47.5141 86.085H14.4991L25.6591 74.77V116H0.549083ZM25.6591 77.56L14.4991 65.625H46.1191C53.8691 65.625 59.6558 63.9717 63.4791 60.665C67.3024 57.3583 69.2141 52.76 69.2141 46.87C69.2141 40.8767 67.3024 36.2267 63.4791 32.92C59.6558 29.6133 53.8691 27.96 46.1191 27.96H14.4991L25.6591 16.025V77.56ZM152.089 117.24C142.583 117.24 134.213 115.38 126.979 111.66C119.849 107.94 114.321 102.877 110.394 96.47C106.468 89.96 104.504 82.5717 104.504 74.305C104.504 65.935 106.416 58.5467 110.239 52.14C114.166 45.63 119.488 40.5667 126.204 36.95C132.921 33.23 140.516 31.37 148.989 31.37C157.153 31.37 164.489 33.1267 170.999 36.64C177.613 40.05 182.831 45.01 186.654 51.52C190.478 57.9267 192.389 65.625 192.389 74.615C192.389 75.545 192.338 76.63 192.234 77.87C192.131 79.0067 192.028 80.0917 191.924 81.125H124.189V67.02H179.214L169.914 71.205C169.914 66.865 169.036 63.0933 167.279 59.89C165.523 56.6867 163.094 54.2067 159.994 52.45C156.894 50.59 153.278 49.66 149.144 49.66C145.011 49.66 141.343 50.59 138.139 52.45C135.039 54.2067 132.611 56.7383 130.854 60.045C129.098 63.2483 128.219 67.0717 128.219 71.515V75.235C128.219 79.7817 129.201 83.8117 131.164 87.325C133.231 90.735 136.073 93.37 139.689 95.23C143.409 96.9867 147.749 97.865 152.709 97.865C157.153 97.865 161.028 97.1933 164.334 95.85C167.744 94.5067 170.844 92.4917 173.634 89.805L186.499 103.755C182.676 108.095 177.871 111.453 172.084 113.83C166.298 116.103 159.633 117.24 152.089 117.24ZM248.168 117.24C239.281 117.24 231.376 115.38 224.453 111.66C217.633 107.94 212.208 102.877 208.178 96.47C204.251 89.96 202.288 82.5717 202.288 74.305C202.288 65.935 204.251 58.5467 208.178 52.14C212.208 45.63 217.633 40.5667 224.453 36.95C231.376 33.23 239.281 31.37 248.168 31.37C256.951 31.37 264.804 33.23 271.728 36.95C278.651 40.5667 284.076 45.5783 288.003 51.985C291.929 58.3917 293.893 65.8317 293.893 74.305C293.893 82.5717 291.929 89.96 288.003 96.47C284.076 102.877 278.651 107.94 271.728 111.66C264.804 115.38 256.951 117.24 248.168 117.24ZM248.168 97.4C252.198 97.4 255.814 96.47 259.018 94.61C262.221 92.75 264.753 90.115 266.613 86.705C268.473 83.1917 269.403 79.0583 269.403 74.305C269.403 69.4483 268.473 65.315 266.613 61.905C264.753 58.495 262.221 55.86 259.018 54C255.814 52.14 252.198 51.21 248.168 51.21C244.138 51.21 240.521 52.14 237.318 54C234.114 55.86 231.531 58.495 229.568 61.905C227.708 65.315 226.778 69.4483 226.778 74.305C226.778 79.0583 227.708 83.1917 229.568 86.705C231.531 90.115 234.114 92.75 237.318 94.61C240.521 96.47 244.138 97.4 248.168 97.4ZM359.345 117.24C352.318 117.24 346.17 115.69 340.9 112.59C335.63 109.49 331.497 104.788 328.5 98.485C325.607 92.0783 324.16 84.0183 324.16 74.305C324.16 64.4883 325.555 56.4283 328.345 50.125C331.135 43.8217 335.165 39.12 340.435 36.02C345.705 32.92 352.008 31.37 359.345 31.37C367.198 31.37 374.225 33.1783 380.425 36.795C386.728 40.3083 391.688 45.2683 395.305 51.675C399.025 58.0817 400.885 65.625 400.885 74.305C400.885 83.0883 399.025 90.6833 395.305 97.09C391.688 103.497 386.728 108.457 380.425 111.97C374.225 115.483 367.198 117.24 359.345 117.24ZM310.055 146.07V32.61H333.15V49.66L332.685 74.46L334.235 99.105V146.07H310.055ZM355.16 97.4C359.19 97.4 362.755 96.47 365.855 94.61C369.058 92.75 371.59 90.115 373.45 86.705C375.413 83.1917 376.395 79.0583 376.395 74.305C376.395 69.4483 375.413 65.315 373.45 61.905C371.59 58.495 369.058 55.86 365.855 54C362.755 52.14 359.19 51.21 355.16 51.21C351.13 51.21 347.513 52.14 344.31 54C341.107 55.86 338.575 58.495 336.715 61.905C334.855 65.315 333.925 69.4483 333.925 74.305C333.925 79.0583 334.855 83.1917 336.715 86.705C338.575 90.115 341.107 92.75 344.31 94.61C347.513 96.47 351.13 97.4 355.16 97.4ZM417.072 116V0.989993H441.252V116H417.072ZM505.078 117.24C495.571 117.24 487.201 115.38 479.968 111.66C472.838 107.94 467.309 102.877 463.383 96.47C459.456 89.96 457.493 82.5717 457.493 74.305C457.493 65.935 459.404 58.5467 463.228 52.14C467.154 45.63 472.476 40.5667 479.193 36.95C485.909 33.23 493.504 31.37 501.978 31.37C510.141 31.37 517.478 33.1267 523.988 36.64C530.601 40.05 535.819 45.01 539.643 51.52C543.466 57.9267 545.378 65.625 545.378 74.615C545.378 75.545 545.326 76.63 545.223 77.87C545.119 79.0067 545.016 80.0917 544.913 81.125H477.178V67.02H532.203L522.903 71.205C522.903 66.865 522.024 63.0933 520.268 59.89C518.511 56.6867 516.083 54.2067 512.983 52.45C509.883 50.59 506.266 49.66 502.133 49.66C497.999 49.66 494.331 50.59 491.128 52.45C488.028 54.2067 485.599 56.7383 483.843 60.045C482.086 63.2483 481.208 67.0717 481.208 71.515V75.235C481.208 79.7817 482.189 83.8117 484.153 87.325C486.219 90.735 489.061 93.37 492.678 95.23C496.398 96.9867 500.738 97.865 505.698 97.865C510.141 97.865 514.016 97.1933 517.323 95.85C520.733 94.5067 523.833 92.4917 526.623 89.805L539.488 103.755C535.664 108.095 530.859 111.453 525.073 113.83C519.286 116.103 512.621 117.24 505.078 117.24Z" fill="white"/>
</svg>
